<svg width="20" height="20" viewBox="0 0 20 20" fill="none" xmlns="http://www.w3.org/2000/svg">
<g id="fi_4159844">
<g id="layer1">
<path id="path2907" d="M3.33838 17.5014C3.17164 17.5027 3.00834 17.454 2.86961 17.3615C2.73087 17.269 2.62308 17.1369 2.56015 16.9825C2.49723 16.8281 2.48207 16.6584 2.51664 16.4953C2.55121 16.3321 2.63392 16.1832 2.75407 16.0675L12.9461 5.87381C13.0227 5.79368 13.1145 5.72964 13.2161 5.68542C13.3178 5.6412 13.4272 5.61772 13.5381 5.61631C13.6489 5.6149 13.7589 5.63562 13.8616 5.67725C13.9643 5.71887 14.0577 5.78056 14.1363 5.85872C14.2149 5.93688 14.2771 6.02987 14.3193 6.13237C14.3615 6.23487 14.3828 6.34478 14.382 6.45562C14.3812 6.56645 14.3583 6.67602 14.3147 6.7779C14.271 6.87978 14.2075 6.97193 14.1278 7.04895L3.93408 17.2491C3.85661 17.3288 3.76401 17.3921 3.66171 17.4354C3.5594 17.4787 3.44947 17.5012 3.33838 17.5014ZM16.6554 10.4458C16.5454 10.4445 16.4368 10.4214 16.3358 10.3779C16.2347 10.3344 16.1433 10.2715 16.0667 10.1925C15.9902 10.1135 15.93 10.0201 15.8897 9.9178C15.8494 9.81545 15.8297 9.70616 15.8319 9.59619V4.15829H10.394C10.283 4.16081 10.1726 4.14117 10.0693 4.10043C9.966 4.05968 9.87188 3.9987 9.79247 3.92107C9.71306 3.84344 9.64996 3.75064 9.60688 3.64829C9.5638 3.54593 9.54161 3.436 9.54161 3.32494C9.54161 3.21389 9.5638 3.10396 9.60688 3.0016C9.64996 2.89925 9.71306 2.80654 9.79247 2.72891C9.87188 2.65128 9.966 2.5903 10.0693 2.54956C10.1726 2.50881 10.283 2.48918 10.394 2.49169H16.6685C16.8895 2.49258 17.1011 2.58116 17.2567 2.73804C17.4124 2.89493 17.4994 3.10721 17.4985 3.32821V9.59619C17.5007 9.70781 17.4804 9.81868 17.4389 9.92232C17.3974 10.026 17.3355 10.1202 17.2569 10.1994C17.1782 10.2787 17.0845 10.3413 16.9811 10.3836C16.8778 10.4259 16.7671 10.4471 16.6554 10.4458Z" fill="currentColor"/>
</g>
</g>
</svg>
