<svg width="20" height="21" viewBox="0 0 20 21" fill="none" xmlns="http://www.w3.org/2000/svg">
<g id="fi_7325265" clip-path="url(#clip0_3796_3165)">
<g id="Group">
<g id="Group_2">
<path id="Vector" d="M17.538 3.92299H2.46501C2.08736 3.92299 1.78125 3.61688 1.78125 3.23923V1.18376C1.78125 0.806111 2.08736 0.5 2.46501 0.5H17.538C17.9157 0.5 18.2218 0.806111 18.2218 1.18376V3.23923C18.2218 3.61688 17.9157 3.92299 17.538 3.92299Z" fill="#6262F4"/>
<g id="Group_3">
<path id="Vector_2" d="M16.2402 2.20898H3.76172V19.3639L5.17971 20.5002L6.81625 19.3639L8.4086 20.5002L10.001 19.3639L11.5933 20.5002L13.1857 19.3639L14.8222 20.5002L16.2402 19.3639V2.20898Z" fill="#DFDEF9"/>
<g id="Group_4">
<g id="Group_5">
<g id="Group_6">
<path id="Vector_3" d="M13.9247 12.9703H13.3777C13.2597 12.9703 13.1641 12.8747 13.1641 12.7566C13.1641 12.6386 13.2597 12.543 13.3777 12.543H13.9247C14.0427 12.543 14.1384 12.6386 14.1384 12.7566C14.1384 12.8747 14.0427 12.9703 13.9247 12.9703Z" fill="#AC9EF9"/>
<path id="Vector_4" d="M11.9165 12.9703H5.96758C5.84955 12.9703 5.75391 12.8747 5.75391 12.7566C5.75391 12.6386 5.84955 12.543 5.96758 12.543H11.9165C12.0345 12.543 12.1301 12.6386 12.1301 12.7566C12.1301 12.8747 12.0345 12.9703 11.9165 12.9703Z" fill="#AC9EF9"/>
</g>
<path id="Vector_5" d="M13.9241 15.0875H5.96758C5.84955 15.0875 5.75391 14.9919 5.75391 14.8738C5.75391 14.7558 5.84955 14.6602 5.96758 14.6602H13.9241C14.0422 14.6602 14.1378 14.7558 14.1378 14.8738C14.1378 14.9919 14.0422 15.0875 13.9241 15.0875Z" fill="#AC9EF9"/>
<g id="Group_7">
<path id="Vector_6" d="M13.9247 17.2027H13.3777C13.2597 17.2027 13.1641 17.1071 13.1641 16.9891C13.1641 16.871 13.2597 16.7754 13.3777 16.7754H13.9247C14.0427 16.7754 14.1384 16.871 14.1384 16.9891C14.1384 17.1071 14.0427 17.2027 13.9247 17.2027Z" fill="#AC9EF9"/>
<path id="Vector_7" d="M11.9165 17.2027H5.96758C5.84955 17.2027 5.75391 17.1071 5.75391 16.9891C5.75391 16.871 5.84955 16.7754 5.96758 16.7754H11.9165C12.0345 16.7754 12.1301 16.871 12.1301 16.9891C12.1301 17.1071 12.0345 17.2027 11.9165 17.2027Z" fill="#AC9EF9"/>
</g>
</g>
<g id="Group_8">
<path id="Vector_8" d="M5.9668 4.13257H9.66671V6.578H5.9668V4.13257Z" fill="#AC9EF9"/>
<g id="Group_9">
<path id="Vector_9" d="M14.0349 4.53087H11.493C11.3749 4.53087 11.2793 4.43523 11.2793 4.31719C11.2793 4.19916 11.3749 4.10352 11.493 4.10352H14.0349C14.1529 4.10352 14.2485 4.19916 14.2485 4.31719C14.2485 4.43523 14.1528 4.53087 14.0349 4.53087Z" fill="#AC9EF9"/>
<path id="Vector_10" d="M14.0349 6.60728H11.493C11.3749 6.60728 11.2793 6.51164 11.2793 6.39361C11.2793 6.27557 11.3749 6.17993 11.493 6.17993H14.0349C14.1529 6.17993 14.2485 6.27557 14.2485 6.39361C14.2485 6.51164 14.1528 6.60728 14.0349 6.60728Z" fill="#AC9EF9"/>
</g>
</g>
<g id="Group_10">
<path id="Vector_11" d="M13.2875 9.23241V8.53455C13.4285 8.56344 13.5628 8.62566 13.6783 8.71605C13.7072 8.73639 13.7411 8.74737 13.7766 8.74788C13.8866 8.74788 13.9771 8.65622 13.9783 8.54344C13.9785 8.49382 13.9599 8.44707 13.9244 8.41032C13.7458 8.25361 13.5197 8.15776 13.2855 8.13908V7.91186C13.2855 7.82724 13.2184 7.7584 13.1393 7.7584C13.0542 7.75045 12.9768 7.82476 12.9772 7.91186V8.13083C12.5157 8.17314 12.1955 8.47617 12.1955 8.87387C12.1955 9.34985 12.5631 9.49716 12.9772 9.61305V10.4137C12.7892 10.3828 12.6138 10.3007 12.4678 10.1749C12.4347 10.1479 12.3929 10.1325 12.3479 10.1315C12.2401 10.1392 12.1568 10.2319 12.1582 10.3423C12.158 10.3919 12.1766 10.4387 12.2116 10.475C12.4234 10.6704 12.6952 10.7854 12.9792 10.8002V11.0099C12.9783 11.0951 13.0551 11.1696 13.1375 11.1636C13.2202 11.1636 13.2875 11.0947 13.2875 11.0099V10.7953C13.871 10.7466 14.0795 10.3593 14.0795 10.0097C14.0795 9.50258 13.674 9.34083 13.2875 9.23241ZM13.6534 10.0563C13.6534 10.2046 13.5566 10.3748 13.2875 10.4182V9.7075C13.5097 9.77558 13.6552 9.86387 13.6534 10.0563ZM12.9792 8.51729V9.15053C12.7768 9.08801 12.6257 9.0213 12.6257 8.84848C12.6257 8.67083 12.7635 8.54284 12.9792 8.51729Z" fill="#AC9EF9"/>
<g id="Group_11">
<path id="Vector_12" d="M10.5101 10.8473H5.96758C5.84955 10.8473 5.75391 10.7516 5.75391 10.6336C5.75391 10.5156 5.84955 10.4199 5.96758 10.4199H10.5101C10.6281 10.4199 10.7238 10.5156 10.7238 10.6336C10.7238 10.7516 10.6281 10.8473 10.5101 10.8473Z" fill="#AC9EF9"/>
<path id="Vector_13" d="M10.5101 8.72813H5.96758C5.84955 8.72813 5.75391 8.63249 5.75391 8.51446C5.75391 8.39642 5.84955 8.30078 5.96758 8.30078H10.5101C10.6281 8.30078 10.7238 8.39642 10.7238 8.51446C10.7238 8.63249 10.6281 8.72813 10.5101 8.72813Z" fill="#AC9EF9"/>
</g>
</g>
</g>
</g>
</g>
<g id="Group_12">
<g id="Group_13">
<path id="Vector_14" d="M16.6047 16.9236C18.2202 16.9236 19.5298 15.6163 19.5298 14.0038C19.5298 12.3912 18.2202 11.084 16.6047 11.084C14.9893 11.084 13.6797 12.3912 13.6797 14.0038C13.6797 15.6163 14.9893 16.9236 16.6047 16.9236Z" fill="#35C9AD"/>
<path id="Vector_15" d="M15.9345 15.1108L15.2917 14.5877C15.2002 14.5133 15.1864 14.3787 15.2608 14.2871C15.3354 14.1956 15.4699 14.1818 15.5614 14.2563L16.0473 14.6516L17.6248 12.9175C17.7042 12.8302 17.8394 12.8239 17.9266 12.9033C18.0139 12.9826 18.0203 13.1178 17.9409 13.2051L16.2273 15.0888C16.1854 15.135 16.0341 15.1704 15.9345 15.1108Z" fill="white"/>
</g>
<g id="Group_14">
<path id="Vector_16" d="M3.39575 16.9236C5.0112 16.9236 6.32079 15.6163 6.32079 14.0038C6.32079 12.3912 5.0112 11.084 3.39575 11.084C1.78029 11.084 0.470703 12.3912 0.470703 14.0038C0.470703 15.6163 1.78029 16.9236 3.39575 16.9236Z" fill="#FFD085"/>
<path id="Vector_17" d="M3.56484 13.7754V13.0775C3.70586 13.1064 3.84014 13.1686 3.95561 13.259C3.98458 13.2794 4.01843 13.2903 4.0539 13.2909C4.16394 13.2909 4.25441 13.1992 4.25561 13.0864C4.25582 13.0368 4.23723 12.99 4.20176 12.9533C4.02313 12.7966 3.79702 12.7007 3.56283 12.6821V12.4548C3.56283 12.3702 3.49578 12.3014 3.41668 12.3014C3.33155 12.2934 3.25411 12.3677 3.25454 12.4548V12.6738C2.79309 12.7161 2.47283 13.0191 2.47283 13.4168C2.47283 13.8928 2.84048 14.0402 3.25454 14.156V14.9566C3.06659 14.9257 2.89116 14.8436 2.74518 14.7179C2.71202 14.6909 2.67022 14.6754 2.62527 14.6745C2.51749 14.6822 2.43415 14.7749 2.43556 14.8853C2.43535 14.9348 2.4539 14.9816 2.48894 15.0179C2.70078 15.2133 2.97257 15.3283 3.25659 15.3432V15.5529C3.25561 15.638 3.33244 15.7126 3.41484 15.7065C3.49757 15.7065 3.56484 15.6376 3.56484 15.5529V15.3382C4.1483 15.2896 4.35689 14.9023 4.35689 14.5527C4.35693 14.0456 3.95142 13.8838 3.56484 13.7754ZM3.93078 14.5993C3.93078 14.7476 3.83398 14.9178 3.56488 14.9612V14.2505C3.78706 14.3185 3.93257 14.4068 3.93078 14.5993ZM3.25659 13.0603V13.6935C3.05415 13.631 2.90309 13.5643 2.90309 13.3915C2.90309 13.2138 3.04091 13.0858 3.25659 13.0603Z" fill="white"/>
</g>
</g>
</g>
</g>
<defs>
<clipPath id="clip0_3796_3165">
<rect width="20" height="20" fill="white" transform="translate(0 0.5)"/>
</clipPath>
</defs>
</svg>
