<svg width="28" height="28" viewBox="0 0 28 28" fill="none" xmlns="http://www.w3.org/2000/svg">
<g id="bx:money-withdraw">
<path id="Vector" d="M17.5 14.0001C17.5 16.1467 16.4967 16.3334 16.3333 16.3334L16.3333 18.6667C17.4067 18.6667 19.3083 17.8967 19.74 15.1667L21 15.1667L21 12.8334L19.74 12.8334C19.3433 10.5001 17.8383 9.33341 16.3333 9.33341C15.0267 9.33341 12.8333 9.94008 12.8333 14.0001C12.8333 16.3334 12.0983 16.3334 11.6667 16.3334C11.235 16.3334 10.5 15.5167 10.5 14.0001C10.5 12.4834 11.2467 12.3784 11.6667 12.3667L11.6667 10.0334C10.8719 10.0492 10.1061 10.335 9.49545 10.844C8.88476 11.3529 8.4655 12.0545 8.30667 12.8334L7 12.8334L7 15.1667L8.27167 15.1667C8.65667 17.5001 10.1617 18.6667 11.6667 18.6667C12.9733 18.6667 15.1667 18.0601 15.1667 14.0001C15.1667 11.6667 15.96 11.6667 16.3333 11.6667C16.7067 11.6667 17.5 12.3901 17.5 14.0001Z" fill="#ECA100"/>
<path id="Vector_2" d="M2.3335 22.1667L2.3335 25.6667L4.66683 25.6667L4.66683 23.3334L24.5002 23.3334C24.8096 23.3334 25.1063 23.2105 25.3251 22.9917C25.5439 22.7729 25.6668 22.4762 25.6668 22.1667L25.6668 5.83341C25.6668 5.52399 25.5439 5.22725 25.3251 5.00845C25.1063 4.78966 24.8096 4.66675 24.5002 4.66675L4.66683 4.66675L4.66683 2.33341L2.3335 2.33341L2.3335 22.1667ZM23.3335 7.00008L23.3335 21.0001L4.66683 21.0001L4.66683 7.00008L23.3335 7.00008Z" fill="#ECA100"/>
</g>
</svg>
