<svg width="16" height="16" viewBox="0 0 16 16" fill="none" xmlns="http://www.w3.org/2000/svg">
<path d="M8.00016 1.36035C4.3335 1.36035 1.3335 4.35369 1.3335 8.04035C1.3335 11.3737 3.7735 14.1404 6.96016 14.6404V9.97369H5.26683V8.04035H6.96016V6.56702C6.96016 4.89369 7.9535 3.97369 9.48016 3.97369C10.2068 3.97369 10.9668 4.10035 10.9668 4.10035V5.74702H10.1268C9.30016 5.74702 9.04016 6.26035 9.04016 6.78702V8.04035H10.8935L10.5935 9.97369H9.04016V14.6404C10.6111 14.3922 12.0416 13.5907 13.0734 12.3804C14.1053 11.1701 14.6704 9.63078 14.6668 8.04035C14.6668 4.35369 11.6668 1.36035 8.00016 1.36035Z" fill="#1455AC"/>
</svg>
