<svg width="16" height="15" viewBox="0 0 16 15" fill="none" xmlns="http://www.w3.org/2000/svg">
<g id="Group 1597886025">
<g id="Group 1597886024">
<path id="Vector" opacity="0.2" d="M10.6579 0.5H5.34213C5.26553 0.5 5.18967 0.515088 5.1189 0.544404C5.04812 0.573719 4.98382 0.616687 4.92965 0.670855L1.17085 4.42965C1.11669 4.48382 1.07372 4.54812 1.0444 4.6189C1.01509 4.68967 1 4.76553 1 4.84213V10.1579C1 10.2345 1.01509 10.3103 1.0444 10.3811C1.07372 10.4519 1.11669 10.5162 1.17085 10.5703L4.92965 14.3291C4.98382 14.3833 5.04812 14.4263 5.1189 14.4556C5.18967 14.4849 5.26553 14.5 5.34213 14.5H10.6579C10.7345 14.5 10.8103 14.4849 10.8811 14.4556C10.9519 14.4263 11.0162 14.3833 11.0703 14.3291L14.8291 10.5703C14.8833 10.5162 14.9263 10.4519 14.9556 10.3811C14.9849 10.3103 15 10.2345 15 10.1579V4.84213C15 4.76553 14.9849 4.68967 14.9556 4.6189C14.9263 4.54812 14.8833 4.48382 14.8291 4.42965L11.0703 0.670855C11.0162 0.616687 10.9519 0.573719 10.8811 0.544404C10.8103 0.515088 10.7345 0.5 10.6579 0.5Z" fill="#E64545"/>
<path id="Vector_2" d="M8 4V8.08333" stroke="#E64545" stroke-linecap="round" stroke-linejoin="round"/>
<path id="Vector_3" d="M10.6579 0.5H5.34213C5.26553 0.5 5.18967 0.515088 5.1189 0.544404C5.04812 0.573719 4.98382 0.616687 4.92965 0.670855L1.17085 4.42965C1.11669 4.48382 1.07372 4.54812 1.0444 4.6189C1.01509 4.68967 1 4.76553 1 4.84213V10.1579C1 10.2345 1.01509 10.3103 1.0444 10.3811C1.07372 10.4519 1.11669 10.5162 1.17085 10.5703L4.92965 14.3291C4.98382 14.3833 5.04812 14.4263 5.1189 14.4556C5.18967 14.4849 5.26553 14.5 5.34213 14.5H10.6579C10.7345 14.5 10.8103 14.4849 10.8811 14.4556C10.9519 14.4263 11.0162 14.3833 11.0703 14.3291L14.8291 10.5703C14.8833 10.5162 14.9263 10.4519 14.9556 10.3811C14.9849 10.3103 15 10.2345 15 10.1579V4.84213C15 4.76553 14.9849 4.68967 14.9556 4.6189C14.9263 4.54812 14.8833 4.48382 14.8291 4.42965L11.0703 0.670855C11.0162 0.616687 10.9519 0.573719 10.8811 0.544404C10.8103 0.515088 10.7345 0.5 10.6579 0.5Z" stroke="#E64545" stroke-miterlimit="10"/>
<path id="Vector_4" d="M8 11.5835C8.48325 11.5835 8.875 11.1917 8.875 10.7085C8.875 10.2252 8.48325 9.8335 8 9.8335C7.51675 9.8335 7.125 10.2252 7.125 10.7085C7.125 11.1917 7.51675 11.5835 8 11.5835Z" fill="#E64545"/>
</g>
</g>
</svg>
