<svg width="63" height="62" viewBox="0 0 63 62" fill="none" xmlns="http://www.w3.org/2000/svg">
<path d="M31.5 62C48.6202 62 62.5 48.1202 62.5 31C62.5 13.8798 48.6202 0 31.5 0C14.3798 0 0.5 13.8798 0.5 31C0.5 48.1202 14.3798 62 31.5 62ZM28.0658 15.0084C28.0658 14.0975 28.4276 13.224 29.0716 12.58C29.7157 11.936 30.5892 11.5741 31.5 11.5741C32.4108 11.5741 33.2843 11.936 33.9284 12.58C34.5724 13.224 34.9342 14.0975 34.9342 15.0084V36.6914C34.9344 37.1425 34.8457 37.5892 34.6732 38.006C34.5006 38.4228 34.2477 38.8015 33.9288 39.1206C33.6099 39.4396 33.2312 39.6926 32.8145 39.8653C32.3978 40.038 31.9511 40.1268 31.5 40.1268C31.0489 40.1268 30.6022 40.038 30.1855 39.8653C29.7688 39.6926 29.3901 39.4396 29.0712 39.1206C28.7523 38.8015 28.4994 38.4228 28.3268 38.006C28.1543 37.5892 28.0656 37.1425 28.0658 36.6914V15.0084ZM28.0755 45.6766C28.1561 45.2995 28.3441 44.9538 28.6168 44.6812C28.8894 44.4086 29.2351 44.2206 29.6121 44.1399C30.8634 43.9478 32.1366 43.9478 33.3879 44.1399C33.7649 44.2206 34.1106 44.4086 34.3832 44.6812C34.6559 44.9538 34.8439 45.2995 34.9245 45.6766C35.1167 46.9274 35.1167 48.2002 34.9245 49.4511C34.8443 49.8283 34.6564 50.1742 34.3837 50.4469C34.111 50.7196 33.7651 50.9075 33.3879 50.9877C32.1367 51.1815 30.8633 51.1815 29.6121 50.9877C29.2349 50.9075 28.889 50.7196 28.6163 50.4469C28.3436 50.1742 28.1557 49.8283 28.0755 49.4511C27.8833 48.2002 27.8833 46.9274 28.0755 45.6766Z" fill="#F1695F"/>
</svg>
