<svg width="13" height="11" viewBox="0 0 13 11" fill="none" xmlns="http://www.w3.org/2000/svg">
<path d="M6.92188 7.66666H3.26563C3.10401 7.66666 2.94902 7.72373 2.83474 7.82531C2.72046 7.9269 2.65626 8.06467 2.65626 8.20833C2.65626 8.35199 2.72046 8.48976 2.83474 8.59135C2.94902 8.69293 3.10401 8.75 3.26563 8.75H6.92188C7.0835 8.75 7.23849 8.69293 7.35277 8.59135C7.46705 8.48976 7.53126 8.35199 7.53126 8.20833C7.53126 8.06467 7.46705 7.9269 7.35277 7.82531C7.23849 7.72373 7.0835 7.66666 6.92188 7.66666ZM4.48438 4.41666H5.70313C5.86475 4.41666 6.01974 4.35959 6.13402 4.25801C6.2483 4.15643 6.31251 4.01866 6.31251 3.875C6.31251 3.73134 6.2483 3.59356 6.13402 3.49198C6.01974 3.3904 5.86475 3.33333 5.70313 3.33333H4.48438C4.32276 3.33333 4.16777 3.3904 4.05349 3.49198C3.93921 3.59356 3.87501 3.73134 3.87501 3.875C3.87501 4.01866 3.93921 4.15643 4.05349 4.25801C4.16777 4.35959 4.32276 4.41666 4.48438 4.41666ZM11.7969 5.5H9.96876V0.624996C9.96918 0.529549 9.94123 0.435697 9.88772 0.352942C9.83422 0.270187 9.75706 0.20147 9.66407 0.153746C9.57143 0.106205 9.46635 0.0811768 9.35938 0.0811768C9.25241 0.0811768 9.14733 0.106205 9.05469 0.153746L7.22657 1.08541L5.39844 0.153746C5.30581 0.106205 5.20072 0.0811768 5.09376 0.0811768C4.98679 0.0811768 4.8817 0.106205 4.78907 0.153746L2.96094 1.08541L1.13282 0.153746C1.04018 0.106205 0.935098 0.0811768 0.82813 0.0811768C0.721162 0.0811768 0.616079 0.106205 0.523442 0.153746C0.430449 0.20147 0.353294 0.270187 0.299788 0.352942C0.246283 0.435697 0.218329 0.529549 0.218755 0.624996V9.29166C0.218755 9.72264 0.41136 10.136 0.7542 10.4407C1.09704 10.7455 1.56203 10.9167 2.04688 10.9167H10.5781C11.063 10.9167 11.528 10.7455 11.8708 10.4407C12.2137 10.136 12.4063 9.72264 12.4063 9.29166V6.04166C12.4063 5.898 12.3421 5.76023 12.2278 5.65865C12.1135 5.55707 11.9585 5.5 11.7969 5.5ZM2.04688 9.83333C1.88526 9.83333 1.73027 9.77626 1.61599 9.67468C1.50171 9.5731 1.4375 9.43532 1.4375 9.29166V1.56208L2.65626 2.17958C2.7503 2.22324 2.85484 2.24605 2.96094 2.24605C3.06705 2.24605 3.17158 2.22324 3.26563 2.17958L5.09376 1.24791L6.92188 2.17958C7.01593 2.22324 7.12046 2.24605 7.22657 2.24605C7.33267 2.24605 7.43721 2.22324 7.53126 2.17958L8.75001 1.56208V9.29166C8.75165 9.47645 8.78875 9.65963 8.85969 9.83333H2.04688ZM11.1875 9.29166C11.1875 9.43532 11.1233 9.5731 11.009 9.67468C10.8947 9.77626 10.7397 9.83333 10.5781 9.83333C10.4165 9.83333 10.2615 9.77626 10.1472 9.67468C10.033 9.5731 9.96876 9.43532 9.96876 9.29166V6.58333H11.1875V9.29166ZM6.92188 5.5H3.26563C3.10401 5.5 2.94902 5.55707 2.83474 5.65865C2.72046 5.76023 2.65626 5.898 2.65626 6.04166C2.65626 6.18532 2.72046 6.3231 2.83474 6.42468C2.94902 6.52626 3.10401 6.58333 3.26563 6.58333H6.92188C7.0835 6.58333 7.23849 6.52626 7.35277 6.42468C7.46705 6.3231 7.53126 6.18532 7.53126 6.04166C7.53126 5.898 7.46705 5.76023 7.35277 5.65865C7.23849 5.55707 7.0835 5.5 6.92188 5.5Z" fill="currentColor"/>
</svg>
