<svg width="14" height="15" viewBox="0 0 14 15" fill="none" xmlns="http://www.w3.org/2000/svg">
    <g clip-path="url(#clip0_10110_6239)">
        <path d="M0.68973 6.18108C0.889813 5.45192 1.38156 4.83067 2.06348 4.47483L2.6579 4.22108C2.77165 5.19642 3.20623 6.10117 3.91965 6.814L4.9889 7.85992C5.52673 8.3855 6.24073 8.67542 6.99965 8.67542C7.75856 8.67542 8.47315 8.3855 9.01098 7.85992L10.0931 6.80117C10.8001 6.09475 11.2329 5.18767 11.3443 4.20825C11.3443 4.20825 11.9154 4.44625 11.9271 4.4515C12.7589 4.86625 13.3195 5.66367 13.428 6.58533L13.5691 7.78292L6.20923 11.1919L0.68973 6.18108ZM13.7115 9.00325L7.14606 12.0442L9.84923 14.4994H11.2761C12.0577 14.4994 12.8044 14.1646 13.3236 13.5801C13.8433 12.9962 14.0889 12.2157 13.9979 11.4387L13.7115 9.00325ZM0.490813 7.57583L0.0363964 11.4387C-0.055187 12.2151 0.190396 12.9962 0.710146 13.5801C1.2299 14.1646 1.97598 14.4994 2.75765 14.4994H8.11498L0.490813 7.57583ZM10.208 3.70775C10.208 4.56525 9.87431 5.37083 9.26823 5.97633L8.1949 7.02692C7.86531 7.3495 7.43248 7.50992 6.99965 7.50992C6.56681 7.50992 6.13456 7.3495 5.80498 7.02692L4.73573 5.981C4.12498 5.37083 3.79131 4.56467 3.79131 3.70833C3.79131 2.852 4.12498 2.04525 4.73106 1.43975C5.33715 0.833667 6.14273 0.5 6.99965 0.5C7.85656 0.5 8.66215 0.833667 9.26823 1.43975C9.87431 2.04583 10.208 2.85083 10.208 3.70775ZM7.87465 3.70425C7.87465 3.22125 7.48265 2.82925 6.99965 2.82925C6.51665 2.82925 6.12465 3.22125 6.12465 3.70425C6.12465 4.18725 6.51665 4.57925 6.99965 4.57925C7.48265 4.57925 7.87465 4.18725 7.87465 3.70425Z" fill="#0461A5"/>
    </g>
    <defs>
        <clipPath id="clip0_10110_6239">
            <rect width="14" height="14" fill="white" transform="translate(0 0.5)"/>
        </clipPath>
    </defs>
</svg>
