<svg width="62" height="45" viewBox="0 0 62 45" fill="none" xmlns="http://www.w3.org/2000/svg">
<g clip-path="url(#clip0_12450_7389)">
<path d="M26.6667 0H13.3333C11.124 0.00264643 9.00593 0.88147 7.4437 2.4437C5.88147 4.00593 5.00265 6.12401 5 8.33333V38.3333C5.00023 38.6365 5.08314 38.9338 5.2398 39.1933C5.39646 39.4529 5.62094 39.6648 5.88906 39.8062C6.15719 39.9476 6.45881 40.0133 6.76147 39.996C7.06412 39.9788 7.35634 39.8793 7.60667 39.7083L11.1167 37.31L14.6267 39.7083C14.904 39.8982 15.2322 39.9998 15.5683 39.9998C15.9044 39.9998 16.2327 39.8982 16.51 39.7083L20.01 37.31L23.51 39.7083C23.7875 39.8986 24.1161 40.0004 24.4525 40.0004C24.7889 40.0004 25.1175 39.8986 25.395 39.7083L28.895 37.3117L32.395 39.7067C32.6452 39.8771 32.9371 39.9762 33.2393 39.9933C33.5416 40.0103 33.8428 39.9448 34.1106 39.8036C34.3784 39.6624 34.6027 39.4509 34.7594 39.1919C34.9161 38.9329 34.9993 38.6361 35 38.3333V8.33333C34.9974 6.12401 34.1185 4.00593 32.5563 2.4437C30.9941 0.88147 28.876 0.00264643 26.6667 0ZM31.6667 35.1667L29.8333 33.9133C29.5557 33.7227 29.2268 33.6207 28.89 33.6207C28.5532 33.6207 28.2243 33.7227 27.9467 33.9133L24.4467 36.3117L20.9467 33.9133C20.6692 33.7231 20.3406 33.6212 20.0042 33.6212C19.6677 33.6212 19.3392 33.7231 19.0617 33.9133L15.5617 36.3117L12.0617 33.9133C11.7845 33.7238 11.4566 33.6224 11.1208 33.6224C10.7851 33.6224 10.4571 33.7238 10.18 33.9133L8.33333 35.1667V8.33333C8.33333 7.00725 8.86012 5.73548 9.7978 4.7978C10.7355 3.86012 12.0073 3.33333 13.3333 3.33333H26.6667C27.9927 3.33333 29.2645 3.86012 30.2022 4.7978C31.1399 5.73548 31.6667 7.00725 31.6667 8.33333V35.1667Z" fill="#DFE0E5"/>
<path d="M26.6665 13.3333H13.3332C12.4127 13.3333 11.6665 14.0795 11.6665 15C11.6665 15.9205 12.4127 16.6666 13.3332 16.6666H26.6665C27.587 16.6666 28.3332 15.9205 28.3332 15C28.3332 14.0795 27.587 13.3333 26.6665 13.3333Z" fill="#DFE0E5"/>
<path d="M23.3332 20H13.3332C12.4127 20 11.6665 20.7462 11.6665 21.6667C11.6665 22.5871 12.4127 23.3333 13.3332 23.3333H23.3332C24.2536 23.3333 24.9998 22.5871 24.9998 21.6667C24.9998 20.7462 24.2536 20 23.3332 20Z" fill="#DFE0E5"/>
</g>
<g clip-path="url(#clip1_12450_7389)">
<path d="M53.1153 36.6725C53.4896 36.2982 53.4896 35.6914 53.1153 35.3172L51.4212 33.6231L53.1153 31.9289C53.4896 31.5547 53.4896 30.9479 53.1153 30.5737C52.7411 30.1994 52.1343 30.1994 51.7601 30.5737L50.0659 32.2678L48.3718 30.5737C47.9976 30.1994 47.3908 30.1994 47.0165 30.5737C46.6423 30.9479 46.6423 31.5547 47.0165 31.9289L48.7106 33.6231L47.0165 35.3172C46.6423 35.6914 46.6423 36.2982 47.0165 36.6725C47.3908 37.0467 47.9976 37.0467 48.3718 36.6725L50.0659 34.9783L51.7601 36.6725C52.1343 37.0467 52.7411 37.0467 53.1153 36.6725Z" fill="#DFE0E5"/>
<path fill-rule="evenodd" clip-rule="evenodd" d="M43.6949 26.7716C47.3383 23.1282 53.2454 23.1282 56.8888 26.7716C60.3033 30.1862 60.5178 35.5891 57.532 39.2534C53.8732 43.7436 47.1095 43.3799 43.6949 39.9654C40.0516 36.322 40.0516 30.415 43.6949 26.7716ZM55.5335 28.1269C52.6385 25.232 47.9451 25.232 45.0502 28.1269C42.1554 31.0217 42.1554 35.7152 45.0502 38.6101C47.9451 41.505 52.6385 41.505 55.5335 38.6101C58.4283 35.7152 58.4283 31.0217 55.5335 28.1269Z" fill="#DFE0E5"/>
</g>
<defs>
<clipPath id="clip0_12450_7389">
<rect width="40" height="40" fill="white"/>
</clipPath>
<clipPath id="clip1_12450_7389">
<rect width="21" height="21" fill="white" transform="translate(40.0444 23.125)"/>
</clipPath>
</defs>
</svg>
