<svg width="30" height="30" viewBox="0 0 30 30" fill="none" xmlns="http://www.w3.org/2000/svg">
<g id="fi_9710836" clip-path="url(#clip0_3896_14205)">
<g id="Group">
<path id="Vector" fill-rule="evenodd" clip-rule="evenodd" d="M4.11699 0.878906H10.932C12.7124 0.878906 14.1623 2.32881 14.1623 4.10918V10.9242C14.1623 12.7046 12.7124 14.1545 10.932 14.1545H4.11699C2.33662 14.1545 0.886719 12.7046 0.886719 10.9242V4.10918C0.886719 2.32881 2.33662 0.878906 4.11699 0.878906Z" fill="#FD4755"/>
<path id="Vector_2" fill-rule="evenodd" clip-rule="evenodd" d="M19.0818 15.8457H25.8969C27.6772 15.8457 29.1271 17.2956 29.1271 19.076V25.891C29.1271 27.6714 27.6772 29.1213 25.8969 29.1213H19.0818C17.3015 29.1213 15.8516 27.6714 15.8516 25.891V19.076C15.8516 17.2955 17.3015 15.8457 19.0818 15.8457Z" fill="#FFB229"/>
<path id="Vector_3" fill-rule="evenodd" clip-rule="evenodd" d="M18.2629 3.28835C20.5979 0.953332 24.3833 0.953391 26.7183 3.28835C29.0532 5.62331 29.0532 9.4087 26.7183 11.7437C24.3833 14.0786 20.5979 14.0787 18.2629 11.7437C15.928 9.4087 15.928 5.62337 18.2629 3.28835Z" fill="#00E499"/>
<path id="Vector_4" fill-rule="evenodd" clip-rule="evenodd" d="M9.52604 17.5758L13.8561 25.0757C14.7633 26.6444 13.6036 28.5485 11.8537 28.5485H3.19352C1.40946 28.5485 0.290905 26.5976 1.19108 25.0757L5.52116 17.5758C6.40798 16.042 8.62639 16.0221 9.52604 17.5758Z" fill="#60B7FF"/>
<path id="Vector_5" fill-rule="evenodd" clip-rule="evenodd" d="M4.11664 0.878906H10.9317C12.7121 0.878906 14.162 2.32881 14.162 4.10918V10.9242C14.162 12.3263 13.2628 13.5231 12.0112 13.9686C12.4759 13.4089 12.7557 12.6907 12.7557 11.9086V5.09355C12.7557 3.31318 11.3058 1.86328 9.52543 1.86328H2.71039C2.33199 1.86328 1.96865 1.92896 1.63086 2.0492C2.224 1.33482 3.11832 0.878906 4.11664 0.878906Z" fill="#E4404D"/>
<path id="Vector_6" fill-rule="evenodd" clip-rule="evenodd" d="M19.0834 15.8457H25.8984C27.6788 15.8457 29.1287 17.2956 29.1287 19.076V25.891C29.1287 27.293 28.2295 28.4898 26.978 28.9354C27.4426 28.3757 27.7225 27.6574 27.7225 26.8754V20.0604C27.7225 18.28 26.2726 16.8301 24.4922 16.8301H17.6772C17.2988 16.8301 16.9354 16.8958 16.5977 17.016C17.1908 16.3016 18.0851 15.8457 19.0834 15.8457Z" fill="#E6A025"/>
<path id="Vector_7" fill-rule="evenodd" clip-rule="evenodd" d="M18.3984 3.15719C20.7421 0.954356 24.4278 0.997833 26.7181 3.2882C29.0531 5.62316 29.0531 9.40856 26.7181 11.7435C26.2539 12.2077 25.7323 12.5792 25.1763 12.8588C25.222 12.816 25.2673 12.7725 25.3119 12.7279C27.6468 10.3929 27.6468 6.6076 25.3119 4.27258C23.4411 2.4018 20.6394 2.0302 18.3984 3.15719Z" fill="#00CD8A"/>
<path id="Vector_8" fill-rule="evenodd" clip-rule="evenodd" d="M9.52684 17.5756L13.8569 25.0755C14.6695 26.4807 13.8237 28.1546 12.3808 28.4885C12.8329 27.8036 12.9281 26.8854 12.4507 26.0599L8.12059 18.56C7.56945 17.6082 6.52344 17.2472 5.5918 17.4627C6.5201 16.0421 8.64992 16.0612 9.52684 17.5756Z" fill="#56A5E6"/>
</g>
</g>
<defs>
<clipPath id="clip0_3896_14205">
<rect width="30" height="30" fill="white"/>
</clipPath>
</defs>
</svg>
