<svg width="30" height="30" viewBox="0 0 30 30" fill="none" xmlns="http://www.w3.org/2000/svg">
<g id="fi_7871395">
<g id="Group">
<g id="Group_2">
<path id="Vector" fill-rule="evenodd" clip-rule="evenodd" d="M9.96668 22.1891C13.0611 21.392 13.9288 24.5069 13.9288 24.5069L11.8073 29.0637L10.4079 26.6554L7.66406 27.1348L9.96668 22.1891Z" fill="#FE646F"/>
<path id="Vector_2" fill-rule="evenodd" clip-rule="evenodd" d="M9.96662 22.1887C10.4756 22.0576 10.9239 22.0328 11.3185 22.0821C11.1384 22.1029 10.9496 22.1377 10.7517 22.1887L8.51859 26.9851L7.66406 27.1344L9.96662 22.1887ZM12.1564 28.3133L11.1205 26.5306L10.4078 26.6551L11.8072 29.0633L12.1564 28.3133Z" fill="#FD4755"/>
<path id="Vector_3" fill-rule="evenodd" clip-rule="evenodd" d="M20.0324 22.1891C16.938 21.392 16.0703 24.5069 16.0703 24.5069L18.1918 29.0637L19.5913 26.6554L22.3351 27.1348L20.0324 22.1891Z" fill="#FE646F"/>
<path id="Vector_4" fill-rule="evenodd" clip-rule="evenodd" d="M20.0316 22.1887C19.5227 22.0576 19.0743 22.0328 18.6797 22.0821C18.8599 22.1029 19.0486 22.1377 19.2466 22.1887L21.4797 26.9851L22.3342 27.1344L20.0316 22.1887ZM17.8418 28.3133L18.8777 26.5306L19.5904 26.6551L18.191 29.0633L17.8418 28.3133Z" fill="#FD4755"/>
<path id="Vector_5" fill-rule="evenodd" clip-rule="evenodd" d="M14.9994 24.4704C15.4096 24.4704 16.8668 25.9951 17.7056 25.6898C18.5444 25.3845 18.6807 23.2798 18.995 23.0161C19.3092 22.7525 21.4056 22.9838 21.8519 22.2107C22.2983 21.4376 21.0498 19.7378 21.121 19.3338C21.1922 18.9298 22.9468 17.7595 22.7918 16.8804C22.6368 16.0013 20.5878 15.5017 20.3827 15.1464C20.1777 14.7912 20.7694 12.7668 20.0856 12.193C19.4018 11.6192 17.511 12.5535 17.1254 12.4132C16.74 12.2729 15.8921 10.3418 14.9995 10.3418C14.1068 10.3418 13.259 12.2729 12.8734 12.4132C12.488 12.5534 10.5971 11.6191 9.91329 12.1929C9.22944 12.7668 9.8213 14.7911 9.6161 15.1464C9.41102 15.5015 7.36194 16.0012 7.20696 16.8803C7.05192 17.7594 8.80657 18.9297 8.87776 19.3338C8.94889 19.7377 7.7005 21.4376 8.1468 22.2106C8.59311 22.9837 10.6894 22.7524 11.0038 23.0162C11.3179 23.2798 11.4542 25.3845 12.293 25.6898C13.1319 25.9951 14.5891 24.4704 14.9994 24.4704Z" fill="#FFE177"/>
<path id="Vector_6" fill-rule="evenodd" clip-rule="evenodd" d="M17.0238 25.6416C17.2714 25.7313 17.5064 25.7626 17.7064 25.6898C18.5452 25.3845 18.6814 23.2799 18.9958 23.0162C19.31 22.7526 21.4063 22.9838 21.8526 22.2108C22.2989 21.4376 21.0505 19.7379 21.1217 19.3338C21.193 18.9299 22.9476 17.7595 22.7925 16.8805C22.6376 16.0013 20.5885 15.5017 20.3834 15.1464C20.1784 14.7912 20.7701 12.7668 20.0863 12.1931C19.8367 11.9836 19.4263 11.9752 18.9869 12.042C19.1075 12.0715 19.2142 12.12 19.3013 12.1931C19.9851 12.7668 19.3933 14.7912 19.5984 15.1464C19.8036 15.5017 21.8525 16.0013 22.0075 16.8805C22.1625 17.7595 20.4079 18.9299 20.3367 19.3338C20.2654 19.7379 21.5139 21.4377 21.0675 22.2108C20.6213 22.9838 18.5249 22.7526 18.2107 23.0162C17.9096 23.2688 17.7719 25.2098 17.0238 25.6416ZM17.1262 12.4133C16.8225 12.4918 16.5797 12.5432 16.4666 12.502C16.1384 12.3826 15.349 10.8751 14.6077 10.4572C14.7367 10.3845 14.8679 10.3418 15.0002 10.3418C15.8929 10.3418 16.7408 12.273 17.1262 12.4133ZM12.1914 25.6416C12.2244 25.6606 12.2584 25.6769 12.2938 25.6898C13.1327 25.9951 14.5898 24.4705 15.0002 24.4705C14.8321 24.3631 14.6957 24.2927 14.6077 24.2927C14.2952 24.2928 12.9828 25.3549 12.1914 25.6416Z" fill="#FFC338"/>
<path id="Vector_7" d="M16.0054 22.2818C18.3549 21.7264 19.8093 19.3716 19.2539 17.0222C18.6985 14.6727 16.3437 13.2183 13.9943 13.7737C11.6448 14.3291 10.1904 16.6839 10.7458 19.0333C11.3012 21.3828 13.656 22.8372 16.0054 22.2818Z" fill="#60B7FF"/>
<path id="Vector_8" fill-rule="evenodd" clip-rule="evenodd" d="M14.9989 13.6641C14.918 13.6641 14.8376 13.6665 14.7578 13.6708C17.0603 13.796 18.8888 15.7024 18.8888 18.0362C18.8888 20.3699 17.0603 22.2763 14.7578 22.4015C14.8377 22.4058 14.918 22.4082 14.9989 22.4082C17.4136 22.4082 19.371 20.4508 19.371 18.0362C19.371 15.6215 17.4136 13.6641 14.9989 13.6641Z" fill="#41A8FC"/>
<path id="Vector_9" fill-rule="evenodd" clip-rule="evenodd" d="M12.3851 18.8369C12.0852 18.5371 12.0852 18.0509 12.3851 17.751C12.685 17.4511 13.1712 17.4511 13.471 17.751L14.1446 18.4247L16.5294 16.0188C16.8276 15.7189 17.3125 15.7175 17.6123 16.0158C17.9122 16.314 17.9136 16.7989 17.6153 17.0987C16.1491 18.5795 16.162 18.5817 14.6887 20.0548C14.3889 20.3547 13.9027 20.3547 13.6028 20.0548L12.3851 18.8369Z" fill="#ECEFF1"/>
</g>
<g id="Group_3">
<path id="Vector_10" fill-rule="evenodd" clip-rule="evenodd" d="M15.1286 1.02727L15.7966 2.78678C15.8167 2.83969 15.8635 2.87361 15.9199 2.87637L17.7997 2.96795C17.8586 2.97082 17.9071 3.00791 17.9253 3.06398C17.9435 3.12006 17.9261 3.17853 17.8801 3.21545L16.4132 4.39453C16.3691 4.42998 16.3512 4.48494 16.3661 4.53949L16.8598 6.35561C16.8753 6.4125 16.855 6.47004 16.8073 6.50473C16.7596 6.53941 16.6986 6.54088 16.6493 6.50859L15.0747 5.47781C15.0273 5.44682 14.9695 5.44682 14.9222 5.47781L13.3476 6.50859C13.2982 6.54088 13.2372 6.53941 13.1895 6.50473C13.1418 6.4701 13.1216 6.4125 13.137 6.35566L13.6307 4.53955C13.6456 4.485 13.6277 4.43004 13.5836 4.39459L12.1167 3.21545C12.0708 3.17853 12.0533 3.12 12.0716 3.06398C12.0898 3.00791 12.1383 2.97088 12.1972 2.96795L14.077 2.87637C14.1335 2.87361 14.1802 2.83963 14.2003 2.78678L14.8684 1.02727C14.8893 0.972129 14.9395 0.9375 14.9985 0.9375C15.0574 0.9375 15.1077 0.972129 15.1286 1.02727Z" fill="#FFE177"/>
<path id="Vector_11" fill-rule="evenodd" clip-rule="evenodd" d="M15.0753 5.4783C15.0284 5.44877 14.9717 5.44924 14.925 5.47977L13.3504 6.51055C13.3011 6.54283 13.2401 6.54137 13.1924 6.50668C13.1447 6.47205 13.1244 6.41445 13.1399 6.35762L13.2133 6.08768L14.5335 5.22348C14.5808 5.19248 14.6386 5.19248 14.6859 5.22348L15.0753 5.4783ZM17.4984 2.95514L17.8025 2.96996C17.8614 2.97283 17.9099 3.00992 17.9281 3.06594C17.9463 3.12201 17.9289 3.18049 17.8829 3.2174L16.416 4.39648C16.3719 4.43193 16.354 4.48689 16.3689 4.54145L16.8626 6.35756C16.8781 6.41439 16.8578 6.47199 16.8101 6.50662C16.7624 6.54131 16.7014 6.54277 16.6521 6.51049L16.2613 6.25467C16.3105 6.28643 16.3711 6.28479 16.4185 6.25033C16.4662 6.2157 16.4865 6.15811 16.471 6.10121L15.9773 4.2851C15.9625 4.23049 15.9803 4.17559 16.0244 4.14014L17.4984 2.95514ZM15.1314 1.02922L15.7994 2.78873C15.8195 2.84164 15.8663 2.87557 15.9228 2.87832H15.8334L15.6247 2.86812C15.5682 2.86537 15.5214 2.83145 15.5013 2.77854L14.8542 1.07404L14.8713 1.02922C14.8922 0.974082 14.9425 0.939453 15.0014 0.939453C15.0602 0.939453 15.1105 0.974082 15.1314 1.02922Z" fill="#FFC338"/>
</g>
<g id="Group_4">
<path id="Vector_12" fill-rule="evenodd" clip-rule="evenodd" d="M23.0583 5.44518L23.7263 7.20469C23.7464 7.2576 23.7931 7.29152 23.8496 7.29428L25.7294 7.38592C25.7883 7.38879 25.8368 7.42588 25.855 7.48189C25.8732 7.53797 25.8558 7.59644 25.8098 7.63336L24.3429 8.81244C24.2987 8.84789 24.2809 8.90285 24.2958 8.9574L24.7895 10.7735C24.8049 10.8304 24.7847 10.8879 24.737 10.9226C24.6893 10.9573 24.6283 10.9588 24.5789 10.9265L23.0043 9.89572C22.9569 9.86473 22.8992 9.86473 22.8518 9.89572L21.2773 10.9264C21.228 10.9587 21.167 10.9573 21.1193 10.9226C21.0716 10.8879 21.0513 10.8304 21.0668 10.7735L21.5605 8.9574C21.5753 8.90279 21.5575 8.84789 21.5134 8.81244L20.0464 7.63342C20.0005 7.5965 19.983 7.53803 20.0012 7.48195C20.0195 7.42588 20.068 7.38885 20.1269 7.38598L22.0067 7.29434C22.0632 7.29158 22.1099 7.2576 22.13 7.20475L22.798 5.44523C22.819 5.3901 22.8692 5.35547 22.9282 5.35547C22.9871 5.35541 23.0373 5.39004 23.0583 5.44518Z" fill="#FFE177"/>
<path id="Vector_13" fill-rule="evenodd" clip-rule="evenodd" d="M25.4281 7.37311L25.7322 7.38793C25.7911 7.3908 25.8396 7.42789 25.8578 7.48391C25.876 7.53998 25.8585 7.59846 25.8126 7.63543L24.3457 8.81451C24.3016 8.84996 24.2837 8.90492 24.2985 8.95947L24.7923 10.7756C24.8078 10.8325 24.7875 10.89 24.7398 10.9246C24.6921 10.9593 24.6311 10.9608 24.5818 10.9285L24.191 10.6727C24.2402 10.7045 24.3008 10.7028 24.3482 10.6684C24.3959 10.6337 24.4162 10.5761 24.4007 10.5192L23.907 8.70313C23.8921 8.64852 23.91 8.59361 23.9541 8.55816L25.4281 7.37311ZM23.005 9.89627C22.958 9.86674 22.9014 9.86721 22.8547 9.89773L21.2801 10.9285C21.2308 10.9608 21.1698 10.9593 21.1221 10.9246C21.0744 10.89 21.0541 10.8324 21.0696 10.7756L21.143 10.5056L22.4632 9.64145C22.5105 9.61045 22.5683 9.61045 22.6156 9.64145L23.005 9.89627ZM23.061 5.44719L23.7291 7.2067C23.7492 7.25961 23.7959 7.29354 23.8524 7.29629H23.7631L23.5543 7.28609C23.4978 7.28334 23.451 7.24936 23.4309 7.1965L22.7838 5.49201L22.8009 5.44719C22.8218 5.39205 22.8721 5.35742 22.931 5.35742C22.9899 5.35742 23.0401 5.39205 23.061 5.44719Z" fill="#FFC338"/>
</g>
<g id="Group_5">
<path id="Vector_14" fill-rule="evenodd" clip-rule="evenodd" d="M7.20083 5.44518L7.86886 7.20469C7.88896 7.2576 7.93572 7.29152 7.9922 7.29428L9.87201 7.38592C9.93089 7.38879 9.97935 7.42588 9.99757 7.48189C10.0158 7.53797 9.99834 7.59644 9.9524 7.63336L8.48544 8.81244C8.44132 8.84789 8.42351 8.90285 8.43833 8.9574L8.9321 10.7735C8.94757 10.8304 8.9273 10.8879 8.8796 10.9226C8.83191 10.9573 8.77091 10.9588 8.72158 10.9265L7.14693 9.89572C7.09959 9.86473 7.04181 9.86473 6.99447 9.89572L5.41988 10.9264C5.37054 10.9587 5.30955 10.9573 5.26185 10.9226C5.21416 10.8879 5.19388 10.8304 5.20935 10.7735L5.70306 8.9574C5.71794 8.90279 5.70007 8.84789 5.65595 8.81244L4.189 7.63342C4.14306 7.5965 4.1256 7.53803 4.14382 7.48195C4.16205 7.42588 4.21056 7.38885 4.26945 7.38598L6.14925 7.29434C6.2058 7.29158 6.2525 7.2576 6.27259 7.20475L6.94062 5.44523C6.96154 5.3901 7.01181 5.35547 7.07076 5.35547C7.1297 5.35541 7.17992 5.39004 7.20083 5.44518Z" fill="#FFE177"/>
<path id="Vector_15" fill-rule="evenodd" clip-rule="evenodd" d="M7.14755 9.89627C7.10068 9.86674 7.04396 9.86721 6.99732 9.89773L5.42267 10.9285C5.37333 10.9608 5.31234 10.9593 5.26464 10.9246C5.21694 10.89 5.19667 10.8324 5.21214 10.7756L5.28556 10.5056L6.60573 9.64145C6.65308 9.61045 6.71085 9.61045 6.75819 9.64145L7.14755 9.89627ZM9.57069 7.37311L9.87486 7.38793C9.93374 7.3908 9.98226 7.42789 10.0004 7.48391C10.0186 7.53998 10.0012 7.59846 9.95525 7.63543L8.48829 8.81451C8.44423 8.84996 8.42636 8.90492 8.44118 8.95947L8.93489 10.7756C8.95036 10.8325 8.93009 10.89 8.88239 10.9246C8.8347 10.9593 8.7737 10.9608 8.72437 10.9285L8.33355 10.6727C8.38277 10.7045 8.44335 10.7028 8.49081 10.6684C8.53851 10.6337 8.55878 10.5761 8.54331 10.5192L8.04954 8.70313C8.03472 8.64852 8.05253 8.59361 8.09665 8.55816L9.57069 7.37311ZM7.20368 5.44719L7.87171 7.2067C7.89181 7.25961 7.93857 7.29354 7.99505 7.29629H7.90569L7.69692 7.28609C7.64044 7.28334 7.59362 7.24936 7.57359 7.1965L6.92648 5.49201L6.94353 5.44719C6.96444 5.39205 7.01472 5.35742 7.07366 5.35742C7.13255 5.35742 7.18277 5.39205 7.20368 5.44719Z" fill="#FFC338"/>
</g>
</g>
</g>
</svg>
