<svg width="30" height="30" viewBox="0 0 30 30" fill="none" xmlns="http://www.w3.org/2000/svg">
<g id="fi_11866763">
<g id="crown">
<path id="Vector" d="M22.7002 23.3847L26.0246 11.3584L20.5777 14.4447C20.0124 14.7653 19.2943 14.5591 18.9849 13.9872L14.9996 6.625L11.0143 13.9862C10.7049 14.5572 9.9868 14.7634 9.42148 14.4437L3.97461 11.3575L7.29898 23.3847H22.7002Z" fill="#FFD731"/>
<path id="Vector_2" d="M26.0248 11.3535L22.6967 23.3816H18.9561C19.4876 22.4995 20.3014 20.8879 20.547 18.711C20.7457 16.9485 20.4954 15.4935 20.2592 14.5691C20.3717 14.5504 20.4748 14.5035 20.5779 14.4473L26.0248 11.3535Z" fill="#FFC933"/>
<path id="Vector_3" d="M25.3585 23.001C25.3585 23.7519 24.8475 24.4213 24.1163 24.5928C21.0854 25.3053 18.0375 25.6475 15 25.6475C11.9625 25.6475 8.91379 25.3053 5.88379 24.5928C5.15254 24.4213 4.6416 23.7519 4.6416 23.001C4.6416 21.9725 5.58566 21.1888 6.59066 21.4053C9.38816 22.0091 12.1988 22.3006 15 22.3006C17.8013 22.3006 20.6119 22.01 23.4094 21.4053C24.4144 21.1888 25.3585 21.9725 25.3585 23.001Z" fill="#FFD731"/>
<path id="Vector_4" d="M25.3594 23.0061C25.3594 23.7561 24.8437 24.4217 24.1125 24.5905C23.1375 24.8155 22.1625 25.0123 21.1875 25.1623C21.675 24.8248 21.975 24.2623 21.975 23.653C21.975 22.7998 21.3937 22.0967 20.625 21.8998C21.5531 21.7686 22.4812 21.6092 23.4094 21.403C24.4125 21.1873 25.3594 21.9748 25.3594 23.0061Z" fill="#FFC933"/>
<path id="Vector_5" d="M3.975 13.4559C5.1348 13.4559 6.075 12.5157 6.075 11.3559C6.075 10.1961 5.1348 9.25586 3.975 9.25586C2.8152 9.25586 1.875 10.1961 1.875 11.3559C1.875 12.5157 2.8152 13.4559 3.975 13.4559Z" fill="#FFD731"/>
<path id="Vector_6" d="M26.0248 13.4559C27.1846 13.4559 28.1248 12.5157 28.1248 11.3559C28.1248 10.1961 27.1846 9.25586 26.0248 9.25586C24.865 9.25586 23.9248 10.1961 23.9248 11.3559C23.9248 12.5157 24.865 13.4559 26.0248 13.4559Z" fill="#FFC933"/>
<path id="Vector_7" d="M15.0004 8.55156C16.1602 8.55156 17.1004 7.61136 17.1004 6.45156C17.1004 5.29176 16.1602 4.35156 15.0004 4.35156C13.8406 4.35156 12.9004 5.29176 12.9004 6.45156C12.9004 7.61136 13.8406 8.55156 15.0004 8.55156Z" fill="#FFD731"/>
<path id="Vector_8" d="M15.0001 19.9694C16.0895 19.9694 16.9726 18.9024 16.9726 17.5863C16.9726 16.2701 16.0895 15.2031 15.0001 15.2031C13.9107 15.2031 13.0276 16.2701 13.0276 17.5863C13.0276 18.9024 13.9107 19.9694 15.0001 19.9694Z" fill="#E96565"/>
<path id="Vector_9" d="M16.9689 17.5863C16.9689 18.8988 16.0877 19.9676 15.0002 19.9676C14.7752 19.9676 14.5689 19.9207 14.3721 19.8457C15.1502 19.527 15.7127 18.6363 15.7127 17.5863C15.7127 16.5363 15.1502 15.6457 14.3721 15.327C14.5689 15.252 14.7752 15.2051 15.0002 15.2051C16.0877 15.2051 16.9689 16.2738 16.9689 17.5863Z" fill="#E05353"/>
<g id="Group">
<path id="Vector_10" d="M7.8808 17.4797L7.1458 14.8219C7.08768 14.6109 6.86924 14.4825 6.65642 14.5453C6.44455 14.6044 6.31986 14.8228 6.37892 15.0347L7.11392 17.6925C7.16267 17.8687 7.32299 17.985 7.4983 17.985C7.53299 17.985 7.56861 17.9803 7.60424 17.97C7.81517 17.9109 7.93986 17.6925 7.8808 17.4797Z" fill="#FFE576"/>
<path id="Vector_11" d="M8.33912 19.135C8.28006 18.9222 8.06162 18.7956 7.84881 18.8575C7.63693 18.9166 7.51225 19.135 7.57131 19.3469L7.63975 19.5953C7.68849 19.7716 7.84881 19.8878 8.02412 19.8878C8.05881 19.8878 8.09537 19.8831 8.13006 19.8728C8.34193 19.8138 8.46662 19.5953 8.40756 19.3835L8.33912 19.135Z" fill="#FFE576"/>
<path id="Vector_12" d="M13.0836 13.8072C13.1436 13.8391 13.2092 13.855 13.2729 13.855C13.4145 13.855 13.5514 13.78 13.6236 13.646L14.2582 12.4741C14.3623 12.281 14.2911 12.0382 14.097 11.9341C13.902 11.831 13.662 11.9013 13.557 12.0954L12.9232 13.2672C12.8182 13.4594 12.8904 13.7013 13.0836 13.8072Z" fill="#FFE576"/>
</g>
</g>
</g>
</svg>
