<svg width="16" height="16" viewBox="0 0 16 16" fill="none" xmlns="http://www.w3.org/2000/svg">
<path d="M6.02683 14.3597C6.66683 14.553 7.3135 14.6663 8.00016 14.6663C9.76827 14.6663 11.464 13.964 12.7142 12.7137C13.9644 11.4635 14.6668 9.76778 14.6668 7.99967C14.6668 7.1242 14.4944 6.25729 14.1594 5.44845C13.8243 4.63961 13.3333 3.90469 12.7142 3.28563C12.0951 2.66657 11.3602 2.17551 10.5514 1.84048C9.74255 1.50545 8.87564 1.33301 8.00016 1.33301C7.12468 1.33301 6.25778 1.50545 5.44894 1.84048C4.6401 2.17551 3.90517 2.66657 3.28612 3.28563C2.03587 4.53587 1.3335 6.23156 1.3335 7.99967C1.3335 10.833 3.1135 13.2663 5.62683 14.2263C5.56683 13.7063 5.50683 12.8463 5.62683 12.253L6.3935 8.95967C6.3935 8.95967 6.20016 8.57301 6.20016 7.95967C6.20016 7.03967 6.7735 6.35301 7.42683 6.35301C8.00016 6.35301 8.26683 6.77301 8.26683 7.31301C8.26683 7.88634 7.88683 8.70634 7.6935 9.49301C7.58016 10.1463 8.04016 10.7197 8.70683 10.7197C9.8935 10.7197 10.8135 9.45301 10.8135 7.66634C10.8135 6.06634 9.66683 4.97301 8.02016 4.97301C6.14016 4.97301 5.0335 6.37301 5.0335 7.84634C5.0335 8.41967 5.22016 8.99967 5.52683 9.37967C5.58683 9.41967 5.58683 9.47301 5.56683 9.57301L5.3735 10.2997C5.3735 10.413 5.30016 10.453 5.18683 10.373C4.3335 9.99967 3.84016 8.78634 3.84016 7.80634C3.84016 5.69967 5.3335 3.78634 8.2135 3.78634C10.5068 3.78634 12.2935 5.43301 12.2935 7.61967C12.2935 9.91301 10.8735 11.753 8.84016 11.753C8.1935 11.753 7.56016 11.4063 7.3335 10.9997L6.88683 12.5797C6.7335 13.153 6.3135 13.9197 6.02683 14.3797V14.3597Z" fill="#1455AC"/>
</svg>
