<svg width="14" height="14" viewBox="0 0 14 14" fill="none" xmlns="http://www.w3.org/2000/svg">
<rect width="14" height="14" rx="7" fill="#00AF27" fill-opacity="0.8"/>
<path d="M10.3333 6.58333C10.4438 6.58333 10.5498 6.62723 10.628 6.70537C10.7061 6.78351 10.75 6.88949 10.75 7L10.75 8.25C10.75 8.58152 10.6183 8.89946 10.3839 9.13388C10.1495 9.3683 9.83152 9.5 9.5 9.5L4.08333 9.5C3.97283 9.5 3.86685 9.4561 3.78871 9.37796C3.71057 9.29982 3.66667 9.19384 3.66667 9.08333C3.66667 8.97283 3.71057 8.86685 3.78871 8.7887C3.86685 8.71056 3.97283 8.66667 4.08333 8.66667L9.5 8.66667C9.61051 8.66667 9.71649 8.62277 9.79463 8.54463C9.87277 8.46649 9.91667 8.36051 9.91667 8.25L9.91667 7C9.91667 6.88949 9.96057 6.78351 10.0387 6.70537C10.1168 6.62723 10.2228 6.58333 10.3333 6.58333Z" fill="white"/>
<path d="M4.91643 7.41666C4.99883 7.41668 5.07937 7.44112 5.14787 7.48691C5.21638 7.53269 5.26977 7.59776 5.3013 7.67389C5.33283 7.75001 5.34108 7.83378 5.32501 7.91459C5.30894 7.9954 5.26927 8.06964 5.21101 8.12791L4.2556 9.08333L5.21101 10.0387C5.28691 10.1173 5.32891 10.2226 5.32796 10.3318C5.32701 10.4411 5.28319 10.5456 5.20594 10.6228C5.12868 10.7001 5.02418 10.7439 4.91493 10.7449C4.80568 10.7458 4.70043 10.7038 4.62185 10.6279L3.37185 9.37791C3.29373 9.29977 3.24985 9.19381 3.24985 9.08333C3.24985 8.97284 3.29373 8.86688 3.37185 8.78874L4.62185 7.53874C4.69997 7.4606 4.80593 7.41668 4.91643 7.41666Z" fill="white"/>
<path d="M4.49968 4.49996L9.91634 4.49996C10.0268 4.49996 10.1328 4.54386 10.211 4.622C10.2891 4.70014 10.333 4.80612 10.333 4.91663C10.333 5.02713 10.2891 5.13311 10.211 5.21125C10.1328 5.28939 10.0268 5.33329 9.91634 5.33329L4.49967 5.33329C4.38917 5.33329 4.28319 5.37719 4.20505 5.45533C4.12691 5.53347 4.08301 5.63945 4.08301 5.74996L4.08301 6.99996C4.08301 7.11047 4.03911 7.21645 3.96097 7.29459C3.88283 7.37273 3.77685 7.41663 3.66634 7.41663C3.55583 7.41663 3.44985 7.37273 3.37171 7.29459C3.29357 7.21645 3.24967 7.11047 3.24967 6.99996L3.24967 5.74996C3.24967 5.41844 3.38137 5.1005 3.61579 4.86607C3.85021 4.63165 4.16815 4.49996 4.49968 4.49996Z" fill="white"/>
<path d="M9.08342 3.25003C9.19392 3.25006 9.29988 3.29397 9.37801 3.37212L10.628 4.62212C10.7061 4.70025 10.75 4.80622 10.75 4.9167C10.75 5.02719 10.7061 5.13315 10.628 5.21128L9.37801 6.46128C9.29942 6.53718 9.19417 6.57918 9.08492 6.57823C8.97567 6.57728 8.87117 6.53346 8.79391 6.45621C8.71666 6.37895 8.67284 6.27445 8.67189 6.1652C8.67094 6.05595 8.71294 5.9507 8.78884 5.87212L9.74426 4.9167L8.78884 3.96128C8.73059 3.90301 8.69092 3.82878 8.67485 3.74796C8.65878 3.66715 8.66703 3.58339 8.69856 3.50726C8.73009 3.43114 8.78348 3.36607 8.85198 3.32028C8.92049 3.2745 9.00103 3.25005 9.08342 3.25003Z" fill="white"/>
</svg>
