<svg width="14" height="15" viewBox="0 0 14 15" fill="none"
     xmlns="http://www.w3.org/2000/svg">
    <g clip-path="url(#clip0_9562_1632)">
        <path d="M9.91732 0.5H4.08398V4H9.91732V0.5Z" fill="white"/>
        <path
            d="M7.00065 9.83333C7.64498 9.83333 8.16732 9.311 8.16732 8.66667C8.16732 8.02233 7.64498 7.5 7.00065 7.5C6.35632 7.5 5.83398 8.02233 5.83398 8.66667C5.83398 9.311 6.35632 9.83333 7.00065 9.83333Z"
            fill="white"/>
        <path
            d="M11.0833 0.5V5.16667H2.91667V0.5H1.75C1.28587 0.5 0.840752 0.684374 0.512563 1.01256C0.184374 1.34075 0 1.78587 0 2.25L0 14.5H14V3.41667L11.0833 0.5ZM7 11C6.53851 11 6.08738 10.8632 5.70367 10.6068C5.31995 10.3504 5.02088 9.98596 4.84428 9.55959C4.66768 9.13323 4.62147 8.66408 4.7115 8.21146C4.80153 7.75883 5.02376 7.34307 5.35008 7.01675C5.67641 6.69043 6.09217 6.4682 6.54479 6.37817C6.99741 6.28814 7.46657 6.33434 7.89293 6.51095C8.31929 6.68755 8.68371 6.98662 8.94009 7.37034C9.19649 7.75405 9.33333 8.20518 9.33333 8.66667C9.33333 9.28551 9.0875 9.879 8.64992 10.3166C8.21233 10.7542 7.61884 11 7 11Z"
            fill="white"/>
    </g>
    <defs>
        <clipPath id="clip0_9562_1632">
            <rect width="14" height="14" fill="white"
                  transform="translate(0 0.5)"/>
        </clipPath>
    </defs>
</svg>
