<svg width="12" height="13" viewBox="0 0 12 13" fill="none" xmlns="http://www.w3.org/2000/svg">
<path fill-rule="evenodd" clip-rule="evenodd" d="M11.8045 11.7028L9.5412 9.42762C10.2432 8.52049 10.6665 7.38356 10.6665 6.14681C10.6665 3.1916 8.27388 0.787109 5.33326 0.787109C2.39263 0.787109 0 3.1916 0 6.14681C0 9.10201 2.39263 11.5065 5.33326 11.5065C6.56391 11.5065 7.69523 11.0811 8.59788 10.3756L10.8618 12.6501C10.9918 12.7808 11.1625 12.8464 11.3332 12.8464C11.5038 12.8464 11.6745 12.7808 11.8045 12.6501C12.0652 12.3882 12.0652 11.9648 11.8045 11.7028Z" fill="#758590"/>
<path fill-rule="evenodd" clip-rule="evenodd" d="M1.33398 6.1438C1.33398 3.92689 3.12796 2.12402 5.33392 2.12402C7.53989 2.12402 9.33386 3.92689 9.33386 6.1438C9.33386 8.3607 7.53989 10.1636 5.33392 10.1636C3.12796 10.1636 1.33398 8.3607 1.33398 6.1438Z" fill="#F3F4F5"/>
</svg>
