<svg width="14" height="15" viewBox="0 0 14 15" fill="none" xmlns="http://www.w3.org/2000/svg">
    <g clip-path="url(#clip0_10093_15965)">
        <path
            d="M13.8228 1.50391L3.02539 12.2984C3.25882 12.4122 3.51485 12.472 3.77451 12.4733H5.62373C5.77843 12.4729 5.92684 12.5344 6.0359 12.6441L7.03805 13.6457C7.58151 14.1929 8.32069 14.5009 9.09189 14.5015C9.41031 14.5012 9.72654 14.449 10.0282 14.347C11.068 14.0061 11.8243 13.1047 11.9794 12.0215L13.9493 2.66463C14.0434 2.27476 13.9986 1.86433 13.8228 1.50391Z"
            fill="#0461A5"/>
        <path
            d="M11.8527 0.545151L2.51853 2.51157C0.923649 2.73068 -0.191634 4.20122 0.0274766 5.79609C0.114022 6.42593 0.404102 7.01025 0.853526 7.45992L1.8551 8.46149C1.96457 8.57094 2.02603 8.71943 2.02592 8.87424V10.7235C2.02726 10.9831 2.08705 11.2392 2.20082 11.4726L12.9965 0.675175C12.6417 0.500826 12.2375 0.454889 11.8527 0.545151Z"
            fill="#0461A5"/>
    </g>
    <defs>
        <clipPath id="clip0_10093_15965">
            <rect width="14" height="14" fill="white" transform="translate(0 0.5)"/>
        </clipPath>
    </defs>
</svg>
