<svg width="80" height="80" viewBox="0 0 80 80" fill="none" xmlns="http://www.w3.org/2000/svg">
<g clip-path="url(#clip0_10430_87951)">
<path d="M40 80C62.0914 80 80 62.0914 80 40C80 17.9086 62.0914 0 40 0C17.9086 0 0 17.9086 0 40C0 62.0914 17.9086 80 40 80Z" fill="#FFD15D"/>
<path d="M48.6974 35.4102L44.8879 39.2197L50.8711 45.2028H23.7041V50.59H50.8711L44.8879 56.5733L48.6974 60.3825L61.1833 47.8964L48.6974 35.4102Z" fill="#324A5E"/>
<path d="M57.3739 26.4958H30.2067L36.19 20.5127L32.3805 16.7031L19.8945 29.1894L32.3805 41.6755L36.19 37.8659L30.2067 31.883H57.3739V26.4958Z" fill="#324A5E"/>
<path d="M48.6969 35.4102L44.8873 39.2197L50.8706 45.2028H39.9102V50.59H50.8706L44.8873 56.5733L48.6969 60.3825L61.1828 47.8964L48.6969 35.4102Z" fill="#2B3B4E"/>
<path d="M57.3746 26.4961H39.9111V31.8833H57.3746V26.4961Z" fill="#2B3B4E"/>
</g>
<defs>
<clipPath id="clip0_10430_87951">
<rect width="80" height="80" fill="white"/>
</clipPath>
</defs>
</svg>
