<svg width="15" height="14" viewBox="0 0 15 14" fill="none" xmlns="http://www.w3.org/2000/svg">
<g clip-path="url(#clip0_11994_17443)">
<path d="M14.5 4.08333V5.25C14.5 5.572 14.2387 5.83333 13.9167 5.83333C13.5947 5.83333 13.3333 5.572 13.3333 5.25V4.08333C13.3333 3.43992 12.8101 2.91667 12.1667 2.91667H10.9831L11.7122 3.67908C11.9357 3.91125 11.9287 4.2805 11.6959 4.50392C11.5828 4.613 11.4375 4.66667 11.2917 4.66667C11.1388 4.66667 10.986 4.60658 10.8711 4.48758L9.58075 3.14533C9.13683 2.70142 9.13683 1.96525 9.58833 1.51317L10.8711 0.179083C11.0945 -0.0530833 11.4643 -0.0600833 11.6959 0.16275C11.9281 0.386167 11.9357 0.755417 11.7122 0.987583L10.979 1.75H12.1667C13.4535 1.75 14.5 2.7965 14.5 4.08333ZM4.12892 9.51242C3.9055 9.28025 3.53625 9.27383 3.30408 9.49667C3.07192 9.72008 3.06433 10.0893 3.28775 10.3215L4.01692 11.0839H2.83333C2.18992 11.0839 1.66667 10.5607 1.66667 9.91725V8.75058C1.66667 8.428 1.40533 8.16725 1.08333 8.16725C0.761333 8.16725 0.5 8.428 0.5 8.75058V9.91725C0.5 11.2041 1.5465 12.2506 2.83333 12.2506H4.02042L3.28775 13.013C3.06433 13.2452 3.07133 13.6144 3.30408 13.8378C3.41725 13.9469 3.5625 14.0006 3.70833 14.0006C3.86117 14.0006 4.014 13.9405 4.12892 13.8215L5.41167 12.4868C5.86258 12.0353 5.86258 11.2992 5.41925 10.8547L4.12892 9.51242ZM7.5 4.66667C7.5 5.95525 6.45525 7 5.16667 7H2.83333C1.54475 7 0.5 5.95525 0.5 4.66667V2.33333C0.5 1.04475 1.54475 0 2.83333 0H5.16667C6.45525 0 7.5 1.04475 7.5 2.33333V4.66667ZM6.04167 2.10933C6.04167 1.911 5.88067 1.75 5.68233 1.75H4.36575V1.526C4.36575 1.32767 4.20475 1.16667 4.00642 1.16667H3.99417C3.79583 1.16667 3.63483 1.32767 3.63483 1.526V1.75H2.31767C2.11933 1.75 1.95833 1.911 1.95833 2.10933V2.12158C1.95833 2.31992 2.11933 2.48092 2.31767 2.48092H4.763C4.69825 3.04267 4.48067 3.73567 4.00292 4.27233C3.84192 4.0915 3.70717 3.89433 3.59925 3.689C3.53742 3.57117 3.41375 3.49942 3.28133 3.49942C3.01067 3.49942 2.83275 3.78642 2.95875 4.02617C3.09 4.277 3.251 4.51792 3.44292 4.73783C3.1285 4.92917 2.74933 5.06392 2.28967 5.10825C2.103 5.12633 1.95833 5.27917 1.95833 5.46642V5.47867C1.95833 5.69158 2.14267 5.85667 2.35442 5.83683C3.02292 5.77442 3.56717 5.55392 4.00642 5.24067C4.44333 5.55158 4.98117 5.77325 5.64442 5.83683C5.85675 5.85725 6.04108 5.69217 6.04108 5.47925V5.467C6.04108 5.28267 5.90108 5.12692 5.71733 5.10942C5.25533 5.06567 4.87617 4.92858 4.56 4.73667C5.1375 4.07458 5.42625 3.22525 5.49742 2.4815H5.68175C5.88008 2.4815 6.04108 2.3205 6.04108 2.12217V2.10992L6.04167 2.10933ZM14.5 9.33333V11.6667C14.5 12.9552 13.4552 14 12.1667 14H9.83333C8.54475 14 7.5 12.9552 7.5 11.6667V9.33333C7.5 8.04475 8.54475 7 9.83333 7H12.1667C13.4552 7 14.5 8.04475 14.5 9.33333ZM12.6357 12.334L11.8406 8.86433C11.7782 8.59367 11.6055 8.3475 11.3494 8.24017C10.8133 8.01558 10.2673 8.33058 10.1501 8.83575L9.32583 12.3317C9.26517 12.5877 9.46 12.8333 9.72308 12.8333C9.91208 12.8333 10.0766 12.7032 10.1203 12.5189L10.2802 11.8417H11.6854L11.84 12.5166C11.8826 12.7021 12.0477 12.8333 12.2378 12.8333H12.239C12.5009 12.8333 12.6952 12.5895 12.6368 12.334H12.6357ZM10.9918 8.98333C10.9697 8.98333 10.9504 8.9985 10.9457 9.02008L10.4727 11.025H11.4976L11.0385 9.02008C11.0332 8.9985 11.014 8.98333 10.9918 8.98333Z" fill="#0461A5"/>
</g>
<defs>
<clipPath id="clip0_11994_17443">
<rect width="14" height="14" fill="white" transform="translate(0.5)"/>
</clipPath>
</defs>
</svg>
