<svg width="28" height="28" viewBox="0 0 28 28" fill="none" xmlns="http://www.w3.org/2000/svg">
<g id="icon-park-outline:transaction">
<g id="Group">
<path id="Vector" d="M5.25 3.5H22.75C23.2141 3.5 23.6592 3.68437 23.9874 4.01256C24.3156 4.34075 24.5 4.78587 24.5 5.25V22.75C24.5 23.2141 24.3156 23.6592 23.9874 23.9874C23.6592 24.3156 23.2141 24.5 22.75 24.5H5.25C4.78587 24.5 4.34075 24.3156 4.01256 23.9874C3.68438 23.6592 3.5 23.2141 3.5 22.75V5.25C3.5 4.78587 3.68438 4.34075 4.01256 4.01256C4.34075 3.68437 4.78587 3.5 5.25 3.5Z" stroke="#4153B3" stroke-width="2" stroke-linecap="round" stroke-linejoin="round"/>
<path id="Vector_2" d="M19.8335 13.4167H15.1668M15.7502 18.0833L12.8335 20.4167L8.16683 14.5833L15.7502 18.0833ZM19.8335 8.75H8.16683H19.8335Z" stroke="#4153B3" stroke-width="2" stroke-linecap="round" stroke-linejoin="round"/>
</g>
</g>
</svg>
