<svg width="16" height="16" viewBox="0 0 16 16" fill="none" xmlns="http://www.w3.org/2000/svg">
<path d="M14.973 4.00033C14.4597 4.23366 13.9064 4.38699 13.333 4.46033C13.9197 4.10699 14.373 3.54699 14.5864 2.87366C14.033 3.20699 13.4197 3.44033 12.773 3.57366C12.2464 3.00033 11.5064 2.66699 10.6664 2.66699C9.0997 2.66699 7.8197 3.94699 7.8197 5.52699C7.8197 5.75366 7.84637 5.97366 7.89303 6.18033C5.5197 6.06033 3.40637 4.92033 1.9997 3.19366C1.75303 3.61366 1.61303 4.10699 1.61303 4.62699C1.61303 5.62033 2.11303 6.50033 2.88637 7.00033C2.41303 7.00033 1.97303 6.86699 1.58637 6.66699V6.68699C1.58637 8.07366 2.57303 9.23366 3.8797 9.49366C3.46019 9.60846 3.01976 9.62444 2.59303 9.54033C2.7741 10.1086 3.12873 10.6059 3.60704 10.9623C4.08536 11.3186 4.66333 11.5161 5.2597 11.527C4.24879 12.3273 2.9957 12.7599 1.70637 12.7537C1.4797 12.7537 1.25303 12.7403 1.02637 12.7137C2.29303 13.527 3.7997 14.0003 5.41303 14.0003C10.6664 14.0003 13.553 9.64033 13.553 5.86033C13.553 5.73366 13.553 5.61366 13.5464 5.48699C14.1064 5.08699 14.5864 4.58033 14.973 4.00033Z" fill="#1455AC"/>
</svg>
