<svg width="70" height="63" viewBox="0 0 70 63" fill="none" xmlns="http://www.w3.org/2000/svg">
<path d="M69.125 52.6291L40.4542 4.06663C39.3167 2.11246 37.275 0.916626 35 0.916626C32.725 0.916626 30.7125 2.08329 29.575 4.06663L0.875 52.6291C-0.291667 54.6416 -0.291667 57.0041 0.875 58.9875C2.0125 60.9708 4.05417 62.1375 6.32917 62.1375H63.7C65.975 62.1375 68.0167 60.9416 69.1542 58.9875C70.2917 57.0041 70.2917 54.6125 69.1542 52.6291H69.125ZM66.6167 57.5583C66.0042 58.6083 64.925 59.25 63.7 59.25H6.3C5.075 59.25 3.99583 58.6083 3.38333 57.5583C2.77083 56.4791 2.77083 55.1958 3.38333 54.1166L32.0833 5.52496C33.3083 3.39579 36.6917 3.39579 37.9167 5.52496L66.6167 54.0875C67.2292 55.1666 67.2292 56.45 66.6167 57.5291V57.5583ZM36.4583 38.8333H33.5417V21.3333H36.4583V38.8333ZM37.9167 47.5833C37.9167 49.1875 36.6042 50.5 35 50.5C33.3958 50.5 32.0833 49.1875 32.0833 47.5833C32.0833 45.9791 33.3958 44.6666 35 44.6666C36.6042 44.6666 37.9167 45.9791 37.9167 47.5833Z" fill="#FF6767"/>
</svg>
