<svg width="16" height="16" viewBox="0 0 16 16" fill="none" xmlns="http://www.w3.org/2000/svg">
<path d="M9.10699 8.11336L7.55618 7.38974C7.42085 7.32691 7.30968 7.39734 7.30968 7.54717V8.91017C7.30968 9.06 7.42085 9.13043 7.55618 9.0676L9.1063 8.34398C9.24232 8.28046 9.24232 8.17688 9.10699 8.11336ZM8.00015 1.6001C4.33925 1.6001 1.37158 4.56776 1.37158 8.22867C1.37158 11.8896 4.33925 14.8572 8.00015 14.8572C11.6611 14.8572 14.6287 11.8896 14.6287 8.22867C14.6287 4.56776 11.6611 1.6001 8.00015 1.6001ZM8.00015 10.9215C4.60715 10.9215 4.54777 10.6156 4.54777 8.22867C4.54777 5.84169 4.60715 5.53581 8.00015 5.53581C11.3932 5.53581 11.4525 5.84169 11.4525 8.22867C11.4525 10.6156 11.3932 10.9215 8.00015 10.9215Z" fill="#1455AC"/>
</svg>
