<svg width="14" height="14" viewBox="0 0 14 14" fill="none" xmlns="http://www.w3.org/2000/svg">
<g clip-path="url(#clip0_10547_649)">
<path d="M9.79125 1.44318L10.5117 0.270677C10.6797 -0.00465646 11.039 -0.0898231 11.3138 0.0793436C11.5885 0.247927 11.6743 0.606677 11.5051 0.881427L10.7847 2.05393C10.675 2.23359 10.4831 2.33218 10.2871 2.33218C10.1827 2.33218 10.0777 2.30418 9.98259 2.24584C9.70784 2.07726 9.62209 1.71793 9.79125 1.44318ZM3.16575 2.05334C3.27542 2.23301 3.46792 2.33218 3.66392 2.33218C3.76775 2.33218 3.87275 2.30418 3.96784 2.24643C4.24259 2.07784 4.32892 1.71909 4.16034 1.44434L3.44109 0.27126C3.2725 -0.00348977 2.91317 -0.0892398 2.639 0.0787602C2.36425 0.247344 2.27792 0.606094 2.4465 0.880844L3.16575 2.05334ZM1.89059 3.34134L0.841754 2.83909C0.552421 2.69851 0.201838 2.82218 0.0641712 3.11326C-0.0752455 3.40376 0.0478378 3.75201 0.338338 3.89084L1.38717 4.39309C1.46825 4.43218 1.554 4.45084 1.63859 4.45084C1.85617 4.45084 2.065 4.32893 2.16475 4.11951C2.30417 3.82901 2.18109 3.48018 1.89059 3.34134ZM6.92067 2.33393C3.70417 2.38701 1.155 5.87301 2.9015 9.23068C3.16692 9.74051 3.56067 10.1675 3.98359 10.5566C4.144 10.7042 4.26825 10.8868 4.37442 11.0828H6.41667V8.05876C5.73942 7.81726 5.25 7.17559 5.25 6.41609C5.25 6.09351 5.51075 5.83276 5.83334 5.83276C6.15592 5.83276 6.41667 6.09351 6.41667 6.41609C6.41667 6.73868 6.678 6.99943 7 6.99943C7.322 6.99943 7.58334 6.73809 7.58334 6.41609C7.58334 6.09409 7.84409 5.83276 8.16667 5.83276C8.48925 5.83276 8.75 6.09351 8.75 6.41609C8.75 7.17559 8.26059 7.81726 7.58334 8.05876V11.0828H9.60634C9.73934 10.8547 9.91084 10.6394 10.1354 10.4522C10.5198 10.1313 10.8815 9.77376 11.1038 9.32518C12.117 7.27593 11.7151 5.09076 10.2719 3.67209C9.373 2.78776 8.18242 2.31468 6.92067 2.33393ZM4.662 12.4122C4.61534 13.2673 5.25584 14 6.11217 14H7.87442C8.68 14 9.33275 13.3473 9.33275 12.5417V12.25H4.65559C4.65559 12.3048 4.6655 12.3562 4.662 12.4122ZM13.9493 3.09168C13.8163 2.79826 13.4715 2.66584 13.1781 2.80001L12.0511 3.30868C11.7571 3.44109 11.6264 3.78643 11.7594 4.07984C11.8568 4.29568 12.0686 4.42343 12.2914 4.42343C12.3713 4.42343 12.453 4.40709 12.5306 4.37151L13.6576 3.86284C13.9516 3.73043 14.0823 3.38509 13.9493 3.09168Z" fill="#3C76F1"/>
</g>
<defs>
<clipPath id="clip0_10547_649">
<rect width="14" height="14" fill="white"/>
</clipPath>
</defs>
</svg>
