<svg width="30" height="30" viewBox="0 0 30 30" fill="none" xmlns="http://www.w3.org/2000/svg">
<g clip-path="url(#clip0_10430_47545)">
<path d="M15 22.5C19.1421 22.5 22.5 19.1421 22.5 15C22.5 10.8579 19.1421 7.5 15 7.5C10.8579 7.5 7.5 10.8579 7.5 15C7.5 19.1421 10.8579 22.5 15 22.5Z" fill="#232323"/>
<path d="M15 4.49947C14.1717 4.49947 13.5 3.82781 13.5 2.99947V1.5C13.5 0.67166 14.1717 0 15 0C15.8283 0 16.5 0.67166 16.5 1.5V2.99947C16.5 3.82781 15.8283 4.49947 15 4.49947Z" fill="#232323"/>
<path d="M23.4859 8.01443C23.1021 8.01443 22.7183 7.86812 22.4254 7.57533C21.8394 6.98974 21.8394 6.04 22.4247 5.45406L23.4845 4.39369C24.0704 3.80775 25.0203 3.80757 25.6063 4.39316C26.1922 4.97875 26.1922 5.92849 25.607 6.51443L24.5471 7.5748C24.2543 7.86794 23.8697 8.01443 23.4859 8.01443Z" fill="#232323"/>
<path d="M28.4998 16.5H27.0005C26.1721 16.5 25.5005 15.8283 25.5005 15C25.5005 14.1717 26.1721 13.5 27.0005 13.5H28.4998C29.3281 13.5 29.9998 14.1717 29.9998 15C29.9998 15.8283 29.3281 16.5 28.4998 16.5Z" fill="#232323"/>
<path d="M24.5458 26.0461C24.162 26.0461 23.7775 25.8996 23.4845 25.6064L22.4247 24.5461C21.8394 23.9601 21.8394 23.0104 22.4254 22.4248C23.0113 21.8392 23.9612 21.839 24.5472 22.4253L25.607 23.4857C26.1923 24.0716 26.1923 25.0214 25.6063 25.607C25.3133 25.8997 24.9296 26.0461 24.5458 26.0461Z" fill="#232323"/>
<path d="M15 30C14.1717 30 13.5 29.3283 13.5 28.5V27.0005C13.5 26.1721 14.1717 25.5005 15 25.5005C15.8283 25.5005 16.5 26.1721 16.5 27.0005V28.5C16.5 29.3283 15.8283 30 15 30Z" fill="#232323"/>
<path d="M5.45419 26.0461C5.0704 26.0461 4.68661 25.8997 4.39364 25.607C3.80771 25.0214 3.80771 24.0716 4.39294 23.4857L5.45278 22.4253C6.03872 21.839 6.9887 21.8392 7.57464 22.4248C8.16058 23.0104 8.16058 23.9601 7.57534 24.5461L6.5155 25.6064C6.22253 25.8994 5.83798 26.0461 5.45419 26.0461Z" fill="#232323"/>
<path d="M2.9993 16.5H1.5C0.67166 16.5 0 15.8283 0 15C0 14.1717 0.67166 13.5 1.5 13.5H2.9993C3.82764 13.5 4.4993 14.1717 4.4993 15C4.4993 15.8283 3.82764 16.5 2.9993 16.5Z" fill="#232323"/>
<path d="M6.51409 8.01432C6.1303 8.01432 5.74581 7.86783 5.45278 7.57469L4.39294 6.51432C3.80771 5.92838 3.80771 4.97863 4.39364 4.39305C4.97958 3.80746 5.92956 3.80729 6.5155 4.39357L7.57534 5.45395C8.16058 6.03988 8.16058 6.98963 7.57464 7.57521C7.28167 7.86801 6.89788 8.01432 6.51409 8.01432Z" fill="#232323"/>
</g>
<defs>
<clipPath id="clip0_10430_47545">
<rect width="30" height="30" fill="white"/>
</clipPath>
</defs>
</svg>
