<svg width="30" height="30" viewBox="0 0 30 30" fill="none" xmlns="http://www.w3.org/2000/svg">
<g clip-path="url(#clip0_10430_47523)">
<path d="M15 22.5C19.1421 22.5 22.5 19.1421 22.5 15C22.5 10.8579 19.1421 7.5 15 7.5C10.8579 7.5 7.5 10.8579 7.5 15C7.5 19.1421 10.8579 22.5 15 22.5Z" fill="#FFBB38"/>
<path d="M15 4.49947C14.1709 4.49947 13.5 3.82781 13.5 2.99947V1.5C13.5 0.67166 14.1709 0 15 0C15.8291 0 16.5 0.67166 16.5 1.5V2.99947C16.5 3.82781 15.8291 4.49947 15 4.49947Z" fill="#FFBB38"/>
<path d="M23.4858 8.01443C23.1021 8.01443 22.7183 7.86794 22.4253 7.57498C21.8394 6.98921 21.8394 6.03947 22.4253 5.45371L23.4858 4.39333C24.0718 3.80775 25.021 3.80757 25.6069 4.39351C26.1929 4.97927 26.1929 5.92902 25.6069 6.51478L24.5464 7.57515C24.2534 7.86794 23.8696 8.01443 23.4858 8.01443Z" fill="#FFBB38"/>
<path d="M28.5 16.5H27C26.1709 16.5 25.5 15.8283 25.5 15C25.5 14.1717 26.1709 13.5 27 13.5H28.5C29.3291 13.5 30 14.1717 30 15C30 15.8283 29.3291 16.5 28.5 16.5Z" fill="#FFBB38"/>
<path d="M24.5464 26.0461C24.1626 26.0461 23.7788 25.8997 23.4858 25.6068L22.4253 24.5464C21.8394 23.9606 21.8394 23.0109 22.4253 22.4251C23.0112 21.8392 23.9604 21.839 24.5464 22.425L25.6069 23.4853C26.1929 24.0711 26.1929 25.0208 25.6069 25.6066C25.314 25.8996 24.9302 26.0461 24.5464 26.0461Z" fill="#FFBB38"/>
<path d="M15 30C14.1709 30 13.5 29.3283 13.5 28.5V27.0005C13.5 26.1721 14.1709 25.5005 15 25.5005C15.8291 25.5005 16.5 26.1721 16.5 27.0005V28.5C16.5 29.3283 15.8291 30 15 30Z" fill="#FFBB38"/>
<path d="M5.45361 26.0459C5.06982 26.0459 4.68604 25.8994 4.39307 25.6065C3.80713 25.0207 3.80713 24.071 4.39307 23.4852L5.45361 22.4248C6.03955 21.8392 6.98877 21.8391 7.57471 22.425C8.16064 23.0108 8.16064 23.9605 7.57471 24.5463L6.51416 25.6066C6.22119 25.8994 5.8374 26.0459 5.45361 26.0459Z" fill="#FFBB38"/>
<path d="M3 16.5H1.5C0.670898 16.5 0 15.8283 0 15C0 14.1717 0.670898 13.5 1.5 13.5H3C3.8291 13.5 4.5 14.1717 4.5 15C4.5 15.8283 3.8291 16.5 3 16.5Z" fill="#FFBB38"/>
<path d="M6.51416 8.01432C6.13037 8.01432 5.74658 7.86801 5.45361 7.57504L4.39307 6.51467C3.80713 5.92891 3.80713 4.97916 4.39307 4.3934C4.979 3.80746 5.92822 3.80728 6.51416 4.39322L7.57471 5.45359C8.16064 6.03936 8.16064 6.9891 7.57471 7.57486C7.28174 7.86783 6.89795 8.01432 6.51416 8.01432Z" fill="#FFBB38"/>
</g>
<defs>
<clipPath id="clip0_10430_47523">
<rect width="30" height="30" fill="white"/>
</clipPath>
</defs>
</svg>
