<svg width="80" height="80" viewBox="0 0 80 80" fill="none" xmlns="http://www.w3.org/2000/svg">
<path fill-rule="evenodd" clip-rule="evenodd" d="M40 5C20.7011 5 5 20.7011 5 40C5 59.2989 20.7006 75 40 75C59.2994 75 75 59.2991 75 40C75 20.7009 59.2992 5 40 5ZM33.1749 20.6309C33.1749 20.3292 33.2947 20.0398 33.508 19.8264C33.7213 19.613 34.0106 19.4931 34.3124 19.4929H45.6874C45.9892 19.4936 46.2784 19.6139 46.4917 19.8275C46.705 20.041 46.8249 20.3305 46.8251 20.6323V23.4455H33.1749V20.6309ZM51.878 58.8792C51.8489 59.3229 51.6514 59.7387 51.3257 60.0415C51.0001 60.3443 50.571 60.5111 50.1263 60.5078H29.7416C29.2971 60.5066 28.8696 60.3374 28.5448 60.034C28.22 59.7306 28.022 59.3156 27.9906 58.8722L26.2471 33.3555H53.7386L51.8773 58.8792H51.878ZM56.409 31.0449H23.591V28.4009C23.5916 27.6998 23.8703 27.0276 24.366 26.5319C24.8618 26.0361 25.5339 25.7573 26.235 25.7566L53.7646 25.7558C54.4657 25.7568 55.1378 26.0358 55.6335 26.5318C56.1291 27.0277 56.4078 27.6999 56.4084 28.4011V31.0446L56.409 31.0449ZM34.7158 54.4249V38.2227C34.7159 37.9163 34.8377 37.6225 35.0545 37.4059C35.2712 37.1893 35.5651 37.0677 35.8715 37.0678C36.1779 37.0679 36.4717 37.1897 36.6883 37.4065C36.9049 37.6232 37.0265 37.9171 37.0264 38.2235V54.4249C37.0287 54.5781 37.0006 54.7303 36.9436 54.8725C36.8866 55.0147 36.8019 55.1442 36.6944 55.2534C36.5868 55.3626 36.4587 55.4493 36.3174 55.5084C36.176 55.5676 36.0243 55.5981 35.8711 55.5981C35.7179 55.5981 35.5662 55.5676 35.4248 55.5084C35.2835 55.4493 35.1553 55.3626 35.0478 55.2534C34.9403 55.1442 34.8556 55.0147 34.7986 54.8725C34.7416 54.7303 34.7135 54.5781 34.7158 54.4249ZM42.9589 54.4249V38.2227C42.9636 37.9193 43.0875 37.6301 43.3037 37.4173C43.52 37.2045 43.8112 37.0853 44.1145 37.0854C44.4179 37.0855 44.709 37.2049 44.9251 37.4179C45.1412 37.6308 45.2649 37.9202 45.2694 38.2235V54.4256C45.2728 54.5794 45.2454 54.7324 45.1888 54.8755C45.1322 55.0186 45.0477 55.1489 44.9401 55.2589C44.8325 55.3689 44.704 55.4563 44.5621 55.5159C44.4203 55.5756 44.268 55.6063 44.1141 55.6063C43.9603 55.6063 43.808 55.5756 43.6661 55.5159C43.5243 55.4563 43.3958 55.3689 43.2882 55.2589C43.1806 55.1489 43.096 55.0186 43.0395 54.8755C42.9829 54.7324 42.9555 54.5794 42.9589 54.4256V54.4249Z" fill="#FC0005"/>
</svg>
