<svg width="80" height="80" viewBox="0 0 80 80" fill="none" xmlns="http://www.w3.org/2000/svg">
<path d="M9.81836 2.75061V45.1725C9.81836 45.5283 10.1071 45.8176 10.4635 45.8176H39.4198C39.7756 45.8176 40.0649 45.5289 40.0649 45.1725V2.75061C40.0649 2.39416 39.7762 2.10547 39.4198 2.10547H10.4635C10.1071 2.10547 9.81836 2.39416 9.81836 2.75061Z" fill="#8CBAFA"/>
<path d="M15.7285 2.10547H21.5183V45.817H15.7285V2.10547Z" fill="#575B7A"/>
<path d="M47.8484 0.275345L27.1398 29.8499C26.936 30.1417 27.0068 30.5439 27.2985 30.7484L51.6619 47.8077C51.9543 48.0122 52.3559 47.9414 52.5604 47.6496L73.269 18.075C73.4734 17.7833 73.402 17.3811 73.1103 17.1766L48.7469 0.116654C48.4551 -0.0878141 48.0529 -0.016403 47.8484 0.275345Z" fill="#AED559"/>
<path d="M73.1101 17.1747L70.1163 15.0781C70.3727 15.2576 70.4154 15.6403 70.2109 15.932L49.5029 45.5066C49.2985 45.7983 48.9243 45.8893 48.668 45.7092L51.6617 47.8058C51.9541 48.0102 52.3557 47.9394 52.5602 47.6477L73.2688 18.0731C73.4733 17.7814 73.4019 17.3785 73.1101 17.1747Z" fill="#7FAB38"/>
<path d="M46.097 10.7331C45.8578 10.7331 45.6161 10.6623 45.4055 10.5146C44.8592 10.1325 44.7268 9.3793 45.1089 8.83303L46.8691 6.32021C47.0522 6.05776 47.333 5.87893 47.6479 5.82339C47.9635 5.76785 48.2882 5.83987 48.55 6.02358C48.8186 6.21096 49.1433 6.28359 49.465 6.22683C49.7872 6.17007 50.068 5.99062 50.256 5.72268C50.2657 5.70803 50.2755 5.6946 50.2834 5.68057C50.4525 5.38638 50.7369 5.17703 51.0677 5.10317C51.3986 5.02932 51.7452 5.09829 52.0229 5.29238L54.6713 7.14724C55.2175 7.52932 55.35 8.28188 54.9679 8.82815C54.5852 9.37441 53.832 9.50747 53.2864 9.12478L51.5072 7.87905C51.0403 8.24831 50.4867 8.49856 49.8843 8.60415C49.3386 8.70059 48.7899 8.6719 48.2711 8.52663L47.087 10.2179C46.852 10.5536 46.4773 10.7331 46.097 10.7331Z" fill="#575B7A"/>
<path d="M65.1759 24.0923C64.9367 24.0923 64.6956 24.0215 64.4844 23.8738C63.9381 23.4917 63.8057 22.7385 64.1884 22.1923L65.3725 20.501C65.0581 20.0634 64.8439 19.5574 64.7475 19.0117C64.6412 18.4093 64.6864 17.8038 64.8738 17.2387L63.0952 15.9929C62.549 15.6109 62.4159 14.8583 62.7986 14.312C63.1813 13.7658 63.9339 13.6327 64.4801 14.0154L67.1284 15.8696C67.4061 16.0643 67.5892 16.3671 67.6332 16.704C67.6765 17.0403 67.5764 17.3797 67.3573 17.6391C67.3469 17.6506 67.3384 17.6629 67.3292 17.6757C67.1406 17.9454 67.0686 18.2708 67.1254 18.5924C67.1821 18.9147 67.361 19.1954 67.6289 19.3828C68.1752 19.7655 68.3082 20.5181 67.9256 21.0643L66.1659 23.5778C65.9309 23.9129 65.5562 24.0923 65.1759 24.0923Z" fill="#575B7A"/>
<path d="M53.7525 18.8975C50.5226 16.6361 45.3584 18.4397 42.2175 22.9252C39.0766 27.4107 39.1487 32.88 42.3786 35.1414C45.608 37.4033 50.7722 35.5997 53.9131 31.1143C57.0539 26.6288 56.9819 21.1588 53.7525 18.8975Z" fill="#FFEB96"/>
<path d="M45.6026 37.3294C44.1597 37.3294 42.8206 36.9265 41.6841 36.1306C39.7951 34.808 38.7355 32.5894 38.7001 29.8837C38.6666 27.3251 39.5638 24.6078 41.227 22.2329C42.8896 19.8581 45.1357 18.0856 47.5514 17.2421C50.1064 16.3504 52.5539 16.5872 54.4423 17.9092C56.3307 19.2318 57.3909 21.4505 57.4263 24.1568C57.4599 26.7147 56.5627 29.432 54.8995 31.8069C53.2369 34.1818 50.9902 35.9542 48.575 36.7978C47.5575 37.153 46.5572 37.3294 45.6026 37.3294ZM50.5129 19.1293C49.8287 19.1293 49.0993 19.2593 48.3473 19.5218C46.4058 20.1999 44.5796 21.6543 43.2045 23.6178C40.4506 27.5509 40.3896 32.2769 43.069 34.1525C45.7485 36.0287 50.168 34.3551 52.9219 30.422C54.297 28.4585 55.0392 26.2448 55.0118 24.1885C54.9867 22.2799 54.2928 20.7522 53.0574 19.8874C52.3378 19.3832 51.4687 19.1293 50.5129 19.1293Z" fill="#575B7A"/>
<path d="M6.5625 31.5084V67.8542C6.5625 70.4757 8.68774 72.6009 11.3092 72.6009H63.761C66.3824 72.6009 68.5077 70.4757 68.5077 67.8542V31.5084C68.5077 28.887 66.3824 26.7617 63.761 26.7617H11.3092C8.68774 26.7617 6.5625 28.887 6.5625 31.5084Z" fill="#F28F88"/>
<path d="M63.7615 26.7617H59.7539C62.3754 26.7617 64.5006 28.887 64.5006 31.5084V67.8542C64.5006 70.4757 62.3754 72.6009 59.7539 72.6009H63.7615C66.3829 72.6009 68.5082 70.4757 68.5082 67.8542V31.5084C68.5082 28.887 66.3829 26.7617 63.7615 26.7617Z" fill="#CE675D"/>
<path d="M68.2839 57.1467H58.6593C54.537 57.1467 51.1953 53.8051 51.1953 49.6827C51.1953 45.561 54.537 42.2188 58.6593 42.2188H68.2839C71.0421 42.2188 73.2784 44.4551 73.2784 47.2139V52.1522C73.2784 54.9104 71.0421 57.1467 68.2839 57.1467Z" fill="#FFD2C0"/>
<path d="M68.2839 53.5551H58.6593C55.1559 53.5551 52.2183 51.1417 51.4144 47.8867C51.2722 48.4623 51.1953 49.0635 51.1953 49.6824C51.1953 53.8047 54.537 57.1464 58.6593 57.1464H68.2839C71.0421 57.1464 73.2784 54.91 73.2784 52.1519V48.5605C73.2784 51.3187 71.0421 53.5551 68.2839 53.5551Z" fill="#EDAA9D"/>
<path d="M62.2354 49.6831C62.2354 51.4891 60.7717 52.9528 58.9663 52.9528C57.1609 52.9528 55.6973 51.4891 55.6973 49.6831C55.6973 47.8777 57.1609 46.4141 58.9663 46.4141C60.7717 46.4141 62.2354 47.8777 62.2354 49.6831Z" fill="#CE675D"/>
<path d="M50.9122 66.6199C50.9122 74.0088 44.9228 79.9982 37.5345 79.9982C30.1456 79.9982 24.1562 74.0088 24.1562 66.6199C24.1562 59.2316 30.1456 53.2422 37.5345 53.2422C44.9228 53.2422 50.9122 59.2316 50.9122 66.6199Z" fill="#FFCD34"/>
<path d="M42.0433 68.9277C42.0433 67.0088 40.4827 65.4481 38.5637 65.4481H36.505C35.8788 65.4481 35.3691 64.9391 35.3691 64.3129C35.3691 63.6866 35.8788 63.177 36.505 63.177H40.4454C41.0924 63.177 41.6173 62.6521 41.6173 62.0051C41.6173 61.3582 41.0924 60.8333 40.4454 60.8333H38.9281V59.7773C38.9281 59.1304 38.4032 58.6055 37.7562 58.6055C37.1093 58.6055 36.5843 59.1304 36.5843 59.7773V60.8333H36.505C34.5861 60.8333 33.0254 62.3939 33.0254 64.3129C33.0254 66.2312 34.5861 67.7919 36.505 67.7919H38.5637C39.1899 67.7919 39.6996 68.3015 39.6996 68.9277C39.6996 69.554 39.1899 70.0636 38.5637 70.0636H34.6233C33.9763 70.0636 33.4514 70.5879 33.4514 71.2355C33.4514 71.8824 33.9763 72.4073 34.6233 72.4073H36.5843V73.4626C36.5843 74.1102 37.1093 74.6345 37.7562 74.6345C38.4032 74.6345 38.9281 74.1102 38.9281 73.4626V72.3878C40.6761 72.2053 42.0433 70.7234 42.0433 68.9277Z" fill="#E69012"/>
</svg>
