<svg width="75" height="75" viewBox="0 0 75 75" fill="none" xmlns="http://www.w3.org/2000/svg">
<g id="fi_12901935" clip-path="url(#clip0_3325_3429)">
<g id="Layer 10">
<g id="INFO">
<path id="Vector" d="M37.5 0C16.79 0 0 16.7812 0 37.5C0 58.2188 16.79 75 37.5 75C58.21 75 75 58.2026 75 37.5C75 16.7974 58.21 0 37.5 0Z" fill="#DB3A3C" fill-opacity="0.88"/>
<path id="Vector_2" d="M17.5943 58.503C40.1368 58.503 58.4122 40.2276 58.4122 17.6837C58.4165 13.4209 57.7522 9.18388 56.4434 5.12702C50.6996 1.75812 44.1589 -0.0121077 37.5 6.23285e-05C16.7901 6.23285e-05 4.26477e-05 16.7813 4.26477e-05 37.5001C-0.0101186 44.2218 1.79568 50.8214 5.2266 56.6016C9.22679 57.8679 13.3985 58.5093 17.5943 58.503Z" fill="#FF5A54"/>
<path id="Vector_3" d="M37.4839 62.9296C36.2783 62.9296 35.0998 62.5721 34.0974 61.9022C33.095 61.2324 32.3138 60.2804 31.8525 59.1666C31.3912 58.0527 31.2706 56.8271 31.5059 55.6447C31.7412 54.4623 32.3219 53.3762 33.1744 52.5239C34.027 51.6715 35.1132 51.0911 36.2957 50.8561C37.4781 50.6211 38.7037 50.742 39.8174 51.2035C40.9312 51.6651 41.883 52.4466 42.5526 53.4491C43.2222 54.4516 43.5794 55.6302 43.5791 56.8358C43.5787 58.4521 42.9364 60.0021 41.7933 61.1448C40.6503 62.2876 39.1002 62.9296 37.4839 62.9296ZM43.3916 41.9384C43.2894 42.8799 42.8639 43.7569 42.1875 44.4198C41.5029 45.0888 40.6115 45.5056 39.6592 45.6019H39.6313C39.0342 45.6703 38.4336 45.7045 37.8325 45.7045C37.112 45.7082 36.3917 45.6739 35.6748 45.6019H35.6455C34.6937 45.5053 33.8029 45.0885 33.1187 44.4198C32.4423 43.7569 32.0167 42.8799 31.9146 41.9384C31.7681 40.5629 31.6948 31.0092 31.6948 28.8822C31.6948 26.7553 31.7695 17.1752 31.9146 15.8012C32.0155 14.8567 32.4411 13.9765 33.1187 13.3109C33.8033 12.6428 34.6939 12.2261 35.6455 12.1288H35.6748C36.3917 12.0572 37.1126 12.0352 37.8325 12.0629C38.4324 12.0351 39.0336 12.0572 39.6299 12.1288H39.6592C40.6123 12.2278 41.5036 12.6471 42.1875 13.3182C42.8651 13.9839 43.2907 14.864 43.3916 15.8085C43.5381 17.184 43.6113 26.7626 43.6113 28.8895C43.6113 31.0165 43.5366 40.5629 43.3916 41.9384Z" fill="white"/>
</g>
</g>
</g>
<defs>
<clipPath id="clip0_3325_3429">
<rect width="75" height="75" fill="white"/>
</clipPath>
</defs>
</svg>
