<svg width="14" height="14" viewBox="0 0 14 14" fill="none" xmlns="http://www.w3.org/2000/svg">
<g clip-path="url(#clip0_11953_15303)">
<path d="M0 11.082C0.00092625 11.8553 0.308514 12.5966 0.855295 13.1434C1.40208 13.6902 2.1434 13.9978 2.91667 13.9987H11.0833C11.8566 13.9978 12.5979 13.6902 13.1447 13.1434C13.6915 12.5966 13.9991 11.8553 14 11.082V5.83203H0V11.082ZM9.91667 8.45703C10.0897 8.45703 10.2589 8.50835 10.4028 8.6045C10.5467 8.70064 10.6588 8.8373 10.7251 8.99718C10.7913 9.15707 10.8086 9.333 10.7749 9.50274C10.7411 9.67247 10.6578 9.82838 10.5354 9.95075C10.413 10.0731 10.2571 10.1565 10.0874 10.1902C9.91764 10.224 9.7417 10.2067 9.58182 10.1404C9.42193 10.0742 9.28528 9.96205 9.18913 9.81816C9.09298 9.67426 9.04167 9.50509 9.04167 9.33203C9.04167 9.09997 9.13385 8.87741 9.29795 8.71331C9.46204 8.54922 9.6846 8.45703 9.91667 8.45703ZM7 8.45703C7.17306 8.45703 7.34223 8.50835 7.48612 8.6045C7.63002 8.70064 7.74217 8.8373 7.80839 8.99718C7.87462 9.15707 7.89195 9.333 7.85819 9.50274C7.82442 9.67247 7.74109 9.82838 7.61872 9.95075C7.49635 10.0731 7.34044 10.1565 7.1707 10.1902C7.00097 10.224 6.82504 10.2067 6.66515 10.1404C6.50527 10.0742 6.36861 9.96205 6.27246 9.81816C6.17632 9.67426 6.125 9.50509 6.125 9.33203C6.125 9.09997 6.21719 8.87741 6.38128 8.71331C6.54538 8.54922 6.76794 8.45703 7 8.45703ZM4.08333 8.45703C4.25639 8.45703 4.42556 8.50835 4.56946 8.6045C4.71335 8.70064 4.8255 8.8373 4.89173 8.99718C4.95795 9.15707 4.97528 9.333 4.94152 9.50274C4.90776 9.67247 4.82442 9.82838 4.70205 9.95075C4.57968 10.0731 4.42377 10.1565 4.25404 10.1902C4.0843 10.224 3.90837 10.2067 3.74849 10.1404C3.5886 10.0742 3.45194 9.96205 3.3558 9.81816C3.25965 9.67426 3.20833 9.50509 3.20833 9.33203C3.20833 9.09997 3.30052 8.87741 3.46461 8.71331C3.62871 8.54922 3.85127 8.45703 4.08333 8.45703Z" fill="#A1A5AF"/>
<path d="M11.0833 1.16667H10.5V0.583333C10.5 0.428624 10.4385 0.280251 10.3291 0.170854C10.2197 0.0614582 10.0714 0 9.91667 0C9.76196 0 9.61358 0.0614582 9.50419 0.170854C9.39479 0.280251 9.33333 0.428624 9.33333 0.583333V1.16667H4.66667V0.583333C4.66667 0.428624 4.60521 0.280251 4.49581 0.170854C4.38642 0.0614582 4.23804 0 4.08333 0C3.92862 0 3.78025 0.0614582 3.67085 0.170854C3.56146 0.280251 3.5 0.428624 3.5 0.583333V1.16667H2.91667C2.1434 1.16759 1.40208 1.47518 0.855295 2.02196C0.308514 2.56874 0.00092625 3.31007 0 4.08333L0 4.66667H14V4.08333C13.9991 3.31007 13.6915 2.56874 13.1447 2.02196C12.5979 1.47518 11.8566 1.16759 11.0833 1.16667Z" fill="#A1A5AF"/>
</g>
<defs>
<clipPath id="clip0_11953_15303">
<rect width="14" height="14" fill="white"/>
</clipPath>
</defs>
</svg>
