<svg width="172" height="150" viewBox="0 0 172 150" fill="none" xmlns="http://www.w3.org/2000/svg">
<g id="12953779_Jan-Business_team_3 1">
<g id="OBJECTS">
<g id="Group">
<g id="Group_2">
<path id="Vector" opacity="0.4" d="M161.183 101.163C164.253 98.0927 164.253 93.1144 161.183 90.0438C158.112 86.9733 153.134 86.9733 150.064 90.0438C146.993 93.1144 146.993 98.0927 150.064 101.163C153.134 104.234 158.112 104.234 161.183 101.163Z" fill="#E5E5FF"/>
<path id="Vector_2" opacity="0.4" d="M34.7206 49.2024C39.4049 44.5181 39.4049 36.9233 34.7206 32.239C30.0363 27.5546 22.4415 27.5546 17.7571 32.239C13.0728 36.9233 13.0728 44.5181 17.7571 49.2024C22.4415 53.8868 30.0363 53.8868 34.7206 49.2024Z" fill="#E5E5FF"/>
<path id="Vector_3" opacity="0.4" d="M67.7295 29.1895C71.183 29.1895 73.9825 26.39 73.9825 22.9366C73.9825 19.4831 71.183 16.6836 67.7295 16.6836C64.2761 16.6836 61.4766 19.4831 61.4766 22.9366C61.4766 26.39 64.2761 29.1895 67.7295 29.1895Z" fill="#E5E5FF"/>
<path id="Vector_4" d="M58.7749 26.0289C58.3882 26.0289 57.9976 25.9984 57.6145 25.9383L57.6515 25.7028C58.0225 25.7611 58.4006 25.7905 58.7754 25.7905L58.8189 25.7904L58.8204 26.0287L58.7749 26.0289ZM60.0252 25.9235L59.9853 25.6885C60.3682 25.6235 60.75 25.5266 61.1203 25.4004L61.1972 25.6259C60.8148 25.7563 60.4205 25.8564 60.0252 25.9235ZM56.4388 25.6556C56.0564 25.5304 55.6811 25.3735 55.3234 25.1889L55.4327 24.9772C55.779 25.1559 56.1424 25.3079 56.5128 25.429L56.4388 25.6556ZM62.3069 25.1463L62.1952 24.9359C62.5401 24.7529 62.8721 24.5408 63.1817 24.3057L63.3258 24.4955C63.006 24.7384 62.6631 24.9573 62.3069 25.1463ZM54.2969 24.5506C53.973 24.3112 53.6664 24.044 53.3857 23.7561L53.5563 23.5897C53.828 23.8683 54.1248 24.1272 54.4385 24.359L54.2969 24.5506ZM64.2265 23.6889L64.0537 23.5247C64.3216 23.2425 64.5689 22.936 64.7887 22.6137L64.9855 22.7479C64.7586 23.0809 64.5032 23.3974 64.2265 23.6889ZM52.6142 22.8252C52.3837 22.4962 52.1781 22.1452 52.0028 21.7821L52.2175 21.6785C52.3871 22.0302 52.5862 22.3699 52.8094 22.6885L52.6142 22.8252ZM65.5844 21.6976L65.3686 21.5965C65.5341 21.2433 65.6723 20.8744 65.7792 20.4999L66.0083 20.5653C65.8979 20.952 65.7553 21.333 65.5844 21.6976ZM51.5655 20.6551C51.4497 20.2685 51.3647 19.8707 51.3128 19.4725L51.5491 19.4418C51.5994 19.8272 51.6818 20.2124 51.7937 20.5868L51.5655 20.6551ZM66.246 19.3798L66.0095 19.3519C66.0425 19.0711 66.0593 18.7857 66.0593 18.5035C66.0593 18.3966 66.0569 18.2883 66.0522 18.1817L66.2901 18.1711C66.2951 18.2812 66.2976 18.3931 66.2976 18.5035C66.2976 18.7951 66.2802 19.0899 66.246 19.3798ZM51.4921 18.2719L51.2539 18.2642C51.267 17.8624 51.3129 17.4581 51.3906 17.0626L51.6244 17.1086C51.5492 17.4914 51.5047 17.8828 51.4921 18.2719ZM65.9055 17.0202C65.8259 16.6404 65.7145 16.2624 65.5743 15.8969L65.7967 15.8116C65.9415 16.1889 66.0565 16.5791 66.1387 16.9713L65.9055 17.0202ZM51.9414 15.9814L51.7179 15.8987C51.8574 15.5213 52.0286 15.1524 52.2264 14.802L52.4339 14.9191C52.2423 15.2585 52.0765 15.6158 51.9414 15.9814ZM65.5526 15.8413C65.4097 15.4773 65.237 15.1232 65.0394 14.789L65.2444 14.6678C65.4486 15.0128 65.6268 15.3783 65.7744 15.7542L65.5526 15.8413ZM53.0895 13.9492L52.9034 13.8003C53.155 13.4857 53.4339 13.1895 53.7322 12.9202L53.892 13.097C53.6031 13.358 53.3331 13.6447 53.0895 13.9492ZM64.3639 13.833C64.1143 13.5344 63.8382 13.2536 63.5433 12.9985L63.6992 12.8183C64.0039 13.0818 64.289 13.3717 64.5468 13.6802L64.3639 13.833ZM54.8213 12.3855L54.6923 12.1852C55.0296 11.9679 55.3882 11.7757 55.758 11.6143L55.8534 11.8326C55.4951 11.989 55.148 12.1751 54.8213 12.3855ZM62.5991 12.3066C62.2674 12.1023 61.9165 11.9231 61.5563 11.7741L61.6474 11.5538C62.0193 11.7077 62.3816 11.8928 62.7241 12.1037L62.5991 12.3066ZM56.9603 11.4502L56.9007 11.2195C57.2912 11.1186 57.692 11.0489 58.0921 11.0124L58.1137 11.2496C57.7265 11.2851 57.3384 11.3526 56.9603 11.4502ZM60.4419 11.4144C60.0624 11.3247 59.673 11.2652 59.2845 11.2377L59.3014 11C59.7026 11.0285 60.1047 11.0899 60.4968 11.1825L60.4419 11.4144Z" fill="#4153B3" fill-opacity="0.42"/>
<path id="Vector_5" d="M133.843 109.302L133.839 109.064C134.234 109.057 134.632 109.041 135.024 109.016L135.039 109.253C134.644 109.279 134.242 109.295 133.843 109.302ZM132.647 109.295C132.25 109.284 131.848 109.263 131.452 109.233L131.47 108.995C131.862 109.025 132.26 109.046 132.654 109.057L132.647 109.295ZM136.23 109.149L136.204 108.913C136.595 108.869 136.991 108.816 137.379 108.754L137.416 108.989C137.024 109.052 136.626 109.105 136.23 109.149ZM130.261 109.115C129.868 109.066 129.47 109.008 129.077 108.941L129.118 108.706C129.506 108.772 129.901 108.83 130.29 108.878L130.261 109.115ZM138.593 108.774L138.544 108.54C138.931 108.46 139.319 108.37 139.699 108.272L139.758 108.503C139.375 108.601 138.983 108.693 138.593 108.774ZM127.903 108.711C127.515 108.626 127.124 108.53 126.741 108.426L126.803 108.196C127.183 108.299 127.57 108.394 127.954 108.479L127.903 108.711ZM140.91 108.176L140.839 107.949C141.216 107.832 141.594 107.706 141.963 107.572L142.044 107.796C141.671 107.931 141.29 108.059 140.91 108.176ZM125.594 108.087C125.216 107.965 124.835 107.832 124.461 107.692L124.545 107.469C124.915 107.608 125.293 107.739 125.667 107.86L125.594 108.087ZM143.157 107.364L143.065 107.144C143.426 106.993 143.79 106.832 144.146 106.663L144.248 106.879C143.888 107.049 143.521 107.212 143.157 107.364ZM123.349 107.244C122.983 107.087 122.616 106.918 122.259 106.744L122.364 106.53C122.718 106.703 123.081 106.869 123.443 107.025L123.349 107.244ZM145.315 106.343L145.203 106.133C145.55 105.948 145.897 105.753 146.235 105.552L146.357 105.757C146.015 105.96 145.665 106.157 145.315 106.343ZM121.195 106.193C120.847 106.002 120.498 105.8 120.158 105.593L120.282 105.389C120.619 105.595 120.965 105.795 121.31 105.984L121.195 106.193ZM147.37 105.123L147.238 104.924C147.567 104.707 147.895 104.48 148.212 104.249L148.352 104.442C148.032 104.675 147.702 104.904 147.37 105.123ZM119.151 104.944C118.823 104.722 118.495 104.488 118.176 104.249L118.319 104.059C118.635 104.295 118.96 104.527 119.285 104.747L119.151 104.944ZM149.301 103.715L149.152 103.529C149.459 103.283 149.764 103.026 150.059 102.766L150.216 102.944C149.919 103.207 149.611 103.466 149.301 103.715ZM117.235 103.51C116.928 103.257 116.623 102.993 116.329 102.727L116.489 102.55C116.78 102.814 117.082 103.075 117.386 103.326L117.235 103.51ZM151.094 102.132L150.928 101.961C151.211 101.687 151.49 101.402 151.76 101.115L151.933 101.279C151.661 101.568 151.379 101.855 151.094 102.132ZM115.461 101.903C115.179 101.622 114.901 101.332 114.633 101.039L114.809 100.878C115.074 101.168 115.35 101.456 115.629 101.734L115.461 101.903ZM152.732 100.387L152.55 100.232C152.807 99.9322 153.059 99.6227 153.299 99.3127L153.488 99.4588C153.245 99.7718 152.99 100.084 152.732 100.387ZM113.847 100.138C113.592 99.8326 113.342 99.5174 113.103 99.2015L113.293 99.0577C113.53 99.3708 113.778 99.6831 114.03 99.9857L113.847 100.138ZM154.199 98.4959L154.005 98.3588C154.231 98.0362 154.453 97.7045 154.664 97.3727L154.865 97.5005C154.653 97.8353 154.429 98.1702 154.199 98.4959ZM112.405 98.231C112.181 97.9039 111.962 97.5669 111.753 97.2293L111.956 97.1041C112.162 97.4385 112.38 97.7724 112.602 98.0964L112.405 98.231ZM155.484 96.4747L155.277 96.3565C155.472 96.0151 155.662 95.6637 155.841 95.3122L156.053 95.4205C155.872 95.7753 155.681 96.13 155.484 96.4747ZM111.149 96.1983C110.956 95.8512 110.77 95.4954 110.594 95.1402L110.808 95.0347C110.982 95.3863 111.167 95.7391 111.357 96.0827L111.149 96.1983ZM156.573 94.3401L156.356 94.242C156.518 93.8819 156.674 93.5138 156.819 93.1484L157.04 93.236C156.894 93.6051 156.737 93.9765 156.573 94.3401ZM110.09 94.0577C109.931 93.6942 109.779 93.3224 109.638 92.953L109.861 92.8679C110 93.2338 110.151 93.602 110.308 93.9621L110.09 94.0577ZM157.455 92.1108L157.23 92.0337C157.357 91.662 157.477 91.2816 157.586 90.9033L157.815 90.9696C157.704 91.3516 157.583 91.7355 157.455 92.1108ZM109.238 91.8255C109.113 91.4472 108.997 91.0618 108.891 90.68L109.121 90.6165C109.225 90.9947 109.341 91.3764 109.464 91.7509L109.238 91.8255ZM158.121 89.8128L157.889 89.7573C157.98 89.3756 158.064 88.9856 158.137 88.5984L158.371 88.6427C158.297 89.0337 158.213 89.4275 158.121 89.8128ZM108.599 89.5194C108.512 89.1335 108.433 88.739 108.363 88.3466L108.598 88.3048C108.667 88.6936 108.745 89.0845 108.832 89.4668L108.599 89.5194ZM158.566 87.4622L158.33 87.4288C158.384 87.0406 158.431 86.6445 158.468 86.2516L158.705 86.2737C158.668 86.6704 158.621 87.0703 158.566 87.4622ZM108.182 87.164C108.132 86.7713 108.09 86.371 108.057 85.974L108.295 85.9547C108.327 86.3479 108.368 86.7445 108.419 87.1335L108.182 87.164ZM158.788 85.0803L158.55 85.0693C158.568 84.6778 158.577 84.2791 158.577 83.8843H158.816C158.816 84.2827 158.806 84.6852 158.788 85.0803ZM107.988 84.7796C107.978 84.4838 107.973 84.1826 107.973 83.8843C107.973 83.7837 107.973 83.6833 107.974 83.583L108.213 83.5858C108.211 83.6852 108.211 83.7847 108.211 83.8843C108.211 84.1799 108.216 84.4782 108.226 84.7714L107.988 84.7796ZM158.571 83.2988C158.562 82.9048 158.543 82.5065 158.516 82.1146L158.754 82.0981C158.781 82.4936 158.8 82.8956 158.809 83.2933L158.571 83.2988ZM108.254 82.4012L108.016 82.3874C108.039 81.9898 108.072 81.5886 108.113 81.1949L108.35 81.2199C108.309 81.6099 108.277 82.0073 108.254 82.4012ZM158.406 80.9345C158.361 80.5446 158.305 80.1497 158.241 79.7609L158.477 79.7222C158.541 80.1148 158.597 80.5133 158.643 80.907L158.406 80.9345ZM108.502 80.0445L108.266 80.0085C108.326 79.6155 108.397 79.2191 108.475 78.8304L108.709 78.8775C108.631 79.2626 108.561 79.6553 108.502 80.0445ZM158.021 78.5962C157.939 78.2123 157.847 77.8244 157.746 77.4433L157.976 77.3825C158.078 77.7673 158.171 78.1589 158.254 78.5463L158.021 78.5962ZM108.97 77.7215L108.739 77.6634C108.836 77.2781 108.944 76.8901 109.059 76.5103L109.287 76.5793C109.173 76.9554 109.066 77.3398 108.97 77.7215ZM157.417 76.3049C157.298 75.9294 157.169 75.5521 157.034 75.1832L157.257 75.1009C157.394 75.4733 157.524 75.8542 157.644 76.2332L157.417 76.3049ZM109.658 75.4503L109.433 75.3705C109.567 74.9953 109.711 74.6184 109.862 74.2505L110.082 74.3407C109.933 74.7053 109.79 75.0786 109.658 75.4503ZM156.599 74.0836C156.446 73.7229 156.283 73.3602 156.113 73.0053L156.328 72.9023C156.499 73.2605 156.665 73.6267 156.818 73.9907L156.599 74.0836ZM110.558 73.2528L110.343 73.152C110.51 72.7926 110.689 72.4313 110.875 72.0782L111.086 72.1889C110.902 72.5388 110.725 72.8968 110.558 73.2528ZM155.576 71.9509C155.39 71.6061 155.193 71.2602 154.99 70.9226L155.194 70.7998C155.399 71.1406 155.598 71.4898 155.786 71.838L155.576 71.9509ZM111.662 71.1516L111.457 71.0309C111.658 70.6884 111.87 70.3457 112.087 70.0125L112.287 70.1426C112.072 70.4729 111.861 70.8124 111.662 71.1516ZM154.356 69.9226C154.138 69.596 153.909 69.2699 153.676 68.9532L153.867 68.8118C154.103 69.1315 154.334 69.4607 154.554 69.7904L154.356 69.9226ZM112.958 69.1646L112.765 69.0252C112.997 68.7035 113.241 68.3824 113.488 68.071L113.675 68.2193C113.429 68.5279 113.188 68.8459 112.958 69.1646ZM152.95 68.0165C152.702 67.7114 152.444 67.4079 152.182 67.1145L152.359 66.9557C152.624 67.2519 152.885 67.5582 153.135 67.8662L152.95 68.0165ZM114.435 67.3088L114.255 67.1519C114.517 66.8527 114.789 66.5559 115.064 66.2699L115.236 66.435C114.964 66.7183 114.694 67.0124 114.435 67.3088ZM151.372 66.2494C151.096 65.968 150.81 65.6899 150.522 65.4228L150.684 65.2482C150.975 65.5178 151.263 65.7986 151.542 66.0825L151.372 66.2494ZM116.077 65.6L115.913 65.427C116.202 65.1537 116.5 64.8838 116.801 64.6248L116.956 64.8053C116.659 65.0618 116.363 65.3293 116.077 65.6ZM149.634 64.6367C149.335 64.3833 149.024 64.1331 148.711 63.8929L148.856 63.7039C149.172 63.9463 149.486 64.199 149.788 64.4547L149.634 64.6367ZM117.872 64.0527L117.724 63.8651C118.037 63.6205 118.359 63.3797 118.683 63.1497L118.821 63.3439C118.5 63.5718 118.181 63.8102 117.872 64.0527ZM147.753 63.193C147.429 62.968 147.096 62.7478 146.763 62.5388L146.89 62.337C147.226 62.5481 147.562 62.7702 147.889 62.9974L147.753 63.193ZM119.802 62.6807L119.673 62.4802C120.007 62.2657 120.35 62.0564 120.693 61.8581L120.812 62.0644C120.473 62.2609 120.133 62.4683 119.802 62.6807ZM145.743 61.9318C145.4 61.7383 145.048 61.5504 144.696 61.3735L144.803 61.1606C145.158 61.3393 145.514 61.529 145.86 61.7243L145.743 61.9318ZM121.851 61.4965L121.742 61.2848C122.093 61.1031 122.455 60.927 122.815 60.7618L122.915 60.9784C122.557 61.1422 122.199 61.3165 121.851 61.4965ZM143.623 60.8651C143.263 60.7049 142.894 60.5511 142.527 60.4081L142.613 60.186C142.984 60.3304 143.356 60.4857 143.72 60.6474L143.623 60.8651ZM124.001 60.5113L123.912 60.2903C124.281 60.1418 124.658 60.0004 125.032 59.8701L125.111 60.0952C124.74 60.2242 124.367 60.3642 124.001 60.5113ZM141.41 60.0036C141.036 59.8784 140.655 59.7605 140.277 59.6533L140.342 59.4241C140.724 59.5324 141.109 59.6513 141.485 59.7777L141.41 60.0036ZM126.239 59.7321L126.172 59.5037C126.552 59.3912 126.94 59.2862 127.327 59.1916L127.383 59.423C127.001 59.5166 126.616 59.6207 126.239 59.7321ZM139.129 59.3572C138.746 59.268 138.356 59.1868 137.969 59.1158L138.012 58.8814C138.403 58.9531 138.797 59.0351 139.183 59.1252L139.129 59.3572ZM128.541 59.1685L128.495 58.9346C128.885 58.8585 129.282 58.7908 129.675 58.7332L129.709 58.969C129.32 59.0259 128.927 59.0931 128.541 59.1685ZM136.799 58.9293C136.409 58.8767 136.013 58.8326 135.621 58.7983L135.641 58.561C136.037 58.5957 136.437 58.6402 136.831 58.6933L136.799 58.9293ZM130.886 58.8246L130.862 58.5875C131.256 58.5485 131.658 58.5182 132.055 58.4976L132.067 58.7356C131.674 58.756 131.276 58.7859 130.886 58.8246ZM134.438 58.7224C134.092 58.7083 133.741 58.7012 133.394 58.7012C133.346 58.7011 133.3 58.7013 133.253 58.7015L133.251 58.4633C133.299 58.4631 133.347 58.4632 133.394 58.4629C133.744 58.4629 134.098 58.4701 134.448 58.4843L134.438 58.7224Z" fill="#4153B3" fill-opacity="0.42"/>
<path id="Vector_6" d="M30.2581 81.4278C29.8582 81.4254 29.4552 81.4089 29.0601 81.3785L29.0783 81.141C29.4677 81.1709 29.8652 81.1872 30.2595 81.1895L30.2581 81.4278ZM31.4569 81.3924L31.4414 81.1547C31.8329 81.1292 32.2286 81.0894 32.6175 81.0361L32.6499 81.2722C32.2554 81.3261 31.854 81.3666 31.4569 81.3924ZM27.8686 81.2445C27.4738 81.1857 27.0771 81.112 26.6895 81.0252L26.7415 80.7928C27.1236 80.8783 27.5146 80.9509 27.9036 81.0089L27.8686 81.2445ZM33.8313 81.0666L33.782 80.8336C34.1658 80.7525 34.5518 80.6564 34.9291 80.5477L34.9949 80.7768C34.6122 80.8869 34.2206 80.9844 33.8313 81.0666ZM25.5293 80.7216C25.1474 80.6067 24.7649 80.4765 24.3924 80.3344L24.4773 80.1118C24.8445 80.2518 25.2215 80.3802 25.5979 80.4934L25.5293 80.7216ZM36.1348 80.4034L36.0526 80.1797C36.4202 80.0446 36.7878 79.894 37.1453 79.7324L37.2435 79.9495C36.8807 80.1135 36.5078 80.2663 36.1348 80.4034ZM23.2868 79.8662C22.926 79.6978 22.5664 79.5139 22.218 79.3198L22.3341 79.1116C22.6775 79.3031 23.0319 79.4843 23.3876 79.6502L23.2868 79.8662ZM38.3168 79.417L38.2034 79.2075C38.5478 79.0209 38.8903 78.8191 39.2214 78.6077L39.3496 78.8085C39.0138 79.023 38.6663 79.2277 38.3168 79.417ZM21.1914 78.6981C20.8585 78.4799 20.529 78.2466 20.2122 78.0048L20.3568 77.8154C20.6692 78.0538 20.9941 78.2837 21.3222 78.4989L21.1914 78.6981ZM40.3363 78.1277L40.1941 77.9365C40.509 77.7023 40.8194 77.4536 41.1167 77.1975L41.2722 77.3781C40.9707 77.6378 40.6558 77.89 40.3363 78.1277ZM19.2852 77.2434C18.9869 76.9801 18.694 76.7025 18.4148 76.4182L18.5847 76.2512C18.8601 76.5315 19.1488 76.8053 19.4428 77.0648L19.2852 77.2434ZM42.1524 76.5636L41.9845 76.3946C42.263 76.1178 42.535 75.8275 42.793 75.5317L42.9725 75.6883C42.7109 75.9883 42.4349 76.2829 42.1524 76.5636ZM17.6054 75.5331C17.3472 75.2296 17.0968 74.9133 16.8613 74.5928L17.0534 74.4516C17.2856 74.7676 17.5323 75.0794 17.7869 75.3786L17.6054 75.5331ZM43.7285 74.7567L43.5382 74.6133C43.7747 74.2995 44.0028 73.9734 44.216 73.6439L44.416 73.7733C44.1997 74.1076 43.9683 74.4385 43.7285 74.7567ZM16.1864 73.6021C15.9743 73.2654 15.7717 72.9168 15.5842 72.5658L15.7943 72.4536C15.9791 72.7994 16.1789 73.1431 16.388 73.4751L16.1864 73.6021ZM45.0314 72.7431L44.8227 72.6284C45.0121 72.2838 45.1912 71.9283 45.355 71.5717L45.5715 71.6712C45.4053 72.033 45.2237 72.3936 45.0314 72.7431ZM15.058 71.4893C14.8962 71.1257 14.7457 70.7518 14.6107 70.378L14.8349 70.297C14.9679 70.6655 15.1162 71.0339 15.2757 71.3924L15.058 71.4893ZM46.0331 70.5627L45.81 70.4791C45.9477 70.1114 46.0737 69.7342 46.1845 69.3578L46.413 69.4251C46.3007 69.8069 46.1729 70.1896 46.0331 70.5627ZM14.2442 69.2361C14.1363 68.8527 14.0411 68.4606 13.9612 68.0706L14.1946 68.0228C14.2733 68.4071 14.3672 68.7935 14.4735 69.1715L14.2442 69.2361ZM46.7098 68.2631L46.477 68.2125C46.5603 67.8293 46.6307 67.4379 46.6864 67.049L46.9223 67.0829C46.8658 67.4772 46.7943 67.8744 46.7098 68.2631ZM13.7628 66.888C13.7112 66.4938 13.673 66.0921 13.6496 65.6943L13.8875 65.6803C13.9106 66.0726 13.9482 66.4685 13.9991 66.8571L13.7628 66.888ZM47.0494 65.8905L46.8117 65.8738C46.8394 65.483 46.8534 65.0855 46.8534 64.6923H47.0916C47.0916 65.091 47.0774 65.4941 47.0494 65.8905ZM13.8594 64.4981L13.6211 64.4953C13.6257 64.0965 13.6446 63.6936 13.6772 63.2976L13.9146 63.3172C13.8825 63.7077 13.8639 64.1049 13.8594 64.4981ZM46.8347 63.8987C46.816 63.5056 46.7831 63.1093 46.7368 62.7206L46.9734 62.6924C47.0204 63.0867 47.0537 63.4887 47.0727 63.8874L46.8347 63.8987ZM14.054 62.1433L13.8185 62.1068C13.8796 61.713 13.9557 61.3168 14.0447 60.9292L14.2769 60.9826C14.1892 61.3647 14.1142 61.7552 14.054 62.1433ZM46.555 61.5526C46.4807 61.1673 46.3915 60.7797 46.2897 60.4007L46.5198 60.3389C46.6231 60.7235 46.7136 61.1168 46.7889 61.5076L46.555 61.5526ZM14.5832 59.8408L14.3554 59.7708C14.4725 59.3895 14.6051 59.0078 14.7493 58.6363L14.9713 58.7226C14.8292 59.0887 14.6986 59.465 14.5832 59.8408ZM45.942 59.2709C45.8133 58.9007 45.6693 58.5304 45.5143 58.1705L45.7331 58.0762C45.8905 58.4415 46.0365 58.817 46.1671 59.1927L45.942 59.2709ZM15.4394 57.6355L15.2241 57.5335C15.3946 57.1737 15.5806 56.8152 15.7768 56.4679L15.9843 56.5852C15.7908 56.9275 15.6074 57.2808 15.4394 57.6355ZM45.0082 57.1033C44.8275 56.755 44.6318 56.409 44.4266 56.0748L44.6297 55.9501C44.8378 56.2891 45.0363 56.6402 45.2196 56.9935L45.0082 57.1033ZM16.603 55.577L16.4044 55.4452C16.6247 55.1135 16.8599 54.7854 17.1035 54.47L17.2921 54.6156C17.052 54.9266 16.8201 55.2501 16.603 55.577ZM43.773 55.0905C43.5442 54.7716 43.3011 54.4569 43.0503 54.1551L43.2336 54.0028C43.488 54.3089 43.7346 54.6282 43.9665 54.9517L43.773 55.0905ZM18.048 53.7062L17.8704 53.5475C18.1356 53.2505 18.415 52.9593 18.7007 52.6819L18.8667 52.8528C18.585 53.1263 18.3096 53.4134 18.048 53.7062ZM42.2628 53.2732C41.991 52.9898 41.7055 52.7127 41.4143 52.4495L41.5742 52.2728C41.8695 52.5398 42.1591 52.8208 42.4347 53.1083L42.2628 53.2732ZM19.7439 52.0602L19.5905 51.8778C19.895 51.6217 20.2128 51.3733 20.5351 51.1392L20.6752 51.332C20.3574 51.5627 20.0441 51.8078 19.7439 52.0602ZM40.5093 51.6884C40.1997 51.4464 39.8778 51.2126 39.5521 50.9934L39.685 50.7958C40.0154 51.018 40.3421 51.2551 40.656 51.5006L40.5093 51.6884ZM21.6557 50.6726L21.5299 50.4703C21.8679 50.2601 22.2176 50.0595 22.5697 49.8742L22.6808 50.0851C22.3337 50.2678 21.9888 50.4654 21.6557 50.6726ZM38.5475 50.3689C38.2066 50.1735 37.8543 49.988 37.5005 49.8178L37.6039 49.6031C37.9629 49.7759 38.3202 49.9639 38.666 50.1622L38.5475 50.3689ZM23.7449 49.5727L23.6493 49.3544C24.0136 49.195 24.3882 49.0467 24.7632 48.9138L24.8428 49.1384C24.4732 49.2693 24.1038 49.4154 23.7449 49.5727ZM36.4163 49.3435C36.051 49.1991 35.6756 49.0661 35.3004 48.9485L35.3717 48.7211C35.7523 48.8405 36.1331 48.9753 36.5038 49.1218L36.4163 49.3435ZM25.9705 48.7839L25.9073 48.5542C26.2907 48.4487 26.6834 48.3559 27.0743 48.278L27.1208 48.5117C26.7355 48.5883 26.3485 48.6799 25.9705 48.7839ZM34.1605 48.6356C33.7787 48.5454 33.3885 48.4681 33.001 48.4056L33.0388 48.1704C33.432 48.2338 33.8278 48.3122 34.2151 48.4036L34.1605 48.6356ZM28.2877 48.3231L28.2581 48.0867C28.6523 48.0374 29.0542 48.0017 29.4524 47.9804L29.4651 48.2183C29.0725 48.2393 28.6764 48.2745 28.2877 48.3231ZM31.828 48.2595C31.4377 48.225 31.0405 48.204 30.6476 48.1973L30.6517 47.959C31.0504 47.9659 31.4531 47.9872 31.8491 48.0222L31.828 48.2595Z" fill="#4153B3" fill-opacity="0.42"/>
<path id="Vector_7" d="M97.3703 24.5726C95.1533 24.5726 93.3496 22.769 93.3496 20.552C93.3496 18.335 95.1533 16.5312 97.3703 16.5312C99.5873 16.5312 101.391 18.3349 101.391 20.552C101.391 22.769 99.5872 24.5726 97.3703 24.5726ZM97.3703 16.71C95.2518 16.71 93.5283 18.4334 93.5283 20.552C93.5283 22.6704 95.2518 24.3939 97.3703 24.3939C99.4889 24.3939 101.212 22.6704 101.212 20.552C101.212 18.4334 99.4888 16.71 97.3703 16.71Z" fill="#4153B3" fill-opacity="0.42"/>
</g>
<g id="Group_3">
<g id="Group_4">
<g id="Group_5">
<path id="Vector_8" d="M139.201 39.006V111.458C139.201 112.966 137.978 114.189 136.472 114.189H31.1837C29.6755 114.189 28.4531 112.966 28.4531 111.458V39.006C28.4531 37.4977 29.6755 36.2754 31.1837 36.2754H136.472C137.978 36.2754 139.201 37.4977 139.201 39.006Z" fill="white"/>
<path id="Vector_9" d="M136.472 114.308H31.1837C29.6124 114.308 28.334 113.029 28.334 111.458V39.006C28.334 37.4346 29.6124 36.1562 31.1837 36.1562H136.472C138.042 36.1562 139.32 37.4346 139.32 39.006V111.458C139.32 113.029 138.042 114.308 136.472 114.308ZM31.1837 36.3945C29.7438 36.3945 28.5723 37.5661 28.5723 39.006V111.458C28.5723 112.898 29.7438 114.069 31.1837 114.069H136.472C137.911 114.069 139.081 112.898 139.081 111.458V39.006C139.081 37.5661 137.911 36.3945 136.472 36.3945H31.1837Z" fill="#4153B3" fill-opacity="0.42"/>
</g>
<g id="Group_6">
<path id="Vector_10" d="M139.201 39.006V43.3045H28.4531V39.006C28.4531 37.4977 29.6755 36.2754 31.1837 36.2754H136.472C137.978 36.2754 139.201 37.4977 139.201 39.006Z" fill="white"/>
<path id="Vector_11" d="M139.32 43.4236H28.334V39.006C28.334 37.4346 29.6124 36.1562 31.1837 36.1562H136.472C138.042 36.1562 139.32 37.4346 139.32 39.006V43.4236ZM28.5723 43.1853H139.081V39.006C139.081 37.5661 137.911 36.3945 136.472 36.3945H31.1837C29.7438 36.3945 28.5723 37.5661 28.5723 39.006V43.1853Z" fill="#4153B3" fill-opacity="0.42"/>
</g>
<path id="Vector_12" d="M34.6008 41.0611C35.3027 41.0611 35.8716 40.4921 35.8716 39.7903C35.8716 39.0885 35.3027 38.5195 34.6008 38.5195C33.899 38.5195 33.3301 39.0885 33.3301 39.7903C33.3301 40.4921 33.899 41.0611 34.6008 41.0611Z" fill="#4153B3"/>
<path id="Vector_13" d="M39.4466 38.5195C38.7459 38.5195 38.1758 39.0896 38.1758 39.7903C38.1758 40.491 38.7458 41.0612 39.4466 41.0612C40.1475 41.0612 40.7175 40.4911 40.7175 39.7903C40.7175 39.0896 40.1474 38.5195 39.4466 38.5195Z" fill="#4153B3"/>
<path id="Vector_14" d="M44.2903 41.0611C43.5896 41.0611 43.0195 40.491 43.0195 39.7903C43.0195 39.0896 43.5896 38.5195 44.2903 38.5195C44.991 38.5195 45.5611 39.0896 45.5611 39.7903C45.5612 40.491 44.9911 41.0611 44.2903 41.0611ZM44.2903 38.7578C43.7209 38.7578 43.2578 39.221 43.2578 39.7903C43.2578 40.3596 43.721 40.8228 44.2903 40.8228C44.8596 40.8228 45.3228 40.3596 45.3228 39.7903C45.3229 39.221 44.8597 38.7578 44.2903 38.7578Z" fill="#4153B3" fill-opacity="0.42"/>
<path id="Vector_15" d="M75.559 41.2046H51.9402C51.1601 41.2046 50.5254 40.5699 50.5254 39.7898C50.5254 39.0097 51.1601 38.375 51.9402 38.375H75.5591C76.3392 38.375 76.9739 39.0097 76.9739 39.7898C76.9739 40.5699 76.3391 41.2046 75.559 41.2046ZM51.9402 38.6133C51.2915 38.6133 50.7637 39.1411 50.7637 39.7898C50.7637 40.4385 51.2915 40.9663 51.9402 40.9663H75.5591C76.2078 40.9663 76.7356 40.4385 76.7356 39.7898C76.7356 39.1411 76.2078 38.6133 75.5591 38.6133H51.9402Z" fill="#4153B3" fill-opacity="0.42"/>
</g>
<g id="Group_7">
<path id="Vector_16" d="M105.594 77.0223C105.594 88.4308 96.3462 97.6806 84.9377 97.6806C73.5291 97.6806 64.2793 88.4308 64.2793 77.0223C64.2793 66.319 72.4211 57.5172 82.848 56.4688L83.5366 63.2476C76.5504 63.9506 71.0963 69.8502 71.0963 77.0223C71.0963 84.6685 77.2938 90.866 84.9377 90.866C92.5815 90.866 98.7766 84.6685 98.7766 77.0223C98.7766 75.6879 98.5884 74.3989 98.2357 73.1789L104.786 71.287C105.312 73.1074 105.594 75.0327 105.594 77.0223Z" fill="#4153B3" fill-opacity="0.42"/>
<path id="Vector_17" d="M84.937 93.7021C94.1487 93.7021 101.616 86.2346 101.616 77.0229C101.616 67.8113 94.1487 60.3438 84.937 60.3438C75.7253 60.3438 68.2578 67.8113 68.2578 77.0229C68.2578 86.2346 75.7253 93.7021 84.937 93.7021Z" fill="white"/>
<path id="Vector_18" opacity="0.5" d="M84.937 93.7021C94.1487 93.7021 101.616 86.2346 101.616 77.0229C101.616 67.8113 94.1487 60.3438 84.937 60.3438C75.7253 60.3438 68.2578 67.8113 68.2578 77.0229C68.2578 86.2346 75.7253 93.7021 84.937 93.7021Z" fill="#D1D1FF"/>
<g id="Group_8">
<path id="Vector_19" d="M84.937 88.839C91.4616 88.839 96.7509 83.5484 96.7509 77.022C96.7509 70.4957 91.4616 65.2051 84.937 65.2051C78.4123 65.2051 73.123 70.4957 73.123 77.022C73.123 83.5484 78.4123 88.839 84.937 88.839Z" fill="white"/>
<g id="Group_9">
<path id="Vector_20" d="M86.2864 82.8347V84.6311H84.0043V82.9158C82.3862 82.8189 80.8168 82.3814 79.8457 81.7829L81.0751 78.9986C82.1437 79.63 83.5668 80.0346 84.8132 80.0346C85.8977 80.0346 86.2864 79.8078 86.2864 79.419C86.2864 77.9949 80.0235 79.1443 80.0235 74.9194C80.0235 73.09 81.3504 71.5526 84.0042 71.1802V69.416H86.2864V71.1479C87.4828 71.2612 88.6489 71.569 89.5713 72.087L88.4223 74.8548C87.3049 74.288 86.2535 74.0133 85.2665 74.0133C84.1491 74.0133 83.7934 74.3368 83.7934 74.7249C83.7934 76.0851 90.0562 74.9517 90.0562 79.1277C90.0562 80.8762 88.7939 82.3978 86.2864 82.8347Z" fill="#4153B3" fill-opacity="0.42"/>
</g>
</g>
</g>
<g id="Group_10">
<g id="Group_11">
<path id="Vector_21" d="M158.477 22.1445H113.537V49.6233H158.477V22.1445Z" fill="white"/>
<path id="Vector_22" d="M158.596 49.7425H113.418V22.0254H158.596V49.7425ZM113.656 49.5042H158.358V22.2637H113.656V49.5042Z" fill="#4153B3" fill-opacity="0.42"/>
</g>
<g id="Group_12">
<g id="Group_13">
<path id="Vector_23" d="M121.78 40.877H119.193V45.6268H121.78V40.877Z" fill="#D1D1FF"/>
<path id="Vector_24" d="M126.954 38.7051H124.367V45.6254H126.954V38.7051Z" fill="#D1D1FF"/>
<path id="Vector_25" d="M132.126 40.4805H129.539V45.6265H132.126V40.4805Z" fill="#D1D1FF"/>
<path id="Vector_26" d="M137.299 36.8594H134.713V45.6264H137.299V36.8594Z" fill="#D1D1FF"/>
<path id="Vector_27" d="M142.473 34.543H139.887V45.6261H142.473V34.543Z" fill="#D1D1FF"/>
<path id="Vector_28" d="M147.647 31.2344H145.061V45.6255H147.647V31.2344Z" fill="#D1D1FF"/>
<path id="Vector_29" d="M152.817 26.1406H150.23V45.6259H152.817V26.1406Z" fill="#D1D1FF"/>
</g>
<g id="Group_14">
<path id="Vector_30" d="M121.249 28.4512H119.193V30.7786H121.249V28.4512Z" fill="#D1D1FF"/>
<path id="Vector_31" d="M138.347 29.5293H124.426V30.1258H138.347V29.5293Z" fill="#D1D1FF"/>
</g>
</g>
</g>
<g id="Group_15">
<path id="Vector_32" d="M118.037 63.5514L115.191 55.6895C111.976 56.8539 109.678 59.934 109.678 63.5514C109.678 68.1684 113.421 71.9112 118.037 71.9112C122.654 71.9112 126.397 68.1683 126.397 63.5514C126.397 62.1621 126.056 60.8532 125.457 59.7004L118.037 63.5514Z" fill="#EBEBFF"/>
<path id="Vector_33" d="M126.568 56.7216C125.175 54.0433 122.377 52.2129 119.149 52.2129C118.15 52.2129 117.191 52.3889 116.303 52.7107L119.149 60.5727L126.568 56.7216Z" fill="#4153B3" fill-opacity="0.42"/>
</g>
<g id="Group_16">
<path id="Vector_34" d="M129.872 90.3438H110.096V109.167H129.872V90.3438Z" fill="#EBEBFF"/>
<path id="Vector_35" d="M124.273 95.3477H113.193V96.1425H124.273V95.3477Z" fill="white"/>
<path id="Vector_36" d="M124.273 97.7285H113.193V98.5234H124.273V97.7285Z" fill="white"/>
</g>
<g id="Group_17">
<path id="Vector_37" d="M54.3809 54.3613H37.1836V83.4308H54.3809V54.3613Z" fill="#EBEBFF"/>
<g id="Group_18">
<path id="Vector_38" d="M51.083 58.5723H39.8047V68.8974H51.083V58.5723Z" fill="white"/>
<path id="Vector_39" d="M39.8875 58.4844L39.7266 58.6602L51.0051 68.9861L51.166 68.8104L39.8875 58.4844Z" fill="#EBEBFF"/>
<path id="Vector_40" d="M50.9977 58.4846L39.7207 68.8105L39.8816 68.9863L51.1586 58.6603L50.9977 58.4846Z" fill="#EBEBFF"/>
</g>
</g>
<g id="Group_19">
<g id="Group_20">
<path id="Vector_41" d="M45.4507 66.2344H6.11523V92.1518H45.4507V66.2344Z" fill="white"/>
<path id="Vector_42" d="M45.5629 92.264H6V66.1191H45.5629V92.264ZM6.2275 92.0366H45.3354V66.3466H6.2275V92.0366Z" fill="#4153B3" fill-opacity="0.42"/>
</g>
<g id="Group_21">
<g id="Group_22">
<path id="Vector_43" d="M10.2598 85.8941L12.8014 81.1286L18.0434 86.053L21.538 75.8866L28.0509 83.0348L32.3399 81.2875L40.1234 71.1211" fill="white"/>
<path id="Vector_44" d="M18.0958 86.2661L12.8329 81.3221L10.3645 85.9502L10.1543 85.8381L12.7691 80.9353L17.9903 85.84L21.4904 75.6579L28.0826 82.8932L32.2645 81.1895L40.0285 71.0488L40.2177 71.1936L32.4144 81.3856L28.0185 83.1766L27.9625 83.1151L21.5851 76.1155L18.0958 86.2661Z" fill="#4153B3" fill-opacity="0.42"/>
</g>
<path id="Vector_45" d="M12.8193 81.7636C13.1812 81.7636 13.4746 81.4703 13.4746 81.1084C13.4746 80.7465 13.1812 80.4531 12.8193 80.4531C12.4574 80.4531 12.1641 80.7465 12.1641 81.1084C12.1641 81.4703 12.4574 81.7636 12.8193 81.7636Z" fill="#4153B3" fill-opacity="0.42"/>
<path id="Vector_46" d="M18.0049 86.5898C18.3667 86.5898 18.6601 86.2964 18.6601 85.9346C18.6601 85.5727 18.3667 85.2793 18.0049 85.2793C17.643 85.2793 17.3496 85.5727 17.3496 85.9346C17.3496 86.2964 17.643 86.5898 18.0049 86.5898Z" fill="#4153B3" fill-opacity="0.42"/>
<path id="Vector_47" d="M21.5771 76.582C21.939 76.582 22.2324 76.2886 22.2324 75.9267C22.2324 75.5649 21.939 75.2715 21.5771 75.2715C21.2152 75.2715 20.9219 75.5649 20.9219 75.9267C20.9219 76.2886 21.2152 76.582 21.5771 76.582Z" fill="#4153B3" fill-opacity="0.42"/>
</g>
<g id="Group_23">
<path id="Vector_48" d="M34.1206 70.3652H17.4414V70.6035H34.1206V70.3652Z" fill="#4153B3" fill-opacity="0.42"/>
</g>
</g>
</g>
<g id="Group_24">
<g id="Group_25">
<path id="Vector_49" d="M99.6358 128.879C98.9308 124.259 99.8999 119.401 102.324 115.404C104.748 111.407 108.609 108.303 113.032 106.793C110.527 108.546 108.998 111.38 107.931 114.246C106.864 117.111 106.164 120.119 104.848 122.878C103.531 125.638 101.456 128.216 98.5781 129.249L99.6358 128.879Z" fill="#4153B3" fill-opacity="0.42"/>
<path id="Vector_50" d="M98.9435 128.919C98.8435 123.579 97.8062 118.257 95.8933 113.27C95.214 111.5 94.3994 109.732 93.075 108.374C91.7505 107.017 89.8243 106.122 87.957 106.454C90.2826 108.195 91.4871 111.058 92.1654 113.882C92.8437 116.707 93.1051 119.637 94.0603 122.38C95.0156 125.124 96.8426 127.768 99.5768 128.748L98.9435 128.919Z" fill="#4153B3" fill-opacity="0.42"/>
<path id="Vector_51" d="M98.5797 129.269C97.2502 125.689 95.805 122.018 93.1314 119.291C90.4578 116.564 86.2221 115.003 82.7207 116.528C85.5562 117.171 88.1546 118.813 89.9529 121.097C91.2717 122.773 92.1587 124.759 93.515 126.405C94.8713 128.05 96.9402 129.375 99.0361 128.983L98.5797 129.269Z" fill="#D1D1FF"/>
<path id="Vector_52" d="M98.155 129.024C97.6102 125.095 97.0652 121.102 97.6393 117.177C98.2133 113.252 100.069 109.333 103.395 107.17C101.554 108.975 100.94 111.709 100.939 114.287C100.938 116.865 101.46 119.419 101.504 121.997C101.548 124.575 101.036 127.313 99.2925 129.212L98.155 129.024Z" fill="#D1D1FF"/>
<path id="Vector_53" d="M99.9941 128.453C101.269 125.206 102.627 121.834 105.223 119.503C106.889 118.007 109.012 117.025 111.231 116.725C109.675 117.966 108.701 119.786 107.892 121.605C107.084 123.425 106.387 125.32 105.217 126.93C104.046 128.541 102.288 129.866 100.299 129.951L99.9941 128.453Z" fill="#D1D1FF"/>
</g>
<g id="Group_26">
<path id="Vector_54" d="M106.466 138.333H92.1522L89.9453 127.322H108.673L106.466 138.333Z" fill="white"/>
<path id="Vector_55" d="M106.565 138.453H92.0553L89.8008 127.203H108.819L106.565 138.453ZM92.2505 138.214H106.369L108.528 127.441H90.0915L92.2505 138.214Z" fill="#4153B3" fill-opacity="0.42"/>
</g>
</g>
<g id="Group_27">
<g id="Group_28">
<g id="Group_29">
<path id="Vector_56" d="M132.091 131.713V138.334H123.504L127.435 135.127L127.642 131.092L132.091 131.713Z" fill="#D1D1FF"/>
<path id="Vector_57" d="M127.522 135.036L127.357 135.209L128.997 136.768L129.161 136.596L127.522 135.036Z" fill="#1B1B43"/>
<path id="Vector_58" d="M131.259 133.469H128.32V133.707H131.259V133.469Z" fill="#1B1B43"/>
</g>
<g id="Group_30">
<path id="Vector_59" d="M142.126 132.023L142.437 138.334H133.85L137.471 135.23V131.402L142.126 132.023Z" fill="#D1D1FF"/>
<path id="Vector_60" d="M137.548 135.128L137.391 135.307L138.724 136.484L138.882 136.306L137.548 135.128Z" fill="#1B1B43"/>
<path id="Vector_61" d="M141.346 133.588H138.447V133.826H141.346V133.588Z" fill="#1B1B43"/>
</g>
<path id="Vector_62" d="M132.957 93.652C133.105 106.846 134.198 119.83 136.289 132.592H143.525C142.02 122.832 141.339 110.98 142.181 95.2657L136.956 90.9863L132.957 93.652Z" fill="#FE5B52"/>
<path id="Vector_63" d="M127.236 95.399L123.962 109.96C123.175 113.459 123.12 117.083 123.801 120.604L126.101 132.498H133.337L131.147 116.884L136.383 93.082L127.236 95.399Z" fill="#FE5B52"/>
<path id="Vector_64" d="M133.444 109.353C133.426 109.053 133.014 102.356 132.971 101.507L131.08 100.82L131.161 100.596L133.206 101.339V101.423C133.206 101.569 133.517 106.664 133.682 109.338L133.444 109.353Z" fill="#BE443D"/>
</g>
<g id="Group_31">
<path id="Vector_65" d="M149.111 62.5218L149.498 61.5985C149.498 61.5985 148.098 58.6498 148.545 58.2626C148.992 57.8755 149.707 58.9774 149.707 58.9774C149.707 58.9774 149.498 55.4033 150.183 55.3735C150.761 55.3483 150.719 56.3862 150.779 57.9349C150.779 57.9349 151.136 57.4584 151.794 57.9508C152.089 57.4584 152.715 57.7861 152.894 58.0839C153.102 57.8456 153.966 57.9052 153.847 58.9179C153.696 60.2022 153.102 62.5814 153.102 62.5814L151.196 64.16L149.111 62.5218Z" fill="#FFBC96"/>
<path id="Vector_66" d="M133.803 74.8541L136.701 74.8311C141.785 74.3776 145.756 70.2475 145.756 70.2475L149.112 62.5234L153.103 62.583L150.76 71.6608C150.424 72.9645 149.699 74.1352 148.682 75.0176L140.355 82.2406L133.803 74.8541Z" fill="#4153B3"/>
<path id="Vector_67" d="M125.855 81.4244L127.235 95.3958L142.18 95.2637L141.663 78.4257L133.8 74.8516L128.36 77.1549L125.855 81.4244Z" fill="#4153B3"/>
<g id="Group_32">
<path id="Vector_68" d="M116.602 82.7829C116.357 82.566 116.051 82.4342 115.725 82.4071C114.074 82.2695 108.909 81.8709 108.959 82.2713C109.019 82.7479 112.95 84.5349 112.95 84.5349C113.791 85.4811 114.632 86.4273 115.473 87.3735L117.783 83.8313L116.602 82.7829Z" fill="#FFBC96"/>
<path id="Vector_69" d="M127.866 76.1966C126.801 76.3826 125.886 77.059 125.396 78.0222L120.992 86.6784L117.783 83.8301L115.473 87.3724C115.754 87.6888 116.035 88.0051 116.316 88.3214C117.563 89.7255 119.018 91.6121 120.966 92.021C121.959 92.2295 122.883 91.8171 123.595 91.1343C124.116 90.6336 124.582 90.0151 124.954 89.395L126.711 86.4997L132.31 75.4199L127.866 76.1966Z" fill="#4153B3"/>
</g>
<path id="Vector_70" d="M125.97 81.4203L125.732 81.4434L126.569 90.0407L126.806 90.0176L125.97 81.4203Z" fill="#D1D1FF"/>
<path id="Vector_71" d="M141.754 80.9883L140.354 82.2392L141.843 84.7114L141.754 80.9883Z" fill="#1B1B43"/>
<path id="Vector_72" d="M151.295 59.7127C150.733 59.7127 150.69 58.9761 150.689 57.9355H150.868C150.868 59.1605 150.968 59.534 151.295 59.534C151.361 59.534 151.417 59.5079 151.467 59.4542C151.626 59.2834 151.688 58.8844 151.707 58.5261C151.694 58.267 151.701 58.0415 151.704 57.9478L151.883 57.9452C151.884 57.9672 151.9 58.208 151.887 58.5046C151.912 58.9899 151.993 59.4695 152.155 59.518C152.246 59.5451 152.324 59.5335 152.395 59.4826C152.588 59.3437 152.696 58.9506 152.752 58.5995C152.757 58.4487 152.773 58.2736 152.805 58.0707L152.983 58.0873C152.982 58.1074 152.975 58.3111 152.938 58.5675C152.925 58.9391 152.967 59.299 153.117 59.3622C153.228 59.4091 153.32 59.4087 153.398 59.3613C153.603 59.2363 153.677 58.8153 153.688 58.6635L153.866 58.677C153.864 58.7029 153.815 59.3159 153.491 59.5138C153.363 59.5924 153.214 59.5969 153.048 59.527C153.006 59.5095 152.875 59.4333 152.801 59.1544C152.731 59.3542 152.633 59.5307 152.499 59.6275C152.382 59.7118 152.249 59.7326 152.104 59.6891C151.947 59.6419 151.849 59.4413 151.79 59.1907C151.746 59.3463 151.684 59.4832 151.597 59.5761C151.513 59.6668 151.411 59.7127 151.295 59.7127Z" fill="#D28572"/>
</g>
<g id="Group_33">
<path id="Vector_73" d="M132.543 78.2413C131.273 78.3437 130.163 77.3978 130.06 76.1302L130.034 75.8085L129.672 71.3146L132.472 71.0907L134.268 70.9453L134.654 75.7584C134.757 77.0284 133.811 78.1388 132.543 78.2413Z" fill="#FFBC96"/>
<path id="Vector_74" d="M133.368 72.6072C132.495 74.1441 131.247 75.2497 130.034 75.8096L129.672 71.3158L132.472 71.0918L133.368 72.6072Z" fill="#1B1B43"/>
<path id="Vector_75" d="M134.281 67.9013L133.726 72.5882C133.726 72.5882 131.939 74.2966 129.318 74.2156C128.362 74.187 127.8 73.2816 127.471 72.1307C127.335 71.6494 127.24 71.1276 127.173 70.6058C126.954 68.8807 127.054 67.1865 127.054 67.1865L131.105 65.8379L134.281 67.9013Z" fill="#FFBC96"/>
<path id="Vector_76" d="M133.665 69.8275C133.243 68.324 132.485 67.5677 131.461 67.4051C128.204 69.1723 126.09 68.1199 124.551 66.1541C128.323 66.8888 129.972 61.5276 133.585 65.1017C136.266 65.9158 136.217 68.4773 134.698 70.5622L133.665 69.8275Z" fill="#1B1B43"/>
<g id="Group_34">
<path id="Vector_77" d="M135.339 70.4088C135.477 69.7013 135.092 69.0307 134.478 68.9108C133.865 68.791 133.256 69.2674 133.117 69.9749C132.979 70.6823 133.364 71.353 133.978 71.4728C134.591 71.5927 135.201 71.1163 135.339 70.4088Z" fill="#FFBC96"/>
<path id="Vector_78" d="M134.655 69.7004C134.468 69.732 134.347 69.8732 134.257 70.0339C134.168 70.1973 134.11 70.3786 134.074 70.5746L134.005 70.5788C133.975 70.4741 133.975 70.3626 133.993 70.2555C134.01 70.1479 134.047 70.0432 134.102 69.9466C134.157 69.8509 134.23 69.7608 134.328 69.6972C134.423 69.6329 134.55 69.6 134.66 69.6309L134.655 69.7004Z" fill="#1B1B43"/>
</g>
<g id="Group_35">
<path id="Vector_79" d="M128.025 70.0158C128.025 70.2187 127.927 70.3831 127.806 70.3831C127.686 70.3831 127.588 70.2186 127.588 70.0158C127.588 69.8129 127.686 69.6484 127.806 69.6484C127.927 69.6484 128.025 69.8128 128.025 70.0158Z" fill="#1B1B43"/>
<path id="Vector_80" d="M129.831 69.8669C129.831 70.0867 129.725 70.2649 129.594 70.2649C129.463 70.2649 129.357 70.0866 129.357 69.8669C129.357 69.647 129.463 69.4688 129.594 69.4688C129.725 69.4688 129.831 69.647 129.831 69.8669Z" fill="#1B1B43"/>
<path id="Vector_81" d="M128.522 70.3153C128.522 70.386 128.494 70.455 128.46 70.5146C128.424 70.5736 128.381 70.6244 128.339 70.671C128.254 70.7636 128.176 70.8477 128.157 70.9355C128.134 71.0255 128.169 71.114 128.238 71.2029C128.307 71.2904 128.401 71.3695 128.491 71.4574L128.453 71.5156C128.336 71.4663 128.221 71.4048 128.122 71.3084C128.072 71.2601 128.028 71.2005 127.999 71.1281C127.971 71.0548 127.964 70.971 127.984 70.8945C128.004 70.8172 128.044 70.7498 128.09 70.6976C128.136 70.6448 128.185 70.6012 128.232 70.5617C128.325 70.4808 128.414 70.4115 128.452 70.3047L128.522 70.3153Z" fill="#1B1B43"/>
<path id="Vector_82" d="M128.693 72.3017C128.945 72.2457 129.178 72.166 129.387 72.0362C129.491 71.9723 129.589 71.8981 129.684 71.8167C129.778 71.7353 129.869 71.6467 129.963 71.5566L130.019 71.5975C129.903 71.8365 129.715 72.0464 129.479 72.1883C129.244 72.3304 128.964 72.398 128.697 72.3714L128.693 72.3017Z" fill="#1B1B43"/>
<path id="Vector_83" d="M129.307 68.8813C129.256 69.1502 130.101 69.2368 130.253 69.2635C130.378 69.2854 130.556 69.2996 130.583 69.1098C130.615 68.8743 130.359 68.8494 130.215 68.8181C130.076 68.788 129.355 68.6272 129.307 68.8813Z" fill="#1B1B43"/>
<path id="Vector_84" d="M128.131 69.0466C128.127 69.3066 127.455 69.3326 127.332 69.3478C127.231 69.3603 127.09 69.3619 127.1 69.1793C127.113 68.9526 127.317 68.946 127.435 68.9257C127.548 68.9063 128.135 68.8011 128.131 69.0466Z" fill="#1B1B43"/>
</g>
<path id="Vector_85" opacity="0.2" d="M131.288 71.5303C131.765 71.5303 132.151 71.1436 132.151 70.6665C132.151 70.1895 131.765 69.8027 131.288 69.8027C130.811 69.8027 130.424 70.1895 130.424 70.6665C130.424 71.1436 130.811 71.5303 131.288 71.5303Z" fill="#FE5B52"/>
<path id="Vector_86" opacity="0.2" d="M127.818 71.4418C127.818 71.7254 127.682 71.9755 127.47 72.1304C127.334 71.6491 127.239 71.1273 127.172 70.6055C127.544 70.7032 127.818 71.0415 127.818 71.4418Z" fill="#FE5B52"/>
</g>
</g>
<g id="Group_36">
<g id="Group_37">
<path id="Vector_87" d="M66.2556 99.2773H49.6797V100.393H66.2556V99.2773Z" fill="#4153B3" fill-opacity="0.42"/>
<g id="Group_38">
<path id="Vector_88" d="M66.2545 99.2799H52.2559L57.5575 86.3535H71.5561L66.2545 99.2799Z" fill="white"/>
<path id="Vector_89" d="M66.3343 99.399H52.0781L57.4774 86.2344H71.7335L66.3343 99.399ZM52.4334 99.1607H66.1745L71.3784 86.4726H57.6373L52.4334 99.1607Z" fill="#4153B3" fill-opacity="0.42"/>
</g>
<path id="Vector_90" d="M65.0462 98.1899H54.0449L58.2114 88.0312H69.2127L65.0462 98.1899Z" fill="#EBEBFF"/>
</g>
<g id="Group_39">
<path id="Vector_91" d="M60.6816 100.746H60.4434V138.391H60.6816V100.746Z" fill="#1B1B43"/>
<path id="Vector_92" d="M73.9309 100.391H47.1914V102.517H73.9309V100.391Z" fill="#D1D1FF"/>
</g>
<g id="Group_40">
<path id="Vector_93" d="M25.6152 116.559H25.377V138.391H25.6152V116.559Z" fill="#1B1B43"/>
<path id="Vector_94" d="M32.0354 117.572H18.957C19.2347 116.244 20.4053 115.293 21.7617 115.293H29.2307C30.5872 115.293 31.7578 116.244 32.0354 117.572Z" fill="#D1D1FF"/>
<path id="Vector_95" d="M28.8914 138.327H22.1016C22.1016 137.501 22.7708 136.832 23.5964 136.832H27.3967C28.2222 136.832 28.8914 137.501 28.8914 138.327Z" fill="#D1D1FF"/>
</g>
<g id="Group_41">
<g id="Group_42">
<path id="Vector_96" d="M35.5893 84.1641C35.9238 84.6449 36.4033 85.3258 36.4564 85.9209C36.5334 86.786 35.1491 86.1796 35.1328 86.2544C35.1327 86.2542 35.5893 84.1641 35.5893 84.1641Z" fill="#D28572"/>
<g id="Group_43">
<path id="Vector_97" d="M33.4747 85.1816H29.0977V91.5962H33.4747V85.1816Z" fill="#FFBC96"/>
<path id="Vector_98" d="M33.475 86.2812V90.8608C32.0958 89.9944 30.9035 88.7075 29.873 87.2222L33.475 86.2812Z" fill="#1B1B43"/>
</g>
<path id="Vector_99" d="M35.9339 84.5548C35.7976 86.7707 34.9451 89.2772 32.6184 88.6588C30.7908 88.1731 28.7793 86.6343 28.7793 84.4142C28.7793 82.1942 30.3158 80.3945 32.2112 80.3945C33.3958 80.3945 34.8873 80.9694 35.5893 82.0799C36.0104 82.7461 35.9934 83.5885 35.9339 84.5548Z" fill="#FFBC96"/>
<path id="Vector_100" d="M32.0604 83.9109C32.68 82.2675 34.0984 82.106 34.0984 82.106C34.0984 82.106 37.3824 85.3542 37.179 81.9981C37.0174 79.331 34.4108 79.5831 34.4108 79.5831C33.1373 77.9253 31.095 78.574 30.3502 79.5351C29.6053 80.4962 29.8696 79.9436 28.1157 80.5682C26.3617 81.1929 27.2988 83.86 26.9864 84.0521C24.6558 84.0521 25.0883 86.3587 25.0883 86.3587L30.6056 88.1583L31.9346 84.5304L32.0604 83.9109Z" fill="#1B1B43"/>
<g id="Group_44">
<path id="Vector_101" d="M32.6347 84.0979C32.9758 84.6889 32.8837 85.3807 32.4286 85.6434C31.9737 85.9061 31.3284 85.64 30.9872 85.049C30.6461 84.4581 30.7382 83.7663 31.1932 83.5036C31.6482 83.2409 32.2936 83.507 32.6347 84.0979Z" fill="#FFBC96"/>
<path id="Vector_102" d="M31.9306 84.8107C31.853 84.661 31.7878 84.5154 31.6833 84.4135C31.6321 84.3621 31.5726 84.3204 31.505 84.2838C31.4375 84.2473 31.3623 84.2168 31.2852 84.1804L31.297 84.1183C31.3845 84.1135 31.4732 84.1237 31.5603 84.153C31.6472 84.1816 31.7317 84.2321 31.798 84.3007C31.8644 84.3693 31.9126 84.4516 31.9425 84.5363C31.9731 84.6211 31.9894 84.7081 31.9919 84.7954L31.9306 84.8107Z" fill="#1B1B43"/>
</g>
<path id="Vector_103" d="M29.8704 80.8416C30.8933 80.7931 31.68 79.8555 31.6276 78.7472C31.5751 77.639 30.7033 76.7799 29.6803 76.8283C28.6574 76.8767 27.8707 77.8144 27.9231 78.9226C27.9756 80.0309 28.8474 80.89 29.8704 80.8416Z" fill="#1B1B43"/>
<path id="Vector_104" opacity="0.2" d="M34.0312 86.6445C34.4918 86.6445 34.8652 86.2711 34.8652 85.8105C34.8652 85.3499 34.4918 84.9766 34.0312 84.9766C33.5706 84.9766 33.1973 85.3499 33.1973 85.8105C33.1973 86.2711 33.5706 86.6445 34.0312 86.6445Z" fill="#FE5B52"/>
</g>
<g id="Group_45">
<path id="Vector_105" d="M37.3087 107.374L23.291 105.587L25.9335 91.6552C26.1193 90.6807 26.7674 89.8539 27.6705 89.4441C28.4234 89.1009 29.2836 89.0795 30.0556 89.3821L34.833 91.5051C35.7527 91.9126 36.3866 92.7775 36.5009 93.7759L36.7702 98.3269L37.0776 103.486L37.3087 107.374Z" fill="#FFA121"/>
<path id="Vector_106" d="M50.1342 97.3654L53.8445 96.2748C54.1118 96.1961 54.3991 96.2393 54.6312 96.3934C55.6468 97.0676 58.3501 98.9752 57.6676 99.7551C57.3269 100.145 54.2245 99.2318 54.2245 99.2318L49.7324 100.485L50.1342 97.3654Z" fill="#FFBC96"/>
<path id="Vector_107" d="M37.0784 103.486C35.9108 101.999 35.2175 100.036 34.9863 97.6055L36.771 98.3274L37.0784 103.486Z" fill="#1B1B43"/>
<path id="Vector_108" d="M34.4094 91.3301L34.9679 91.5708C36.1178 92.0664 37.1482 92.8025 37.9899 93.7295L42.5901 98.796L50.1355 97.3663L51.1284 101.417L41.6476 104.38C40.899 104.513 40.1341 104.255 39.6196 103.695L32.7812 96.2544L34.4094 91.3301Z" fill="#FFA121"/>
<path id="Vector_109" d="M42.5015 98.8759C42.4792 98.8515 40.2347 96.4078 38.2909 94.2283C36.3692 92.0737 33.4395 91.0261 33.4102 91.0159L33.4892 90.791C33.5191 90.8015 36.5052 91.8682 38.4687 94.0697C40.4114 96.2479 42.6546 98.6903 42.677 98.7147L42.5015 98.8759Z" fill="#1B1B43"/>
<path id="Vector_110" d="M33.3411 97.0412L33.1699 97.207L39.5318 103.774L39.703 103.608L33.3411 97.0412Z" fill="#1B1B43"/>
</g>
<g id="Group_46">
<g id="Group_47">
<g id="Group_48">
<path id="Vector_111" d="M36.7994 128.447L33.7754 134.338L41.4146 138.259L39.3819 133.611L41.0405 129.927L36.7994 128.447Z" fill="#D1D1FF"/>
<path id="Vector_112" d="M39.3502 133.494L37.1797 134.133L37.247 134.361L39.4174 133.722L39.3502 133.494Z" fill="#1B1B43"/>
</g>
<path id="Vector_113" d="M41.5572 132.319L34.6367 129.737L39.3758 114.991C40.1905 112.807 42.7 111.727 44.9809 112.578C47.2618 113.429 48.4504 115.889 47.6357 118.072L41.5572 132.319Z" fill="#26289C"/>
</g>
<g id="Group_49">
<g id="Group_50">
<path id="Vector_114" d="M48.2676 131.322L48.9431 138.331H57.5302L53.5987 135.124L52.6756 131.084L48.2676 131.322Z" fill="#D1D1FF"/>
<path id="Vector_115" d="M53.5411 135.015L51.5059 136.137L51.6209 136.345L53.6561 135.223L53.5411 135.015Z" fill="#1B1B43"/>
</g>
<path id="Vector_116" d="M54.463 132.155L46.9574 133.347L41.8178 118.233L40.8814 115.476L28.1171 115.579C24.96 115.65 22.4485 112.946 22.7583 109.801L23.2897 105.588L35.9182 107.177L44.2173 108.09C47.6722 108.685 48.7326 110.778 49.4521 113.465L54.463 132.155Z" fill="#4153B3"/>
<path id="Vector_117" d="M41.8192 118.234L40.8828 115.478L42.6103 115.418C42.7699 116.457 42.3577 117.617 41.8192 118.234Z" fill="#1B1B43"/>
</g>
</g>
</g>
</g>
<path id="Vector_118" d="M155.726 138.213H11.0938V138.451H155.726V138.213Z" fill="#1B1B43"/>
</g>
</g>
</g>
</svg>
