<svg width="75" height="58" viewBox="0 0 75 58" fill="none" xmlns="http://www.w3.org/2000/svg">
<path d="M40.5406 52.8037C45.3651 52.8037 49.2906 48.8782 49.2906 44.0537V12.5537C49.2906 7.72925 45.3651 3.80371 40.5406 3.80371H16.0406C11.2162 3.80371 7.29065 7.72925 7.29065 12.5537V44.0537C7.29065 48.8782 11.2162 52.8037 16.0406 52.8037H40.5406ZM10.7906 12.5537C10.7906 9.65869 13.1456 7.30371 16.0406 7.30371H40.5406C43.4357 7.30371 45.7906 9.65869 45.7906 12.5537V44.0537C45.7906 46.9487 43.4357 49.3037 40.5406 49.3037H16.0406C13.1456 49.3037 10.7906 46.9487 10.7906 44.0537V12.5537Z" fill="#A1A5AF"/>
<g clip-path="url(#clip0_9854_13675)">
<path d="M26.0729 35.3581L23.1271 38.304C21.9058 39.5253 19.928 39.5253 18.7077 38.3043C17.4872 37.0837 17.4872 35.1057 18.7075 33.8855L24.6002 27.9927C25.8205 26.7724 27.7985 26.7724 29.0187 27.9927C29.4255 28.3995 30.0851 28.3995 30.4919 27.9927C30.8987 27.5859 30.8987 26.9264 30.4919 26.5196C28.458 24.4857 25.161 24.4857 23.1271 26.5196L17.2343 32.4123C15.2004 34.4462 15.2004 37.7432 17.2343 39.7771C19.268 41.8121 22.5653 41.8121 24.6003 39.7771L27.5461 36.8312C27.9529 36.4245 27.9529 35.7649 27.5461 35.3581C27.1393 34.9513 26.4797 34.9514 26.0729 35.3581Z" fill="#A1A5AF"/>
<path d="M39.183 17.8291C37.1491 15.7952 33.8509 15.7952 31.817 17.8291L28.2826 21.3635C27.8759 21.7703 27.8759 22.4299 28.2826 22.8367C28.6894 23.2435 29.349 23.2435 29.7558 22.8367L33.2902 19.3023C34.5105 18.082 36.4895 18.082 37.7098 19.3023C38.9301 20.5226 38.9301 22.5005 37.7098 23.7208L31.2285 30.2022C30.0082 31.4225 28.0303 31.4225 26.81 30.2022C26.4032 29.7954 25.7436 29.7954 25.3368 30.2022C24.93 30.6089 24.93 31.2685 25.3368 31.6753C27.3707 33.7092 30.6678 33.7092 32.7017 31.6753L39.183 25.194C41.2169 23.1601 41.2169 19.863 39.183 17.8291Z" fill="#A1A5AF"/>
</g>
<path d="M66.7797 49.8531C67.1539 49.4789 67.1539 48.8721 66.7797 48.4979L65.0856 46.8037L66.7797 45.1096C67.1539 44.7354 67.1539 44.1286 66.7797 43.7543C66.4055 43.3801 65.7987 43.3801 65.4244 43.7543L63.7303 45.4484L62.0362 43.7543C61.6619 43.3801 61.0551 43.3801 60.6809 43.7543C60.3066 44.1286 60.3066 44.7354 60.6809 45.1096L62.375 46.8037L60.6809 48.4979C60.3066 48.8721 60.3066 49.4789 60.6809 49.8531C61.0551 50.2274 61.6619 50.2274 62.0362 49.8531L63.7303 48.159L65.4244 49.8531C65.7987 50.2274 66.4055 50.2274 66.7797 49.8531Z" fill="#A1A5AF"/>
<path fill-rule="evenodd" clip-rule="evenodd" d="M57.3586 39.9532C61.002 36.3099 66.9091 36.3099 70.5524 39.9532C73.967 43.3678 74.1815 48.7707 71.1957 52.435C67.5369 56.9252 60.7732 56.5616 57.3586 53.147C53.7153 49.5037 53.7153 43.5966 57.3586 39.9532ZM69.1972 41.3085C66.3022 38.4137 61.6088 38.4137 58.7139 41.3085C55.819 44.2034 55.819 48.8968 58.7139 51.7918C61.6088 54.6866 66.3022 54.6866 69.1972 51.7918C72.092 48.8968 72.092 44.2034 69.1972 41.3085Z" fill="#A1A5AF"/>
<defs>
<clipPath id="clip0_9854_13675">
<rect width="25" height="25" fill="white" transform="translate(15.7086 16.3037)"/>
</clipPath>
</defs>
</svg>
