<svg width="24" height="24" viewBox="0 0 24 24" fill="none" xmlns="http://www.w3.org/2000/svg">
<path d="M12.6451 5.85613L16.5078 9.28808C18.0322 10.6443 18.7954 11.322 18.7954 12.195C18.7954 13.069 18.0322 13.7467 16.5078 15.102L12.6451 18.5339C11.949 19.1532 11.601 19.4634 11.3142 19.334C11.0273 19.2047 11.0273 18.74 11.0273 17.8077V15.5288C7.52734 15.5288 3.73568 17.1952 2.27734 19.9728C2.27734 11.0847 7.46221 8.86224 11.0273 8.86224V6.58238C11.0273 5.65099 11.0273 5.1853 11.3142 5.05599C11.601 4.92766 11.949 5.23683 12.6461 5.85613H12.6451Z" stroke="white" stroke-width="1.77083" stroke-linecap="round" stroke-linejoin="round"/>
<path opacity="0.5" d="M15.4414 4.9043L20.5125 9.61374C20.9045 9.97776 21.2149 10.4206 21.4234 10.9133C21.6319 11.4059 21.7337 11.9371 21.7221 12.4719C21.7105 13.0067 21.5858 13.5329 21.3562 14.0161C21.1267 14.4992 20.7974 14.9283 20.39 15.275L15.4414 19.4876" stroke="white" stroke-width="1.77083" stroke-linecap="round"/>
</svg>
