<svg width="75" height="58" viewBox="0 0 75 58" fill="none" xmlns="http://www.w3.org/2000/svg">
<path d="M32.897 49.0226C30.0317 49.6381 27.0691 49.6441 24.2014 49.0403C21.3338 48.4364 18.6251 47.2362 16.2514 45.5175C13.8778 43.7989 11.8921 41.6002 10.4233 39.0642C8.95455 36.5283 8.03557 33.7118 7.72604 30.7976C7.4165 27.8834 7.72333 24.9367 8.6266 22.1488C9.52987 19.361 11.0094 16.7942 12.9691 14.6152C14.9288 12.4363 17.3248 10.6939 20.0017 9.50108C22.6785 8.3083 25.5763 7.69185 28.5069 7.69174C33.935 7.66584 39.1577 9.7646 43.0586 13.5393C46.9594 17.3139 49.2286 22.465 49.3811 27.8909C49.3874 28.0995 49.4747 28.2974 49.6245 28.4428C49.7742 28.5881 49.9746 28.6695 50.1833 28.6696C50.1919 28.6696 50.2006 28.6696 50.2092 28.6688C50.3147 28.6656 50.4185 28.6417 50.5147 28.5983C50.611 28.5549 50.6977 28.493 50.7699 28.4161C50.8422 28.3392 50.8986 28.2488 50.9358 28.15C50.9731 28.0513 50.9905 27.9462 50.9871 27.8407C50.8388 23.4252 49.3938 19.151 46.8324 15.5513C44.2709 11.9516 40.7063 9.18575 36.5833 7.59862C32.4602 6.01149 27.9611 5.67337 23.6471 6.62644C19.3331 7.5795 15.3952 9.78157 12.3245 12.958C9.25381 16.1344 7.18625 20.1446 6.3797 24.4883C5.57315 28.8321 6.06331 33.3172 7.78904 37.3842C9.51478 41.4512 12.3997 44.9202 16.084 47.3583C19.7683 49.7965 24.0889 51.096 28.5069 51.0948C30.0948 51.0938 31.6783 50.9265 33.2313 50.5956C33.4399 50.5513 33.6224 50.4259 33.7385 50.247C33.8546 50.0682 33.895 49.8505 33.8506 49.6419C33.8063 49.4333 33.6809 49.2509 33.5021 49.1348C33.3232 49.0186 33.1055 48.9783 32.897 49.0226Z" fill="#A1A5AF"/>
<path d="M28.5077 11.7119C28.4021 11.7119 28.2976 11.7326 28.2 11.773C28.1025 11.8133 28.0138 11.8725 27.9392 11.9472C27.8645 12.0218 27.8053 12.1105 27.765 12.208C27.7246 12.3056 27.7039 12.4101 27.7039 12.5157V25.4899C27.1513 25.6339 26.647 25.9226 26.2432 26.3264C25.8394 26.7302 25.5507 27.2345 25.4067 27.7871H16.4512C16.2385 27.7878 16.0347 27.8728 15.8845 28.0234C15.7344 28.1741 15.65 28.3782 15.65 28.5909C15.65 28.8036 15.7344 29.0077 15.8845 29.1583C16.0347 29.309 16.2385 29.394 16.4512 29.3946H25.4067C25.5474 29.943 25.8306 30.4444 26.2276 30.8479C26.6247 31.2514 27.1214 31.5427 27.6674 31.6921C28.2135 31.8416 28.7893 31.8439 29.3365 31.6988C29.8837 31.5538 30.3828 31.2665 30.783 30.8662C31.1833 30.466 31.4706 29.9669 31.6156 29.4197C31.7607 28.8725 31.7584 28.2966 31.6089 27.7506C31.4594 27.2046 31.1682 26.7079 30.7647 26.3108C30.3612 25.9138 29.8598 25.6306 29.3114 25.4899V12.5157C29.3115 12.4101 29.2907 12.3056 29.2504 12.208C29.21 12.1105 29.1508 12.0218 29.0762 11.9472C29.0015 11.8725 28.9129 11.8133 28.8153 11.773C28.7178 11.7326 28.6132 11.7119 28.5077 11.7119ZM30.1152 28.5909C30.1152 28.9088 30.0209 29.2196 29.8443 29.484C29.6676 29.7483 29.4166 29.9544 29.1228 30.076C28.8291 30.1977 28.5059 30.2295 28.194 30.1675C27.8822 30.1055 27.5958 29.9524 27.371 29.7276C27.1462 29.5027 26.9931 29.2163 26.931 28.9045C26.869 28.5926 26.9008 28.2694 27.0225 27.9757C27.1442 27.682 27.3502 27.4309 27.6146 27.2543C27.8789 27.0776 28.1897 26.9834 28.5077 26.9834C28.9338 26.9839 29.3424 27.1535 29.6437 27.4548C29.9451 27.7562 30.1146 28.1647 30.1152 28.5909Z" fill="#A1A5AF"/>
<path d="M48.8514 30.3177L31.0832 37.6333C30.847 37.7332 30.6387 37.8893 30.4767 38.0881C30.3146 38.2869 30.2035 38.5223 30.1532 38.7738C30.1029 39.0253 30.1149 39.2853 30.188 39.5311C30.2612 39.777 30.3933 40.0012 30.5729 40.1843L32.6444 42.2557L33.2448 46.4613C33.3006 46.8603 33.5087 47.2222 33.8256 47.471C34.1424 47.7198 34.5434 47.8361 34.9442 47.7957L37.8814 47.4935L41.025 50.6363C41.2068 50.8186 41.4309 50.9532 41.6773 51.028C41.9237 51.1029 42.1848 51.1157 42.4373 51.0652C42.6899 51.0148 42.926 50.9028 43.1248 50.7391C43.3236 50.5754 43.4789 50.3651 43.5768 50.1269L50.8922 32.3586C51.0047 32.0734 51.0314 31.7615 50.9691 31.4613C50.9067 31.1611 50.758 30.8857 50.5412 30.6688C50.3244 30.452 50.049 30.3033 49.7488 30.2409C49.4486 30.1785 49.1367 30.2052 48.8514 30.3177ZM42.1623 49.5005L39.0195 46.3585C38.8748 46.2125 38.7027 46.0967 38.513 46.0178C38.3233 45.9388 38.1198 45.8983 37.9143 45.8985C37.8632 45.8984 37.8121 45.901 37.7613 45.9064L34.8367 46.2337L34.2338 42.0178C34.1866 41.6819 34.0315 41.3703 33.7919 41.1301L31.6954 39.1199L49.3656 31.8445L42.1623 49.5005Z" fill="#A1A5AF"/>
<path d="M66.9242 50.2555C67.2985 49.8813 67.2985 49.2744 66.9242 48.9002L65.2301 47.2061L66.9242 45.5119C67.2985 45.1377 67.2985 44.5309 66.9242 44.1567C66.55 43.7824 65.9432 43.7824 65.569 44.1567L63.8748 45.8508L62.1807 44.1567C61.8065 43.7824 61.1997 43.7824 60.8254 44.1567C60.4512 44.5309 60.4512 45.1377 60.8254 45.5119L62.5195 47.2061L60.8254 48.9002C60.4512 49.2744 60.4512 49.8813 60.8254 50.2555C61.1997 50.6297 61.8065 50.6297 62.1807 50.2555L63.8748 48.5613L65.569 50.2555C65.9432 50.6297 66.55 50.6297 66.9242 50.2555Z" fill="#A1A5AF"/>
<path fill-rule="evenodd" clip-rule="evenodd" d="M57.5032 40.3556C61.1465 36.7122 67.0536 36.7122 70.697 40.3556C74.1115 43.7702 74.326 49.1731 71.3402 52.8374C67.6814 57.3276 60.9177 56.9639 57.5032 53.5494C53.8598 49.906 53.8598 43.9989 57.5032 40.3556ZM69.3417 41.7109C66.4468 38.816 61.7533 38.816 58.8584 41.7109C55.9636 44.6057 55.9636 49.2992 58.8584 52.1941C61.7533 55.089 66.4468 55.089 69.3417 52.1941C72.2365 49.2992 72.2365 44.6057 69.3417 41.7109Z" fill="#A1A5AF"/>
</svg>
