<svg width="50" height="50" viewBox="0 0 50 50" fill="none" xmlns="http://www.w3.org/2000/svg">
<g clip-path="url(#clip0_12450_4992)">
<path d="M35.8788 22.6463C35.8788 23.4554 35.223 24.1111 34.4139 24.1111C33.6052 24.1111 32.9491 23.4554 32.9491 22.6463C32.9491 21.8376 33.6052 21.1815 34.4139 21.1815C35.223 21.1815 35.8788 21.8376 35.8788 22.6463Z" fill="#A1A5AF"/>
<path d="M34.412 7.06055C31.4384 7.06055 29.0264 9.46686 29.0264 12.4461V12.448C29.0264 13.2568 29.6821 13.9121 30.4912 13.9121C31.3003 13.9121 31.9561 13.2552 31.9561 12.4461C31.9561 11.0919 33.0513 9.99023 34.4139 9.99023C35.7688 9.99023 36.8713 11.0927 36.8713 12.448C36.8713 13.803 35.7688 14.9055 34.4139 14.9055C33.6048 14.9055 32.949 15.5616 32.949 16.3703V17.9393C32.949 18.7484 33.6048 19.4041 34.4139 19.4041C35.2226 19.4041 35.8787 18.7484 35.8787 17.9393V17.633C38.1397 16.9933 39.801 14.9108 39.801 12.448C39.801 9.47716 37.3844 7.06055 34.412 7.06055Z" fill="#A1A5AF"/>
<path d="M14.0564 37.384C15.8768 35.9665 17.0509 33.7563 17.0509 31.2759C17.0509 27.0077 13.578 23.5352 9.30977 23.5352C5.0415 23.5352 1.56898 27.0077 1.56898 31.2759C1.56898 33.7563 2.74315 35.9665 4.56314 37.384C1.99432 38.9122 0 41.7984 0 45.3972V48.5352C0 49.3443 0.655746 50 1.46484 50H17.1551C17.9638 50 18.6199 49.3443 18.6199 48.5352V45.3972C18.6199 41.7992 16.626 38.9126 14.0564 37.384ZM4.49867 31.2759C4.49867 28.6232 6.65703 26.4648 9.31015 26.4648C11.9629 26.4648 14.1212 28.6232 14.1212 31.2759C14.1212 33.9291 11.9629 36.0874 9.31015 36.0874C6.65703 36.0874 4.49867 33.9291 4.49867 31.2759ZM15.6902 47.0703H2.92969V45.3972C2.92969 41.8732 5.78079 39.0171 9.30977 39.0171C12.8338 39.0171 15.6898 41.8682 15.6898 45.3972V47.0703H15.6902Z" fill="#A1A5AF"/>
<path d="M43.8282 0H25C21.5912 0 18.8282 2.75803 18.8282 6.1718V34.4139C18.8282 35.6121 20.2022 36.3129 21.1719 35.5858L27.0573 31.1718H43.8282C47.237 31.1718 50 28.4138 50 25V6.1718C50 2.76298 47.242 0 43.8282 0ZM47.0703 25C47.0703 26.7921 45.6211 28.2421 43.8282 28.2421H26.569C26.252 28.2421 25.9437 28.3451 25.6901 28.5351L21.7579 31.4842V6.1718C21.7579 4.37965 23.2071 2.92969 25 2.92969H43.8282C45.6203 2.92969 47.0703 4.37889 47.0703 6.1718V25Z" fill="#A1A5AF"/>
</g>
<defs>
<clipPath id="clip0_12450_4992">
<rect width="50" height="50" fill="white"/>
</clipPath>
</defs>
</svg>
