<svg width="75" height="75" viewBox="0 0 75 75" fill="none" xmlns="http://www.w3.org/2000/svg">
<g id="fi_9068771" clip-path="url(#clip0_3117_8675)">
<g id="Layer 2">
<g id="pause">
<path id="background" d="M37.5 75C58.2107 75 75 58.2107 75 37.5C75 16.7893 58.2107 0 37.5 0C16.7893 0 0 16.7893 0 37.5C0 58.2107 16.7893 75 37.5 75Z" fill="#FF5A54"/>
<path id="Vector" d="M74.7378 41.9502C72.7134 59.0742 59.1504 72.6636 42.041 74.7275L23.5342 56.2222L32.332 18.8057L42.6636 29.1372L51.8306 19.043L74.7378 41.9502Z" fill="url(#paint0_linear_3117_8675)"/>
<g id="Group">
<path id="Vector_2" d="M29.6338 17.7246H26.228C23.9021 17.7246 22.0166 19.6101 22.0166 21.936V53.064C22.0166 55.3899 23.9021 57.2754 26.228 57.2754H29.6338C31.9597 57.2754 33.8452 55.3899 33.8452 53.064V21.936C33.8452 19.6101 31.9597 17.7246 29.6338 17.7246Z" fill="white"/>
<path id="Vector_3" d="M48.772 17.7246H45.3662C43.0403 17.7246 41.1548 19.6101 41.1548 21.936V53.064C41.1548 55.3899 43.0403 57.2754 45.3662 57.2754H48.772C51.0979 57.2754 52.9834 55.3899 52.9834 53.064V21.936C52.9834 19.6101 51.0979 17.7246 48.772 17.7246Z" fill="white"/>
</g>
</g>
</g>
</g>
<defs>
<linearGradient id="paint0_linear_3117_8675" x1="25.5938" y1="25.5439" x2="64.0415" y2="63.9917" gradientUnits="userSpaceOnUse">
<stop stop-color="#B33128"/>
<stop offset="0.93" stop-color="#B33128" stop-opacity="0"/>
</linearGradient>
<clipPath id="clip0_3117_8675">
<rect width="75" height="75" fill="white"/>
</clipPath>
</defs>
</svg>
