<svg width="50" height="50" viewBox="0 0 50 50" fill="none" xmlns="http://www.w3.org/2000/svg">
<g clip-path="url(#clip0_12450_3934)">
<path d="M37.6629 45.8332C33.6418 45.8332 30.3711 42.5625 30.3711 38.5418C30.3711 34.5207 33.6418 31.25 37.6629 31.25C41.6836 31.25 44.9543 34.5207 44.9543 38.5418C44.9543 42.5625 41.6836 45.8332 37.6629 45.8332ZM37.6629 34.375C35.3649 34.375 33.4961 36.2438 33.4961 38.5418C33.4961 40.8398 35.3649 42.7082 37.6629 42.7082C39.9609 42.7082 41.8293 40.8398 41.8293 38.5418C41.8293 36.2438 39.9609 34.375 37.6629 34.375Z" fill="#A1A5AF"/>
<path d="M37.6631 50.0008C36.8006 50.0008 36.1006 49.3008 36.1006 48.4383V44.2715C36.1006 43.409 36.8006 42.709 37.6631 42.709C38.5256 42.709 39.2256 43.409 39.2256 44.2715V48.4383C39.2256 49.3008 38.5256 50.0008 37.6631 50.0008Z" fill="#A1A5AF"/>
<path d="M37.6631 34.3758C36.8006 34.3758 36.1006 33.6758 36.1006 32.8133V28.6465C36.1006 27.784 36.8006 27.084 37.6631 27.084C38.5256 27.084 39.2256 27.784 39.2256 28.6465V32.8133C39.2256 33.6758 38.5256 34.3758 37.6631 34.3758Z" fill="#A1A5AF"/>
<path d="M42.6214 37.2506C42.0816 37.2506 41.5567 36.9714 41.2672 36.4694C40.8357 35.7213 41.0921 34.7672 41.8379 34.3339L45.442 32.2503C46.1878 31.8192 47.1441 32.0756 47.5774 32.8214C48.0089 33.569 47.7525 34.5235 47.0068 34.9568L43.4026 37.04C43.1566 37.1839 42.888 37.2506 42.6214 37.2506Z" fill="#A1A5AF"/>
<path d="M29.1027 45.0424C28.5633 45.0424 28.038 44.7631 27.7484 44.2611C27.3174 43.513 27.5733 42.559 28.3195 42.1256L31.9236 40.0424C32.6694 39.6091 33.6257 39.8673 34.0591 40.6131C34.4901 41.3612 34.2338 42.3152 33.488 42.7486L29.8839 44.8318C29.6359 44.9756 29.3674 45.0424 29.1027 45.0424Z" fill="#A1A5AF"/>
<path d="M32.7049 37.2506C32.4401 37.2506 32.1693 37.1839 31.9236 37.04L28.3195 34.9568C27.5733 34.5235 27.3174 33.569 27.7484 32.8214C28.1818 32.0756 29.1381 31.8192 29.8839 32.2503L33.488 34.3339C34.2338 34.7672 34.4901 35.7213 34.0591 36.4694C33.7673 36.9714 33.2424 37.2506 32.7049 37.2506Z" fill="#A1A5AF"/>
<path d="M46.223 45.0418C45.9587 45.0418 45.6878 44.975 45.4418 44.8312L41.8377 42.748C41.0919 42.3146 40.8355 41.3606 41.267 40.6125C41.7003 39.8667 42.6563 39.6104 43.4025 40.0418L47.0066 42.125C47.7524 42.5584 48.0087 43.5124 47.5773 44.2605C47.2877 44.7625 46.7628 45.0418 46.223 45.0418Z" fill="#A1A5AF"/>
<path d="M20.9961 20.8332C15.2523 20.8332 10.5793 16.1606 10.5793 10.4168C10.5793 4.673 15.2523 0 20.9961 0C26.7399 0 31.4129 4.673 31.4129 10.4168C31.4129 16.1606 26.7399 20.8332 20.9961 20.8332ZM20.9961 3.125C16.9754 3.125 13.7043 6.39572 13.7043 10.4168C13.7043 14.4375 16.9754 17.7082 20.9961 17.7082C25.0168 17.7082 28.2879 14.4375 28.2879 10.4168C28.2879 6.39572 25.0168 3.125 20.9961 3.125Z" fill="#A1A5AF"/>
<path d="M23.0793 43.75H3.80859C2.94609 43.75 2.24609 43.05 2.24609 42.1875V34.8957C2.24609 29.4395 6.68564 25 12.1418 25H29.8504C30.7129 25 31.4129 25.7 31.4129 26.5625C31.4129 27.425 30.7129 28.125 29.8504 28.125H12.1418C8.40874 28.125 5.37109 31.1626 5.37109 34.8957V40.625H23.0793C23.9418 40.625 24.6418 41.325 24.6418 42.1875C24.6418 43.05 23.9418 43.75 23.0793 43.75Z" fill="#A1A5AF"/>
</g>
<defs>
<clipPath id="clip0_12450_3934">
<rect width="50" height="50" fill="white"/>
</clipPath>
</defs>
</svg>
