<svg width="75" height="75" viewBox="0 0 75 75" fill="none" xmlns="http://www.w3.org/2000/svg">
<g id="fi_9068786" clip-path="url(#clip0_3117_8697)">
<g id="Layer 2">
<g id="play">
<path id="background" d="M37.5 75C58.2107 75 75 58.2107 75 37.5C75 16.7893 58.2107 0 37.5 0C16.7893 0 0 16.7893 0 37.5C0 58.2107 16.7893 75 37.5 75Z" fill="#01B176"/>
<path id="Vector" d="M71.1563 54.0527C68.6045 59.2326 64.8927 63.7543 60.3093 67.2664C55.7259 70.7784 50.3943 73.1863 44.729 74.3027L27.3442 56.918L52.3989 35.3027L71.1563 54.0527Z" fill="url(#paint0_linear_3117_8697)"/>
<path id="Vector_2" d="M52.3989 35.3025L30.3999 18.3103C29.9881 17.9916 29.4951 17.7947 28.9769 17.7422C28.4588 17.6897 27.9363 17.7836 27.4689 18.0133C27.0015 18.2429 26.6079 18.5991 26.3329 19.0414C26.0578 19.4836 25.9124 19.9941 25.9131 20.5149V54.492C25.9138 55.0121 26.0602 55.5217 26.3358 55.9629C26.6114 56.404 27.0051 56.7592 27.4722 56.9879C27.9394 57.2167 28.4613 57.31 28.9788 57.2572C29.4962 57.2044 29.9886 57.0076 30.3999 56.6893L52.3989 39.7044C52.735 39.4443 53.007 39.1107 53.1941 38.7292C53.3813 38.3477 53.4786 37.9284 53.4786 37.5035C53.4786 37.0785 53.3813 36.6592 53.1941 36.2777C53.007 35.8962 52.735 35.5626 52.3989 35.3025Z" fill="white"/>
</g>
</g>
</g>
<defs>
<linearGradient id="paint0_linear_3117_8697" x1="39.0132" y1="45.249" x2="60.8979" y2="67.1338" gradientUnits="userSpaceOnUse">
<stop stop-color="#007C53"/>
<stop offset="0.93" stop-color="#01B176" stop-opacity="0"/>
</linearGradient>
<clipPath id="clip0_3117_8697">
<rect width="75" height="75" fill="white"/>
</clipPath>
</defs>
</svg>
