<svg width="50" height="50" viewBox="0 0 50 50" fill="none" xmlns="http://www.w3.org/2000/svg">
<path d="M31.2969 22.0062C31.2969 21.2297 30.6672 20.6 29.8906 20.6H14.4219C13.6453 20.6 13.0156 21.2297 13.0156 22.0062C13.0156 22.7828 13.6453 23.4125 14.4219 23.4125H29.8906C30.6672 23.4125 31.2969 22.7828 31.2969 22.0062Z" fill="#A1A5AF"/>
<path d="M14.4188 27.7015C13.6422 27.7015 13.0125 28.3312 13.0125 29.1078C13.0125 29.8844 13.6422 30.514 14.4188 30.514H22.6203C23.3969 30.514 24.0266 29.8844 24.0266 29.1078C24.0266 28.3312 23.3969 27.7015 22.6203 27.7015H14.4188Z" fill="#A1A5AF"/>
<path d="M40.5625 22.0844C39.7859 22.0844 39.1562 22.7141 39.1562 23.4906V34.8641C39.1562 36.9922 37.425 38.7234 35.2969 38.7234H25.8906C25.5859 38.7234 25.2891 38.8219 25.0453 39.0063L16.9234 45.1141C16.7172 45.2687 16.5234 45.2047 16.4266 45.1516C16.3281 45.1016 16.1656 44.9781 16.1719 44.7266L16.3281 40.1797C16.3406 39.7984 16.1984 39.4281 15.9344 39.1547C15.6703 38.8797 15.3047 38.725 14.9234 38.725H8.39062C6.2625 38.725 4.53125 36.9953 4.53125 34.8656V16.2719C4.53125 14.1359 6.2625 12.3984 8.39062 12.3984H25.7187C26.4953 12.3984 27.125 11.7687 27.125 10.9922C27.125 10.2156 26.4953 9.58594 25.7187 9.58594H8.39062C4.7125 9.58594 1.71875 12.5859 1.71875 16.2734V34.8656C1.71875 38.5438 4.7125 41.5391 8.39062 41.5391H13.4672L13.3609 44.6359C13.3234 45.9078 14 47.0641 15.1297 47.65C15.6125 47.9016 16.1328 48.025 16.6484 48.025C17.3406 48.025 18.0266 47.8016 18.6109 47.3656L26.3594 41.5391H35.2953C38.9734 41.5391 41.9672 38.5453 41.9672 34.8656V23.4922C41.9688 22.7141 41.3391 22.0844 40.5625 22.0844Z" fill="#A1A5AF"/>
<path d="M48.1641 8.68905C47.9094 7.9078 47.2828 7.32343 46.4875 7.12655L42.8938 6.23124L40.9313 3.09061C40.0609 1.69374 37.7891 1.69686 36.9203 3.09061L34.9578 6.23124L31.3641 7.12655C30.5688 7.32343 29.9406 7.9078 29.6875 8.68905C29.4344 9.4703 29.5969 10.3125 30.125 10.9422L32.5063 13.7766L32.2469 17.4703C32.1891 18.289 32.5516 19.0656 33.2156 19.5484C33.6281 19.8484 34.1125 20.0031 34.6031 20.0031C34.9016 20.0031 35.2031 19.9453 35.4922 19.8281L38.9266 18.4406L42.3594 19.8281C43.1203 20.1375 43.9703 20.0312 44.6359 19.55C45.3 19.0672 45.6625 18.2906 45.6063 17.4703L45.3469 13.7766L47.7281 10.9406C48.2547 10.3125 48.4188 9.4703 48.1641 8.68905ZM42.8266 12.4031C42.5922 12.6828 42.475 13.0422 42.5016 13.4078L42.7516 16.9547L39.4547 15.6219C39.2859 15.5531 39.1063 15.5187 38.9281 15.5187C38.75 15.5187 38.5703 15.5531 38.4016 15.6219L35.1063 16.9547L35.3547 13.4078C35.3797 13.0437 35.2625 12.6828 35.0297 12.4031L32.7438 9.68124L36.1938 8.8203C36.5469 8.73124 36.8531 8.51093 37.0453 8.20155L38.9297 5.18749L40.8141 8.20155C41.0078 8.51093 41.3125 8.7328 41.6656 8.8203L45.1156 9.68124L42.8266 12.4031Z" fill="#A1A5AF"/>
</svg>
